<?xml version="1.0" encoding="UTF-8" standalone="no"?>
<!DOCTYPE svg PUBLIC "-//W3C//DTD SVG 1.1//EN" "http://www.w3.org/Graphics/SVG/1.1/DTD/svg11.dtd">
<svg width="100%" height="100%" viewBox="0 0 41 55" version="1.1" xmlns="http://www.w3.org/2000/svg" xmlns:xlink="http://www.w3.org/1999/xlink" xml:space="preserve" style="fill-rule:evenodd;clip-rule:evenodd;stroke-linejoin:round;stroke-miterlimit:1.41421;">
    <path d="M35.324,21.884C35.481,22.472 34.285,23.386 34.285,23.386C46.64,37.784 34.702,48.789 22.869,48.732C11.015,48.675 0.575,34.191 13.133,23.724C5.826,11.289 18.997,3.153 30.073,7.618C30.073,7.618 34.622,19.256 35.324,21.884ZM23.559,26.61C29.022,26.61 33.457,30.272 33.457,34.784C33.457,39.295 29.022,42.958 23.559,42.958C18.096,42.958 13.661,39.295 13.661,34.784C13.661,30.272 18.096,26.61 23.559,26.61ZM23.469,12.127C27.217,12.127 29.853,14.28 29.853,16.997C29.853,19.714 27.217,21.973 23.469,21.973C19.722,21.973 16.863,19.708 16.863,16.991C16.863,14.274 19.722,12.127 23.469,12.127Z" style="fill:white;"/>
</svg>
