<?xml version="1.0" encoding="UTF-8" standalone="no"?>
<!DOCTYPE svg PUBLIC "-//W3C//DTD SVG 1.1//EN" "http://www.w3.org/Graphics/SVG/1.1/DTD/svg11.dtd">
<svg width="100%" height="100%" viewBox="0 0 41 55" version="1.1" xmlns="http://www.w3.org/2000/svg" xmlns:xlink="http://www.w3.org/1999/xlink" xml:space="preserve" style="fill-rule:evenodd;clip-rule:evenodd;stroke-linecap:round;stroke-linejoin:round;stroke-miterlimit:1.5;">
    <path d="M35.324,21.884C35.481,22.472 34.285,23.386 34.285,23.386C46.64,37.784 34.702,48.789 22.869,48.732C11.015,48.675 0.575,34.191 13.133,23.724C5.826,11.289 18.997,3.153 30.073,7.618C30.073,7.618 34.622,19.256 35.324,21.884ZM23.559,26.61C29.022,26.61 33.457,30.272 33.457,34.784C33.457,39.295 29.022,42.958 23.559,42.958C18.096,42.958 13.661,39.295 13.661,34.784C13.661,30.272 18.096,26.61 23.559,26.61ZM23.469,12.127C27.217,12.127 29.853,14.28 29.853,16.997C29.853,19.714 27.217,21.973 23.469,21.973C19.722,21.973 16.863,19.708 16.863,16.991C16.863,14.274 19.722,12.127 23.469,12.127Z" style="fill:white;fill-opacity:0.75;"/>
    <g id="xmas" transform="matrix(0.984836,0.173486,-0.173486,0.984836,1.5893,-4.10643)">
        <g opacity="0.75">
            <path d="M30.281,6.072C26.582,13.656 12.953,20.208 12.953,20.208L9.599,14.942C9.599,14.942 9.147,13.895 9.642,13.437C9.138,11.954 2.911,12.401 2.911,12.401C2.911,12.401 13.247,1.719 30.281,6.072Z" style="fill:rgb(251,61,61);"/>
            <path d="M9.642,15.312L12.858,20.208C19.963,16.959 26.878,12.634 30.281,6.058L25.353,5.029C20.427,9.615 15.07,13.597 9.642,15.312Z" style="fill:white;stroke:white;stroke-width:0.6px;stroke-dasharray:0.6,0.6;"/>
            <g transform="matrix(1,0,0,1,-0.514245,-1.15136)">
                <circle cx="3.425" cy="13.225" r="1.658" style="fill:white;stroke:white;stroke-width:0.6px;stroke-dasharray:0.6,0.6;"/>
            </g>
        </g>
    </g>
</svg>
