<?xml version="1.0" encoding="UTF-8" standalone="no"?>
<!DOCTYPE svg PUBLIC "-//W3C//DTD SVG 1.1//EN" "http://www.w3.org/Graphics/SVG/1.1/DTD/svg11.dtd">
<svg width="100%" height="100%" viewBox="0 0 41 55" version="1.1" xmlns="http://www.w3.org/2000/svg" xmlns:xlink="http://www.w3.org/1999/xlink" xml:space="preserve" style="fill-rule:evenodd;clip-rule:evenodd;stroke-linejoin:round;stroke-miterlimit:1.41421;">
    <path d="M35.324,21.884C35.481,22.472 34.285,23.386 34.285,23.386C46.64,37.784 34.702,48.789 22.869,48.732C11.015,48.675 0.575,34.191 13.133,23.724C5.826,11.289 18.997,3.153 30.073,7.618C30.073,7.618 34.622,19.256 35.324,21.884ZM23.559,26.61C29.022,26.61 33.457,30.272 33.457,34.784C33.457,39.295 29.022,42.958 23.559,42.958C18.096,42.958 13.661,39.295 13.661,34.784C13.661,30.272 18.096,26.61 23.559,26.61ZM23.469,12.127C27.217,12.127 29.853,14.28 29.853,16.997C29.853,19.714 27.217,21.973 23.469,21.973C19.722,21.973 16.863,19.708 16.863,16.991C16.863,14.274 19.722,12.127 23.469,12.127Z" style="fill:white;fill-opacity:0.75;"/>
    <g id="halloween" transform="matrix(0.745653,0,0,0.745653,8.29354,6.15844)">
        <path d="M20.327,7.912L20.353,7.912C25.242,7.912 29.212,10.882 29.212,14.54C29.212,18.198 25.242,21.168 20.353,21.168L20.327,21.168C21.618,21.158 22.665,18.192 22.665,14.54C22.665,10.888 21.618,7.922 20.327,7.912ZM20.308,7.912C19.02,7.93 17.976,10.893 17.976,14.54C17.976,18.187 19.02,21.15 20.308,21.168C15.439,21.15 11.493,18.187 11.493,14.54C11.493,10.893 15.439,7.93 20.308,7.912Z" style="fill:rgb(166,255,0);fill-opacity:0.643047;"/>
        <g transform="matrix(1,0,0,1,0,1.34111)">
            <g transform="matrix(1,0,0,1.20347,-0.00716146,-5.72214)">
                <path d="M16.087,26.947C14.423,27.376 12.92,27.939 11.635,28.752L13.723,34.874L16.087,26.947Z" style="fill:white;fill-opacity:0.75;"/>
            </g>
            <g transform="matrix(-1,0,0,1.20347,40.8515,-5.72214)">
                <path d="M16.024,26.947C14.481,27.301 13.013,27.862 11.639,28.683L13.723,34.874L16.024,26.947Z" style="fill:white;fill-opacity:0.75;"/>
            </g>
        </g>
        <g transform="matrix(0.286314,0,0,1.04901,14.2233,-1.03752)">
            <ellipse cx="21.294" cy="14.85" rx="8.188" ry="6.318" style="fill:white;fill-opacity:0.75;"/>
        </g>
    </g>
</svg>
