<?xml version="1.0" encoding="utf-8"?>
<!-- Generator: Adobe Illustrator 21.0.0, SVG Export Plug-In . SVG Version: 6.00 Build 0)  -->
<svg version="1.1" id="Ebene_1" xmlns="http://www.w3.org/2000/svg" xmlns:xlink="http://www.w3.org/1999/xlink" x="0px" y="0px"
	 viewBox="0 0 502.5 391.1" style="enable-background:new 0 0 502.5 391.1;" xml:space="preserve">
<style type="text/css">
	.st0{fill:none;stroke:#FFFFFF;stroke-miterlimit:10;stroke-dasharray:1,2;}
	.st1{fill:none;stroke:#FFFFFF;stroke-miterlimit:10;}
</style>
<title>bg_action1</title>
<path class="st0" d="M418,1.6c-37.2,0-70,24.5-80.5,60.2c-13.9-14.8-30.1-27.3-47.9-37.1c-94.4-51.9-213-17.5-264.9,76.8
	s-17.5,213,76.8,264.9s212.9,17.5,264.9-76.9c21.1-38.2,28.7-82.4,21.6-125.5c43.3,16.6,91.9-5.1,108.5-48.4
	c16.6-43.3-5.1-91.9-48.4-108.5C438.5,3.5,428.3,1.6,418,1.6z"/>
<line class="st1" x1="418.2" y1="1.6" x2="418.2" y2="24"/>
<line class="st1" x1="418.2" y1="146.9" x2="418.2" y2="169.3"/>
<line class="st1" x1="502.1" y1="87" x2="479.7" y2="87"/>
<line class="st1" x1="356.7" y1="87" x2="334.3" y2="87"/>
</svg>
