<?xml version="1.0" encoding="utf-8"?>
<!-- Generator: Adobe Illustrator 21.0.0, SVG Export Plug-In . SVG Version: 6.00 Build 0)  -->
<svg version="1.1" id="Ebene_1" xmlns="http://www.w3.org/2000/svg" xmlns:xlink="http://www.w3.org/1999/xlink" x="0px" y="0px"
	 viewBox="0 0 436 476.2" style="enable-background:new 0 0 436 476.2;" xml:space="preserve">
<style type="text/css">
	.st0{fill:none;stroke:#FFFFFF;stroke-miterlimit:10;stroke-dasharray:1,2;}
	.st1{fill:none;stroke:#FFFFFF;stroke-miterlimit:10;}
</style>
<title>bg_action2</title>
<path class="st0" d="M120.4,466.6c33.7-15.9,53-52.1,47.3-88.9c18.9,7.4,38.9,11.8,59.3,13.1c107.6,6.7,200.3-75.1,207-182.7
	S358.9,7.9,251.3,1.1S51.1,76.2,44.3,183.8c-2.8,43.7,9.2,86.9,34,122.8c-46.3,3.5-81,43.9-77.5,90.2s43.9,81,90.2,77.6
	C101.2,473.7,111.2,471,120.4,466.6L120.4,466.6z"/>
<line class="st1" x1="84.4" y1="306.9" x2="84.4" y2="329.3"/>
<line class="st1" x1="84.4" y1="452.3" x2="84.4" y2="474.7"/>
<line class="st1" x1="168.3" y1="392.3" x2="145.9" y2="392.3"/>
<line class="st1" x1="22.9" y1="392.3" x2="0.5" y2="392.3"/>
</svg>
