<svg id="Layer_1" data-name="Layer 1" xmlns="http://www.w3.org/2000/svg" viewBox="0 0 62.44 83.24"><defs><style>.cls-1{fill:#fff;}</style></defs><title>partner_wien</title><path class="cls-1" d="M35.54,27.34c-.55,0-1.1,0-1.65,0h-.78a2.4,2.4,0,0,0-1.71,4.1,2.37,2.37,0,0,0,1.68.71h2.46l.61,0h.13l.26,0a9.19,9.19,0,0,1,1,.23l.55.19.19.08a8.78,8.78,0,0,1,1.17.67l.12.09.15.11.33.29a9.21,9.21,0,0,1,.8.83l.11.14c.11.15.21.31.31.47s.19.32.29.5l.09.18,0,.05.13.26a8.92,8.92,0,0,1,.3,1c0,.18.09.37.12.58l0,.19a8.5,8.5,0,0,1,0,1.24c0,.14,0,.29,0,.44a3.59,3.59,0,0,0-.07.37v.06l0,.14a9.36,9.36,0,0,1-.35,1.16l-.07.16c-.08.17-.17.34-.26.51a7.58,7.58,0,0,1-.5.8l-.18.21-.08.1c-.17.2-.36.39-.53.55s-.27.25-.43.39l-.14.11a9,9,0,0,1-1,.6l-.3.15-.21.08-.17.07a9,9,0,0,1-1.34.35l-.18,0-.59,0h-.34l-.37,0-.3,0a7.94,7.94,0,0,1-.8-.2l-.4-.14-.08,0a5.47,5.47,0,0,1-.65-.37l-.12-.1,0,0h0l-.12-.09a2.39,2.39,0,0,0-3.19,3.57l0,0h0l.13.11a9.63,9.63,0,0,0,5.9,2.11h.3a11.59,11.59,0,0,0,9.09-4.74,11.47,11.47,0,0,0,1.51-10.81A12,12,0,0,0,41.8,29.2l-.14-.09.11-.13.23-.3a7.72,7.72,0,0,0-4.8-11.74,11.21,11.21,0,0,0-2.35-.2H33.11a2.4,2.4,0,0,0-1.71,4.1,2.37,2.37,0,0,0,1.68.71h2.45l.42,0h0l.15,0,.37.1.17.08.18.07.31.19.15.12.15.11c.09.08.17.17.25.25l.11.14,0,.05.08.11a5.62,5.62,0,0,1,.28.5l0,0h0l0,.12a5.29,5.29,0,0,1,.15.56v.05s0,.08,0,.14a5.06,5.06,0,0,1,0,.6v.05l0,.15a3,3,0,0,1-.1.36l-.08.19-.07.16a3.45,3.45,0,0,1-.18.31l-.13.17,0,0-.08.1-.24.24-.13.11-.06.05-.11.08a5.53,5.53,0,0,1-.5.28l-.15.05a5.22,5.22,0,0,1-.53.14h0l-.37,0" transform="translate(-0.42 -0.7)"/><path class="cls-1" d="M25.57,45.43a2.36,2.36,0,0,0,.72-1.69V19.6a2.44,2.44,0,0,0-2.39-2.42H19a2.4,2.4,0,0,0-1.71,4.1A2.36,2.36,0,0,0,19,22h2.51V43.71a2.42,2.42,0,0,0,2.39,2.43h0A2.41,2.41,0,0,0,25.57,45.43Z" transform="translate(-0.42 -0.7)"/><path class="cls-1" d="M9.19,53.05a.48.48,0,0,1-.38.1,1,1,0,0,1-.4-.29.87.87,0,0,1-.27-.44A.58.58,0,0,1,8.27,52l2.67-3.75h0A2.69,2.69,0,0,1,11.2,48a.43.43,0,0,1,.34-.13.63.63,0,0,1,.38.21.46.46,0,0,1,.15.32.57.57,0,0,1-.13.33l-2.4,3.2h0l3.29-2.28a.58.58,0,0,1,.34-.13.61.61,0,0,1,.47.49.61.61,0,0,1-.14.33l-2.36,3.25h0l3.22-2.31a.54.54,0,0,1,.38-.12.58.58,0,0,1,.33.19.44.44,0,0,1,0,.7,2,2,0,0,1-.31.23L11,54.77a1.74,1.74,0,0,1-.28.15.39.39,0,0,1-.21,0,1,1,0,0,1-.44-.32,2,2,0,0,1-.22-.26.35.35,0,0,1-.07-.2A.42.42,0,0,1,9.88,54a1.83,1.83,0,0,1,.18-.27l1.82-2.47h0Z" transform="translate(-0.42 -0.7)"/><path class="cls-1" d="M16.09,52.73a.52.52,0,0,1,.36-.23.54.54,0,0,1,.6.44.52.52,0,0,1-.11.41l-2.81,3.86a.53.53,0,0,1-.35.22.5.5,0,0,1-.39-.09.52.52,0,0,1-.21-.34.53.53,0,0,1,.11-.41Z" transform="translate(-0.42 -0.7)"/><path class="cls-1" d="M18,54.22a.5.5,0,0,1,.77-.23l1.27.69a1.45,1.45,0,0,1,.47.38,1,1,0,0,1,.2.46,1.3,1.3,0,0,1,0,.51,2.29,2.29,0,0,1-.21.54,1.79,1.79,0,0,1-.54.66,1,1,0,0,1-.67.13.87.87,0,0,1,.26.61,1.87,1.87,0,0,1-.27.76l-.29.53a3.84,3.84,0,0,0-.19.43,4,4,0,0,1-.17.38.29.29,0,0,1-.23.15.62.62,0,0,1-.38-.09.74.74,0,0,1-.34-.34.53.53,0,0,1,0-.44l.65-1.3a.55.55,0,0,0-.26-.81l-.4-.22-1,1.78a.53.53,0,0,1-.32.27.53.53,0,0,1-.66-.36.54.54,0,0,1,.05-.42Zm0,2.11.36.2a.74.74,0,0,0,.56.09.84.84,0,0,0,.46-.45,1,1,0,0,0,.16-.62.64.64,0,0,0-.37-.41l-.4-.22Z" transform="translate(-0.42 -0.7)"/><path class="cls-1" d="M24.1,57a.5.5,0,0,1,.68-.42l1.38.33a1.15,1.15,0,0,1,.84.59,1.75,1.75,0,0,1,0,1.12,1.66,1.66,0,0,1-.33.69.81.81,0,0,1-.52.31,1,1,0,0,1,.45.59,1.73,1.73,0,0,1,0,.83,2.8,2.8,0,0,1-.23.64,1.68,1.68,0,0,1-.37.48,1.22,1.22,0,0,1-.53.27,1.48,1.48,0,0,1-.69,0l-1.32-.32a.5.5,0,0,1-.42-.68Zm0,4.43.61.15c.39.1.66-.16.81-.77a1.13,1.13,0,0,0,0-.63.53.53,0,0,0-.41-.33l-.6-.15Zm.6-2.49.46.11c.42.1.69-.1.81-.6a.85.85,0,0,0,0-.58.52.52,0,0,0-.36-.26l-.54-.13Z" transform="translate(-0.42 -0.7)"/><path class="cls-1" d="M29.46,62.2l1.62.1a.58.58,0,0,1,.41.16.51.51,0,0,1,0,.68.58.58,0,0,1-.42.1l-2.1-.13a.5.5,0,0,1-.53-.6L28.65,58a.5.5,0,0,1,.6-.53l2,.12a.57.57,0,0,1,.41.16.44.44,0,0,1,.11.35.45.45,0,0,1-.15.33.57.57,0,0,1-.42.1l-1.56-.09-.08,1.3,1.46.09a.58.58,0,0,1,.41.16.45.45,0,0,1,.11.35.47.47,0,0,1-.15.33.57.57,0,0,1-.42.11l-1.46-.09Z" transform="translate(-0.42 -0.7)"/><path class="cls-1" d="M36,62.6a.48.48,0,0,1-.13.37,1,1,0,0,1-.47.16.86.86,0,0,1-.51,0,.55.55,0,0,1-.25-.32l-1.56-4.34h0a2.77,2.77,0,0,1-.12-.39.42.42,0,0,1,.1-.35.62.62,0,0,1,.39-.19.46.46,0,0,1,.36.06.57.57,0,0,1,.2.3l1.26,3.8h0v-4a.61.61,0,0,1,.09-.35.61.61,0,0,1,.67-.11.59.59,0,0,1,.19.3l1.32,3.8h0l-.06-4a.55.55,0,0,1,.12-.39.57.57,0,0,1,.35-.16.44.44,0,0,1,.58.4,2,2,0,0,1,0,.38l-.1,4.5a1.72,1.72,0,0,1,0,.32.43.43,0,0,1-.09.19,1,1,0,0,1-.52.18,1.86,1.86,0,0,1-.34,0,.37.37,0,0,1-.21-.06.44.44,0,0,1-.14-.16,1.86,1.86,0,0,1-.12-.3l-1-2.9h0Z" transform="translate(-0.42 -0.7)"/><path class="cls-1" d="M42.36,60.36l1.51-.59a.59.59,0,0,1,.44,0,.45.45,0,0,1,.25.27.46.46,0,0,1,0,.37.59.59,0,0,1-.34.28l-2,.77a.5.5,0,0,1-.74-.32l-1.66-4.21a.5.5,0,0,1,.32-.73l1.91-.75a.58.58,0,0,1,.44,0,.5.5,0,0,1,.25.64.58.58,0,0,1-.34.27L41,56.85l.48,1.21,1.36-.53a.59.59,0,0,1,.44,0,.46.46,0,0,1,.25.27.45.45,0,0,1,0,.37.59.59,0,0,1-.34.27l-1.36.54Z" transform="translate(-0.42 -0.7)"/><path class="cls-1" d="M49.29,57.47a.48.48,0,0,1,.08.32.38.38,0,0,1-.2.26.37.37,0,0,1-.33.05.49.49,0,0,1-.26-.23l-.08-.13h0a1.12,1.12,0,0,1-.58,1.07,1.37,1.37,0,0,1-.74.23,1.27,1.27,0,0,1-.68-.23,2.92,2.92,0,0,1-.64-.6,8.7,8.7,0,0,1-.65-.94l-.3-.49a6.17,6.17,0,0,1-.55-1.1,2.17,2.17,0,0,1-.15-.84,1.22,1.22,0,0,1,.24-.67,2.24,2.24,0,0,1,.64-.55,2,2,0,0,1,.67-.27,1.45,1.45,0,0,1,.6,0,1.28,1.28,0,0,1,.48.22,1.38,1.38,0,0,1,.34.38.75.75,0,0,1,.14.46.48.48,0,0,1-.25.35.44.44,0,0,1-.4.07,1.12,1.12,0,0,1-.4-.37.58.58,0,0,0-.33-.21.59.59,0,0,0-.44.11.48.48,0,0,0-.25.49,1.54,1.54,0,0,0,.13.47,4.85,4.85,0,0,0,.37.69l.41.67a5.24,5.24,0,0,0,.9,1.2.55.55,0,0,0,.69.07.48.48,0,0,0,.24-.49,2.18,2.18,0,0,0-.33-.8l-.17-.27-.37.22a.38.38,0,0,1-.34.06.49.49,0,0,1-.26-.22.44.44,0,0,1-.08-.35.48.48,0,0,1,.23-.27l.75-.46a.53.53,0,0,1,.41-.1.55.55,0,0,1,.31.27Z" transform="translate(-0.42 -0.7)"/><path class="cls-1" d="M51.45,55l1.21-1.08a.58.58,0,0,1,.4-.18.47.47,0,0,1,.33.17.45.45,0,0,1,.13.34.58.58,0,0,1-.22.38L51.72,56a.5.5,0,0,1-.8,0l-3-3.38a.5.5,0,0,1,0-.8l1.53-1.37a.57.57,0,0,1,.39-.18.45.45,0,0,1,.33.17.46.46,0,0,1,.13.34.58.58,0,0,1-.23.37l-1.17,1,.87,1,1.09-1a.58.58,0,0,1,.4-.18.51.51,0,0,1,.46.51.58.58,0,0,1-.23.37l-1.09,1Z" transform="translate(-0.42 -0.7)"/><path class="cls-1" d="M51.11,49.39a.52.52,0,0,1-.22-.36A.59.59,0,0,1,51,48.6a.8.8,0,0,1,.35-.28,1,1,0,0,1,.52,0l3.22.9h0l-2.45-1.89a.52.52,0,0,1-.11-.75.52.52,0,0,1,.75-.09l3.75,2.89a.59.59,0,0,1,.25.38.51.51,0,0,1-.1.39,1,1,0,0,1-.39.33.88.88,0,0,1-.52,0l-3.25-.93h0l2.49,1.92a.53.53,0,0,1,.21.36.51.51,0,0,1-.11.39.53.53,0,0,1-.75.09Z" transform="translate(-0.42 -0.7)"/><path class="cls-1" d="M60.36,43.45a.49.49,0,0,1,.26.3,1,1,0,0,1-.09.49.86.86,0,0,1-.28.43.56.56,0,0,1-.4.06l-4.54-.79h0l-.39-.09a.43.43,0,0,1-.26-.26.63.63,0,0,1,0-.44.46.46,0,0,1,.23-.28.57.57,0,0,1,.36,0l3.92.78v0l-3.48-2a.6.6,0,0,1-.26-.25.47.47,0,0,1,0-.35.47.47,0,0,1,.22-.28.61.61,0,0,1,.36,0l3.95.73h0l-3.46-1.91a.55.55,0,0,1-.28-.29.6.6,0,0,1,0-.38.44.44,0,0,1,.64-.31,2.13,2.13,0,0,1,.34.18L61.11,41a1.88,1.88,0,0,1,.26.19.4.4,0,0,1,.12.17,1,1,0,0,1-.1.54,1.84,1.84,0,0,1-.14.31.37.37,0,0,1-.15.15.44.44,0,0,1-.21,0,1.78,1.78,0,0,1-.32,0l-3-.58v0Z" transform="translate(-0.42 -0.7)"/><path class="cls-1" d="M57.09,37.37a.53.53,0,0,1-.22-1,.52.52,0,0,1,.41-.08l4.7.87a.52.52,0,0,1,.36.22.53.53,0,0,1-.14.73.52.52,0,0,1-.41.08Z" transform="translate(-0.42 -0.7)"/><path class="cls-1" d="M61.83,34.2l.08-1.62a.58.58,0,0,1,.15-.41.45.45,0,0,1,.35-.12.46.46,0,0,1,.34.15.57.57,0,0,1,.11.42l-.11,2.11a.5.5,0,0,1-.6.53L57.63,35a.5.5,0,0,1-.54-.59l.11-2a.58.58,0,0,1,.15-.41.46.46,0,0,1,.35-.12A.47.47,0,0,1,58,32a.58.58,0,0,1,.11.42L58.06,34l1.3.07.07-1.46a.6.6,0,0,1,.15-.41.46.46,0,0,1,.35-.12.45.45,0,0,1,.33.15.57.57,0,0,1,.11.42l-.07,1.46Z" transform="translate(-0.42 -0.7)"/><path class="cls-1" d="M57.62,30.52a.52.52,0,0,1-.41-.1A.59.59,0,0,1,57,30a.77.77,0,0,1,0-.45.92.92,0,0,1,.38-.35l2.9-1.65v0L57.28,28a.52.52,0,0,1-.41-.1.54.54,0,0,1-.1-.74.52.52,0,0,1,.37-.2l4.69-.63a.59.59,0,0,1,.45.09.5.5,0,0,1,.2.35.9.9,0,0,1,0,.51.87.87,0,0,1-.39.35l-3,1.66v0l3.11-.42a.52.52,0,0,1,.41.1.5.5,0,0,1,.2.35.52.52,0,0,1-.1.39.53.53,0,0,1-.37.2Z" transform="translate(-0.42 -0.7)"/><path class="cls-1" d="M57.12,12.81a27.06,27.06,0,0,0,.18-3.18H54v3.18Z" transform="translate(-0.42 -0.7)"/><path class="cls-1" d="M52.71,9.63H49.43a26.13,26.13,0,0,0,.18,3.18h3.09V9.63Z" transform="translate(-0.42 -0.7)"/><path class="cls-1" d="M49.82,14.12c.61,3.21,1.84,4.88,2.89,5.37V14.12Z" transform="translate(-0.42 -0.7)"/><path class="cls-1" d="M54,19.49c1.05-.49,2.28-2.16,2.89-5.37H54v5.37Z" transform="translate(-0.42 -0.7)"/><path class="cls-1" d="M3.68,44.89a.5.5,0,0,1-.73-.32l-.51-1.32a1.15,1.15,0,0,1,0-1,1.74,1.74,0,0,1,.9-.67,1.64,1.64,0,0,1,.75-.12.78.78,0,0,1,.55.25A1,1,0,0,1,4.87,41a1.72,1.72,0,0,1,.69-.45,2.67,2.67,0,0,1,.65-.17,1.65,1.65,0,0,1,.61,0,1.2,1.2,0,0,1,.52.28,1.53,1.53,0,0,1,.38.58l.49,1.27a.5.5,0,0,1-.32.73Zm1.24-1.61-.17-.45c-.16-.4-.48-.51-1-.32a.85.85,0,0,0-.47.34.53.53,0,0,0,0,.45l.2.52Zm2.39-.93-.23-.59Q6.85,41.2,6,41.54a1.14,1.14,0,0,0-.52.35.52.52,0,0,0,0,.53l.22.57Z" transform="translate(-0.42 -0.7)"/><path class="cls-1" d="M1.8,39.77a.53.53,0,0,1-.42-.06A.54.54,0,0,1,1.21,39a.52.52,0,0,1,.35-.24l4.65-1.1a.53.53,0,0,1,.41.06.53.53,0,0,1,.17.73.52.52,0,0,1-.34.24Z" transform="translate(-0.42 -0.7)"/><path class="cls-1" d="M5.14,33.52a.57.57,0,0,1,.09-.43A.51.51,0,0,1,5.91,33a.59.59,0,0,1,.17.4l.2,2.06a.5.5,0,0,1-.51.62l-4.63.45a.53.53,0,0,1-.41-.11.54.54,0,0,1-.07-.74A.53.53,0,0,1,1,35.5l4.26-.41Z" transform="translate(-0.42 -0.7)"/><path class="cls-1" d="M.94,31.31a.5.5,0,0,1-.52-.61l.11-1.37a1.26,1.26,0,0,1,.68-1.12A3.77,3.77,0,0,1,3.12,28l.73.06a3.4,3.4,0,0,1,1.81.55,1.32,1.32,0,0,1,.51,1.22l-.11,1.32a.5.5,0,0,1-.61.52Zm4.33-.71,0-.49A.66.66,0,0,0,5,29.46a3.57,3.57,0,0,0-1.41-.31l-.45,0a3.84,3.84,0,0,0-1.35.05.62.62,0,0,0-.43.6l0,.52Z" transform="translate(-0.42 -0.7)"/><path class="cls-1" d="M1.49,25.66a.51.51,0,0,1-.34-.25.54.54,0,0,1,.2-.72.52.52,0,0,1,.42,0l3.49,1a1.1,1.1,0,0,0,.7,0,.59.59,0,0,0,.35-.41.57.57,0,0,0-.09-.52,1.13,1.13,0,0,0-.61-.35l-3.49-1a.52.52,0,0,1-.34-.25.54.54,0,0,1,.2-.72.53.53,0,0,1,.42,0l3.59,1a1.62,1.62,0,0,1,1,.73,1.73,1.73,0,0,1,.09,1.34,1.74,1.74,0,0,1-.76,1.12,1.61,1.61,0,0,1-1.27.11Z" transform="translate(-0.42 -0.7)"/><path class="cls-1" d="M3.21,20.14a.53.53,0,0,1-.29-.31A.61.61,0,0,1,3,19.38.79.79,0,0,1,3.27,19,.93.93,0,0,1,3.79,19l3.33.24h0L4.35,17.83a.52.52,0,0,1-.28-.31.51.51,0,0,1,0-.4.52.52,0,0,1,.3-.27.53.53,0,0,1,.42,0L9.06,19a.59.59,0,0,1,.32.33.49.49,0,0,1,0,.4.93.93,0,0,1-.31.4.88.88,0,0,1-.51.07l-3.37-.27h0L8,21.31a.53.53,0,0,1,.28.31.51.51,0,0,1,0,.4.5.5,0,0,1-.3.27.53.53,0,0,1-.42,0Z" transform="translate(-0.42 -0.7)"/><path class="cls-1" d="M12,15.16a.47.47,0,0,1,.2.27.39.39,0,0,1-.1.32.38.38,0,0,1-.29.17.52.52,0,0,1-.33-.12l-.12-.09h0a1.11,1.11,0,0,1-.14,1.21,1.35,1.35,0,0,1-.6.48,1.26,1.26,0,0,1-.72,0A2.86,2.86,0,0,1,9,17.14a8.63,8.63,0,0,1-1-.63l-.46-.34a6.2,6.2,0,0,1-.92-.81,2.17,2.17,0,0,1-.45-.73,1.19,1.19,0,0,1,0-.71,2.25,2.25,0,0,1,.39-.75,2,2,0,0,1,.52-.5,1.43,1.43,0,0,1,.56-.22,1.26,1.26,0,0,1,.52,0,1.37,1.37,0,0,1,.46.23.76.76,0,0,1,.3.38.48.48,0,0,1-.11.42.44.44,0,0,1-.34.21,1.13,1.13,0,0,1-.51-.2.56.56,0,0,0-.38-.08.58.58,0,0,0-.37.26.55.55,0,0,0-.11.26.53.53,0,0,0,.06.29,1.52,1.52,0,0,0,.3.39,5.16,5.16,0,0,0,.59.5l.63.47A5.35,5.35,0,0,0,10,16.4a.55.55,0,0,0,.67-.2.47.47,0,0,0,0-.55,2.1,2.1,0,0,0-.6-.62l-.26-.19-.26.35a.39.39,0,0,1-.29.18A.48.48,0,0,1,9,15.26a.44.44,0,0,1-.2-.3.47.47,0,0,1,.11-.34l.53-.71a.55.55,0,0,1,.34-.25.55.55,0,0,1,.39.14Z" transform="translate(-0.42 -0.7)"/><path class="cls-1" d="M12.05,10.84a.58.58,0,0,1,.2-.41.58.58,0,0,1,.43-.15.57.57,0,0,1,.41.2.56.56,0,0,1,.15.43.58.58,0,0,1-.2.41.57.57,0,0,1-.43.15.58.58,0,0,1-.41-.2A.57.57,0,0,1,12.05,10.84Z" transform="translate(-0.42 -0.7)"/><path class="cls-1" d="M7.36,47.14a.57.57,0,0,1,.2-.41A.58.58,0,0,1,8,46.57a.57.57,0,0,1,.41.2.56.56,0,0,1,.15.43.57.57,0,0,1-.2.41.56.56,0,0,1-.43.15.57.57,0,0,1-.41-.2A.58.58,0,0,1,7.36,47.14Z" transform="translate(-0.42 -0.7)"/><path class="cls-1" d="M15.39,5.88a.53.53,0,0,1-.08-.41.52.52,0,0,1,.24-.33.51.51,0,0,1,.39-.07.52.52,0,0,1,.34.25l2.13,3.34a1.26,1.26,0,0,1-.49,2,1.78,1.78,0,0,1-.62.26,1,1,0,0,1-.53,0,1.25,1.25,0,0,1-.44-.27,2.18,2.18,0,0,1-.37-.46.74.74,0,0,1-.14-.5A.48.48,0,0,1,16,9.3a.46.46,0,0,1,.45-.07,1,1,0,0,1,.4.41c.2.31.4.41.61.28a.34.34,0,0,0,.18-.27.8.8,0,0,0-.16-.43Z" transform="translate(-0.42 -0.7)"/><path class="cls-1" d="M18.3,4.23a.53.53,0,1,1,1-.41l1.39,3.34a1.08,1.08,0,0,0,.43.56A.62.62,0,0,0,22,7.34a1.1,1.1,0,0,0-.1-.69L20.48,3.31a.51.51,0,0,1,.28-.7.51.51,0,0,1,.4,0,.53.53,0,0,1,.29.3l1.43,3.43a1.61,1.61,0,0,1,.06,1.27,1.72,1.72,0,0,1-1,.89,1.73,1.73,0,0,1-1.34.09,1.59,1.59,0,0,1-.87-.94Z" transform="translate(-0.42 -0.7)"/><path class="cls-1" d="M27.92,6.29a.48.48,0,0,1,0,.33.39.39,0,0,1-.28.18.37.37,0,0,1-.33-.06.5.5,0,0,1-.18-.3l0-.15h0a1.12,1.12,0,0,1-.9.82,1.36,1.36,0,0,1-.77,0,1.27,1.27,0,0,1-.57-.43,2.88,2.88,0,0,1-.41-.77,8.56,8.56,0,0,1-.31-1.1L24,4.23A5.91,5.91,0,0,1,23.83,3,2.17,2.17,0,0,1,24,2.16a1.22,1.22,0,0,1,.44-.55,2.21,2.21,0,0,1,.78-.31,2,2,0,0,1,.72,0,1.41,1.41,0,0,1,.56.2,1.24,1.24,0,0,1,.38.37,1.37,1.37,0,0,1,.2.47.77.77,0,0,1,0,.48.47.47,0,0,1-.36.25.44.44,0,0,1-.4-.07A1.1,1.1,0,0,1,26,2.48a.58.58,0,0,0-.24-.31.59.59,0,0,0-.45,0,.56.56,0,0,0-.25.12.55.55,0,0,0-.15.26,1.54,1.54,0,0,0,0,.49,5.8,5.8,0,0,0,.12.77l.17.77A5.35,5.35,0,0,0,25.64,6a.55.55,0,0,0,.63.29.48.48,0,0,0,.39-.39A2.17,2.17,0,0,0,26.61,5l-.07-.31-.42.09a.39.39,0,0,1-.34-.06.48.48,0,0,1-.17-.29.45.45,0,0,1,0-.36A.48.48,0,0,1,26,3.89l.86-.19a.55.55,0,0,1,.42,0,.55.55,0,0,1,.2.36Z" transform="translate(-0.42 -0.7)"/><path class="cls-1" d="M30.36,5.47,32,5.41a.57.57,0,0,1,.42.11.45.45,0,0,1,.15.34.46.46,0,0,1-.12.35.58.58,0,0,1-.41.15l-2.11.08a.5.5,0,0,1-.59-.54l-.18-4.53a.5.5,0,0,1,.54-.59L31.74.7a.57.57,0,0,1,.42.11.45.45,0,0,1,.15.34.45.45,0,0,1-.12.35.58.58,0,0,1-.41.15l-1.56.06,0,1.3L31.73,3a.58.58,0,0,1,.42.11.46.46,0,0,1,.15.34.45.45,0,0,1-.12.35.57.57,0,0,1-.41.15L30.3,4Z" transform="translate(-0.42 -0.7)"/><path class="cls-1" d="M34.58,1.22a.52.52,0,0,1,.21-.37.59.59,0,0,1,.44-.08.79.79,0,0,1,.42.17.91.91,0,0,1,.23.47l.78,3.25h0l.45-3.06a.52.52,0,0,1,.6-.46.52.52,0,0,1,.44.61l-.69,4.68a.59.59,0,0,1-.21.41.5.5,0,0,1-.39.1.91.91,0,0,1-.47-.18.87.87,0,0,1-.23-.47L35.39,3h0l-.46,3.1a.53.53,0,0,1-.21.36.51.51,0,0,1-.39.1A.5.5,0,0,1,34,6.36a.52.52,0,0,1-.1-.41Z" transform="translate(-0.42 -0.7)"/><path class="cls-1" d="M40.46,2.46a.5.5,0,0,1,.72-.35l1.3.46a1.26,1.26,0,0,1,.91.94,3.75,3.75,0,0,1-.29,1.9l-.24.69a3.38,3.38,0,0,1-1,1.61,1.32,1.32,0,0,1-1.3.18l-1.25-.44A.5.5,0,0,1,39,6.73ZM40,6.83l.46.16a.65.65,0,0,0,.72-.15,3.58,3.58,0,0,0,.66-1.29L42,5.12a3.87,3.87,0,0,0,.29-1.32.62.62,0,0,0-.47-.57l-.49-.17Z" transform="translate(-0.42 -0.7)"/><path class="cls-1" d="M19,77.74c0-.61.37-.67,1.16-.67a3.94,3.94,0,0,1,1.47.25,3.18,3.18,0,0,1,1.58,2.93,2.84,2.84,0,0,1-2.71,3.08c-.42,0-1.5,0-1.5-1.05Zm-.86,4.86a.6.6,0,0,1-.24.56,1.73,1.73,0,0,1-.73.17s-.09.1-.09.16,0,.15.05.15c.48,0,1,0,1.43,0s1,0,1.86,0c1.82,0,3.8-1.07,3.8-3.44a3.35,3.35,0,0,0-2.52-3.27,5.82,5.82,0,0,0-1.49-.17,20.17,20.17,0,0,0-3,.24c-.16,0-.16.07-.16.12s0,.19,0,.19.49,0,.6,0c.35,0,.43.37.43.74Z" transform="translate(-0.42 -0.7)"/><path class="cls-1" d="M13.79,78.6a2.11,2.11,0,0,1,2.15,2.22,2.17,2.17,0,0,1-2.11,2.4,2.32,2.32,0,0,1,0-4.62Zm2.64-.37H15.9v.93h0a2.47,2.47,0,0,0-2.07-1,2.57,2.57,0,0,0-2.63,2.77,2.65,2.65,0,0,0,2.65,2.84,2.41,2.41,0,0,0,2-1.08h0v1h.52Z" transform="translate(-0.42 -0.7)"/><path class="cls-1" d="M10.39,79.2H8.48V82c0,.5.23.67.73.67h1.18v.93H9.09a1.53,1.53,0,0,1-1.58-1.72V76.93h1v1.33h1.91Z" transform="translate(-0.42 -0.7)"/><path class="cls-1" d="M1.06,81.46c.16,1.17,1,1.7,2.36,1.7,2.13,0,2.26-1.14,2.26-1.48,0-1.16-1-1.21-2-1.29-.33,0-2.82-.1-2.82-2.14a2.49,2.49,0,0,1,2.72-2.2,3.46,3.46,0,0,1,1.61.39,1.46,1.46,0,0,0,.38.18c.14,0,.25-.21.29-.53l.52.09a4.7,4.7,0,0,0-.25,1.3l.09.95-.65,0a2.82,2.82,0,0,0-.27-1.17c-.23-.4-1.09-.58-1.7-.58-1,0-2,.58-2,1.56s1.1,1.36,2,1.44c1.22.1,2.78.26,2.78,1.93,0,1.45-1.47,2.17-2.76,2.17a4.16,4.16,0,0,1-1.79-.41,1.43,1.43,0,0,0-.38-.17c-.14,0-.25.18-.29.61l-.62-.07a6.53,6.53,0,0,0,.1-1,5.2,5.2,0,0,0-.2-1.26Z" transform="translate(-0.42 -0.7)"/><path class="cls-1" d="M24.63,78.22c1-.12,1.28-.44,1.37-1.57h1v1.57h1.78v.64H27v3.53c0,.48.18.69.58.69s.58-.21.58-.69v-.57H29v.24a1.52,1.52,0,0,1-1.7,1.72c-1.12,0-1.74-.37-1.74-1.74V78.86h-1Z" transform="translate(-0.42 -0.7)"/><path class="cls-1" d="M37.2,76.15h1.32l1.34,5.69h0l1.5-5.69h1.33l1.46,5.69h0l1.39-5.69h1.32l-2.05,7.44H43.54L42,77.9h0L40.5,83.59H39.16Z" transform="translate(-0.42 -0.7)"/><path class="cls-1" d="M49.86,82.39c-.84.88-1.43,1.35-1.89,1.35-.3,0-.48-.18-.48-.53a2.91,2.91,0,0,1,.07-.54l.65-3.17c0-.15.05-.33-.06-.33s-.33.19-.73.6l-.21-.27c1.06-1,1.55-1.38,1.9-1.38a.35.35,0,0,1,.37.4,2.34,2.34,0,0,1-.05.46l-.72,3.52a1.48,1.48,0,0,0,0,.23c0,.09.05.16.12.16s.51-.36.86-.73Zm.21-6.57c0,.62-.36,1.17-.77,1.17a.54.54,0,0,1-.52-.61c0-.6.4-1.16.81-1.16S50.08,75.46,50.08,75.82Z" transform="translate(-0.42 -0.7)"/><path class="cls-1" d="M58.63,78.84a3.07,3.07,0,0,1,1.84-.75,1.37,1.37,0,0,1,1.42,1.53v3h.93v.94h-2V80.06c0-.69-.19-1-.63-1a2.77,2.77,0,0,0-1.56.69v2.9h.93v.94H56.63v-.94h.93V79.13h-1v-.94h2Z" transform="translate(-0.42 -0.7)"/><path class="cls-1" d="M52,80.17a3.37,3.37,0,0,1,.13-.88,1.35,1.35,0,0,1,1.19-.84,1.11,1.11,0,0,1,1.23,1.27v.45Zm3.45,1.77a2,2,0,0,1-1.84,1.55c-1.45,0-1.63-1.07-1.63-2.39v-.54h3.77a2.29,2.29,0,0,0-2.4-2.37,2.8,2.8,0,0,0-2.63,3,2.65,2.65,0,0,0,2.66,2.57,2.2,2.2,0,0,0,2.35-1.83Z" transform="translate(-0.42 -0.7)"/><path class="cls-1" d="M35.72,79.36a18.25,18.25,0,0,0,.12-2.19H33.6v2.19Z" transform="translate(-0.42 -0.7)"/><path class="cls-1" d="M30.71,80.26c.42,2.2,1.26,3.35,2,3.69V80.26Z" transform="translate(-0.42 -0.7)"/><path class="cls-1" d="M32.7,77.17H30.45a18,18,0,0,0,.12,2.19H32.7Z" transform="translate(-0.42 -0.7)"/><path class="cls-1" d="M33.6,83.94c.72-.34,1.56-1.48,2-3.69h-2Z" transform="translate(-0.42 -0.7)"/></svg>