<svg id="Ebene_1" data-name="Ebene 1" xmlns="http://www.w3.org/2000/svg" viewBox="0 0 63.38 84.22"><defs><style>.cls-1,.cls-2{fill:#fff;}.cls-2{fill-rule:evenodd;}</style></defs><title>partner_rtr</title><path class="cls-1" d="M2.87,7.24H9.43v-3a2,2,0,1,1,1,0v3H17v-3a2,2,0,1,1,1,0v3h6.56v-3a2,2,0,1,1,1,0v3h6.56v-3a2,2,0,1,1,1,0v3H41.7v7.71a2,2,0,0,1,0,3.8V22h2.6V58.67H41.7V62a2,2,0,1,1-1,0V58.67H34.09V62a2,2,0,1,1-1,0V58.67H26.48V62a2,2,0,1,1-1,0V58.67H18.87V62a2,2,0,1,1-1,0V58.67H11.26V62a2,2,0,1,1-1,0V58.67H7.58V56.13H4.24a2,2,0,1,1,0-1H7.58V48.52H4.24a2,2,0,1,1,0-1H7.58V40.91H4.24a2,2,0,1,1,0-1H7.58V33.3H4.24a2,2,0,1,1,0-1H7.58V25.69H4.24a2,2,0,1,1,0-1H7.58V22h2.62V18.74a2,2,0,1,1,1,0V22h6.56V18.74a2,2,0,1,1,1,0V22h6.56V18.74a2,2,0,1,1,1,0V22H33V18.74a2,2,0,1,1,1,0V22h6.56V18.74a2,2,0,0,1,0-3.8V8.29H1.82v-4a2,2,0,1,1,1,0v3Z" transform="translate(-0.38 -0.42)"/><polygon class="cls-1" points="61.91 72.27 0 72.27 0 71.22 61.91 71.22 61.91 72.27 61.91 72.27"/><path class="cls-1" d="M31.61,2.38a1.18,1.18,0,1,1,1.18,1.18,1.18,1.18,0,0,1-1.18-1.18Z" transform="translate(-0.38 -0.42)"/><path class="cls-1" d="M1.16,2.38A1.18,1.18,0,1,1,2.34,3.57,1.18,1.18,0,0,1,1.16,2.38Z" transform="translate(-0.38 -0.42)"/><path class="cls-1" d="M8.77,2.38A1.18,1.18,0,1,1,10,3.57,1.18,1.18,0,0,1,8.77,2.38Z" transform="translate(-0.38 -0.42)"/><path class="cls-1" d="M16.39,2.38a1.18,1.18,0,1,1,1.18,1.18,1.18,1.18,0,0,1-1.18-1.18Z" transform="translate(-0.38 -0.42)"/><path class="cls-1" d="M24,2.38a1.18,1.18,0,1,1,1.18,1.18A1.18,1.18,0,0,1,24,2.38Z" transform="translate(-0.38 -0.42)"/><path class="cls-1" d="M40,16.84A1.18,1.18,0,1,1,41.18,18,1.18,1.18,0,0,1,40,16.84Z" transform="translate(-0.38 -0.42)"/><path class="cls-1" d="M9.55,16.84A1.18,1.18,0,1,1,10.73,18a1.18,1.18,0,0,1-1.18-1.18Z" transform="translate(-0.38 -0.42)"/><path class="cls-1" d="M17.16,16.84A1.18,1.18,0,1,1,18.34,18a1.18,1.18,0,0,1-1.18-1.18Z" transform="translate(-0.38 -0.42)"/><path class="cls-1" d="M24.77,16.84A1.18,1.18,0,1,1,26,18a1.18,1.18,0,0,1-1.18-1.18Z" transform="translate(-0.38 -0.42)"/><path class="cls-1" d="M32.38,16.84A1.18,1.18,0,1,1,33.57,18a1.18,1.18,0,0,1-1.18-1.18Z" transform="translate(-0.38 -0.42)"/><path class="cls-1" d="M1.16,25.16a1.18,1.18,0,1,1,1.18,1.18,1.18,1.18,0,0,1-1.18-1.18Z" transform="translate(-0.38 -0.42)"/><path class="cls-1" d="M1.16,55.61a1.18,1.18,0,1,1,1.18,1.18,1.18,1.18,0,0,1-1.18-1.18Z" transform="translate(-0.38 -0.42)"/><path class="cls-1" d="M1.16,48a1.18,1.18,0,1,1,1.18,1.18A1.18,1.18,0,0,1,1.16,48Z" transform="translate(-0.38 -0.42)"/><path class="cls-1" d="M1.16,40.38a1.18,1.18,0,1,1,1.18,1.18,1.18,1.18,0,0,1-1.18-1.18Z" transform="translate(-0.38 -0.42)"/><path class="cls-1" d="M1.16,32.77A1.18,1.18,0,1,1,2.34,34a1.18,1.18,0,0,1-1.18-1.18Z" transform="translate(-0.38 -0.42)"/><polygon class="cls-1" points="8.26 22.59 42.88 22.59 42.88 57.21 8.26 57.21 8.26 22.59 8.26 22.59"/><path class="cls-1" d="M9.55,63.9a1.18,1.18,0,1,1,1.18,1.18A1.18,1.18,0,0,1,9.55,63.9Z" transform="translate(-0.38 -0.42)"/><path class="cls-1" d="M40,63.9a1.18,1.18,0,1,1,1.18,1.18A1.18,1.18,0,0,1,40,63.9Z" transform="translate(-0.38 -0.42)"/><path class="cls-1" d="M32.38,63.9a1.18,1.18,0,1,1,1.18,1.18,1.18,1.18,0,0,1-1.18-1.18Z" transform="translate(-0.38 -0.42)"/><path class="cls-1" d="M24.77,63.9A1.18,1.18,0,1,1,26,65.08a1.18,1.18,0,0,1-1.18-1.18Z" transform="translate(-0.38 -0.42)"/><path class="cls-1" d="M17.16,63.9a1.18,1.18,0,1,1,1.18,1.18,1.18,1.18,0,0,1-1.18-1.18Z" transform="translate(-0.38 -0.42)"/><path class="cls-2" d="M43.63,77.42h.8c1.07,0,2,.08,2,1.37,0,1.1-1.05,1.45-2,1.45h-.83V77.42Zm-.78,7.22h.78V80.91h.64c.75,0,1.09,0,1.54,1.05L47,84.63h.86l-1.35-3.05c-.25-.53-.38-.87-1-1v0a1.86,1.86,0,0,0,1.75-1.82c0-1.45-.92-2-2.32-2h-2v7.9Z" transform="translate(-0.38 -0.42)"/><polygon class="cls-1" points="51.19 84.22 51.97 84.22 51.97 77 54.3 77 54.3 76.32 48.86 76.32 48.86 77 51.19 77 51.19 84.22 51.19 84.22"/><path class="cls-2" d="M58.14,77.42h.8c1.07,0,2,.08,2,1.37,0,1.1-1.05,1.45-2,1.45h-.83V77.42Zm-.78,7.22h.78V80.91h.64c.75,0,1.09,0,1.54,1.05l1.14,2.67h.86L61,81.58c-.25-.53-.38-.87-1-1v0a1.86,1.86,0,0,0,1.75-1.82c0-1.45-.92-2-2.32-2h-2v7.9Z" transform="translate(-0.38 -0.42)"/><path class="cls-2" d="M58.23,65.13v-.46c0-.61,0-1.14.78-1.14s.83.6.83,1.12v.47Zm4.12.45v-.45H60.23v-.37c0-.43,0-.62.6-.88l1.52-.65v-.49l-1.74.77c-.3.14-.5.22-.54.58h0a1.06,1.06,0,0,0-1-1c-.83,0-1.17.52-1.17,1.32v1.16Z" transform="translate(-0.38 -0.42)"/><path class="cls-2" d="M61.84,59.22a2.12,2.12,0,0,1,.25.92,1.11,1.11,0,0,1-1.26,1.09V59h-.21c-.88,0-1.63.38-1.63,1.31s.72,1.39,1.72,1.39,1.72-.41,1.72-1.5a2.7,2.7,0,0,0-.18-1Zm-1.36,2a1.08,1.08,0,0,1-1.14-1c0-.61.57-.84,1.14-.84v1.81Z" transform="translate(-0.38 -0.42)"/><path class="cls-2" d="M60.71,57.32c-.64,0-1.38-.2-1.38-1s.58-1,1.38-1c.6,0,1.3.26,1.3,1s-.65.95-1.3.95ZM59.06,55v.41h.37a1.09,1.09,0,0,0-.45,1c0,1,.72,1.36,1.72,1.36.73,0,1.65-.34,1.65-1.39a1,1,0,0,0-.65-1h0c.93,0,1.69.09,1.69,1.14a2.24,2.24,0,0,1-.23,1l.41,0a3.42,3.42,0,0,0,.17-1c0-1.13-.75-1.54-1.67-1.54Z" transform="translate(-0.38 -0.42)"/><path class="cls-1" d="M59.06,50.79v.41h1.82c.55,0,1.2.23,1.2,1,0,.56-.4.78-1,.78h-2v.41h2.11c.72,0,1.27-.31,1.27-1.12a1,1,0,0,0-.67-1.07h.59v-.39c-.26,0-.52,0-.78,0Z" transform="translate(-0.38 -0.42)"/><polygon class="cls-1" points="61.98 48.74 61.98 48.33 57.13 48.33 57.13 48.74 61.98 48.74 61.98 48.74"/><path class="cls-2" d="M62.35,47.1v-.41H59.06v.41Zm-4.72-.41v.41h.54v-.41Z" transform="translate(-0.38 -0.42)"/><path class="cls-2" d="M61.84,42.84a2.12,2.12,0,0,1,.25.92,1.11,1.11,0,0,1-1.26,1.09V42.59h-.21c-.88,0-1.63.38-1.63,1.31s.72,1.39,1.72,1.39,1.72-.41,1.72-1.5a2.7,2.7,0,0,0-.18-1Zm-1.36,2a1.08,1.08,0,0,1-1.14-1c0-.61.57-.84,1.14-.84v1.81Z" transform="translate(-0.38 -0.42)"/><path class="cls-1" d="M62.35,41.2v-.41H60.73c-.59,0-1.32-.17-1.32-.82a1.07,1.07,0,0,1,0-.3H59A1.21,1.21,0,0,0,59,40a1,1,0,0,0,.71.85h-.63v.41a5.93,5.93,0,0,1,.74,0Z" transform="translate(-0.38 -0.42)"/><path class="cls-1" d="M59.06,35.86v.41h1.82c.55,0,1.2.23,1.2,1,0,.56-.4.78-1,.78h-2v.41h2.11c.72,0,1.27-.31,1.27-1.12a1,1,0,0,0-.67-1.07h.59v-.39c-.26,0-.52,0-.78,0Z" transform="translate(-0.38 -0.42)"/><path class="cls-1" d="M62.35,34.22v-.41H60.53c-.55,0-1.2-.23-1.2-1,0-.56.4-.78,1-.78h2v-.41H60.25c-.72,0-1.27.31-1.27,1.12a1,1,0,0,0,.67,1.07h-.59v.39c.26,0,.52,0,.78,0Z" transform="translate(-0.38 -0.42)"/><path class="cls-2" d="M60.71,29.76c-.64,0-1.38-.2-1.38-1s.58-1,1.38-1c.6,0,1.3.26,1.3,1s-.65.95-1.3.95ZM59.06,27.4v.41h.37a1.09,1.09,0,0,0-.45,1c0,1,.72,1.36,1.72,1.36.73,0,1.65-.34,1.65-1.39a1,1,0,0,0-.65-1h0c.93,0,1.69.09,1.69,1.14a2.23,2.23,0,0,1-.23,1l.41,0a3.42,3.42,0,0,0,.17-1c0-1.13-.75-1.54-1.67-1.54Z" transform="translate(-0.38 -0.42)"/><path class="cls-1" d="M62.28,26.09a2.48,2.48,0,0,0,.15-.92c0-.5-.24-1.15-.94-1.15-1.08,0-1,1.62-1.61,1.62-.42,0-.55-.29-.55-.71a1.92,1.92,0,0,1,.16-.73l-.36,0A2.6,2.6,0,0,0,59,25c0,.54.25,1.07.9,1.07,1,0,.83-1.58,1.61-1.58.37,0,.59.34.59.73a1.94,1.94,0,0,1-.21.86l.4,0Z" transform="translate(-0.38 -0.42)"/><polygon class="cls-1" points="60.46 22.5 60.46 20.87 60.02 20.87 60.02 22.5 60.46 22.5 60.46 22.5"/><path class="cls-1" d="M61.88,16.76a2.29,2.29,0,0,1,.16,1,1.75,1.75,0,0,1-1.94,1.83,1.77,1.77,0,0,1-1.94-1.83,2.37,2.37,0,0,1,.24-1.16L58,16.51a3.18,3.18,0,0,0-.21,1.21A2.18,2.18,0,0,0,60.1,20a2.15,2.15,0,0,0,2.33-2.27,3.38,3.38,0,0,0-.28-1.4H59.91v1.49h.39v-1Z" transform="translate(-0.38 -0.42)"/><path class="cls-1" d="M62.35,10.23H60.09a1,1,0,0,0-1.1,1,1.11,1.11,0,0,0,.7,1.05h0a.83.83,0,0,0-.7.87,1,1,0,0,0,.64,1h-.56v.39c.26,0,.52,0,.78,0h2.52v-.41H60.53c-.82,0-1.2-.44-1.2-.88s.37-.7.83-.7h2.19v-.41H60.53c-.82,0-1.2-.44-1.2-.88s.37-.7.83-.7h2.19v-.41Z" transform="translate(-0.38 -0.42)"/><path class="cls-2" d="M62.35,8.65V8.25h-.52a1.06,1.06,0,0,0,.6-1c0-.9-.75-1.36-1.72-1.36S59,6.24,59,7.21a1.11,1.11,0,0,0,.63,1H57.51v.41ZM60.71,6.3c.64,0,1.38.2,1.38,1s-.77,1-1.38,1-1.38-.23-1.38-1,.74-1,1.38-1Z" transform="translate(-0.38 -0.42)"/><polygon class="cls-1" points="61.98 3.93 61.98 3.48 59.85 3.48 59.85 1.21 61.98 1.21 61.98 0.76 57.47 0.76 57.47 1.21 59.47 1.21 59.47 3.48 57.47 3.48 57.47 3.93 61.98 3.93 61.98 3.93"/><path class="cls-2" d="M51,65.13v-.46c0-.61,0-1.14.78-1.14s.83.6.83,1.12v.47Zm4.12.45v-.45H53v-.37c0-.43,0-.62.6-.88l1.52-.65v-.49l-1.74.77c-.3.14-.5.22-.54.58h0a1.06,1.06,0,0,0-1-1c-.83,0-1.17.52-1.17,1.32v1.16Z" transform="translate(-0.38 -0.42)"/><path class="cls-1" d="M51.81,59v.41h1.82c.55,0,1.2.23,1.2,1,0,.56-.4.78-1,.78h-2v.41h2.11c.72,0,1.27-.31,1.27-1.12a1,1,0,0,0-.67-1.07h.59V59c-.26,0-.52,0-.78,0Z" transform="translate(-0.38 -0.42)"/><path class="cls-1" d="M55.1,57.52v-.41H53.28c-.55,0-1.2-.23-1.2-1,0-.56.4-.78,1-.78h2v-.41H53c-.72,0-1.27.31-1.27,1.12a1,1,0,0,0,.67,1.07h-.59v.39c.26,0,.52,0,.78,0Z" transform="translate(-0.38 -0.42)"/><path class="cls-2" d="M50.26,50.85v.41h2.11a1.11,1.11,0,0,0-.63,1c0,1,.72,1.36,1.72,1.36s1.72-.45,1.72-1.36a1.06,1.06,0,0,0-.6-1h.52v-.41Zm3.2,2.36c-.64,0-1.38-.2-1.38-1s.78-1,1.38-1,1.38.25,1.38,1-.74,1-1.38,1Z" transform="translate(-0.38 -0.42)"/><path class="cls-1" d="M55.1,49.12v-.41H52.16V48h-.35v.74h-.28c-.39,0-1,.06-1-.5a.72.72,0,0,1,.07-.32l-.36,0a.94.94,0,0,0-.06.38c0,.85.7.87,1.39.87h.24v.67h.35v-.67Z" transform="translate(-0.38 -0.42)"/><path class="cls-1" d="M51.81,44.21v.41h1.82c.55,0,1.2.23,1.2,1,0,.56-.4.78-1,.78h-2v.41h2.11c.72,0,1.27-.31,1.27-1.12a1,1,0,0,0-.67-1.07h.59v-.39c-.26,0-.52,0-.78,0Z" transform="translate(-0.38 -0.42)"/><path class="cls-1" d="M55.1,42.72v-.41H53.28c-.55,0-1.2-.23-1.2-1,0-.56.4-.78,1-.78h2v-.41H53c-.72,0-1.27.31-1.27,1.12a1,1,0,0,0,.67,1.07h-.59v.39c.26,0,.52,0,.78,0Z" transform="translate(-0.38 -0.42)"/><polygon class="cls-2" points="54.73 38.25 54.73 37.84 53.04 37.84 54.73 36.22 54.73 35.65 52.89 37.46 51.43 35.85 51.43 36.37 52.78 37.84 49.88 37.84 49.88 38.25 54.73 38.25 54.73 38.25"/><path class="cls-2" d="M52.67,31.15c-.27-.54-.52-1.09-1.23-1.09a1,1,0,0,0-.93,1.06,1.09,1.09,0,0,0,1,1.21,1.76,1.76,0,0,0,1.11-.59,1.4,1.4,0,0,0,1.31,1.07c.87,0,1.26-.72,1.26-1.48A1.76,1.76,0,0,0,54.59,30l.5-.48v-.57l-.83.77a2.76,2.76,0,0,0-1.63-.5v.39A2.35,2.35,0,0,1,54,30l-1.32,1.19Zm1.63-.94a1.5,1.5,0,0,1,.52,1.11,1,1,0,0,1-.93,1,1.21,1.21,0,0,1-1-.85l1.45-1.31Zm-2.78,1.68a.67.67,0,0,1-.66-.74.59.59,0,0,1,.65-.64c.53,0,.74.48.92.87a1.48,1.48,0,0,1-.92.51Z" transform="translate(-0.38 -0.42)"/><polygon class="cls-1" points="54.73 24.21 54.73 23.77 50.61 23.77 50.61 22.44 50.22 22.44 50.22 25.54 50.61 25.54 50.61 24.21 54.73 24.21 54.73 24.21"/><path class="cls-2" d="M54.59,20.32a2.12,2.12,0,0,1,.25.92,1.11,1.11,0,0,1-1.26,1.09V20.08h-.21c-.89,0-1.63.38-1.63,1.31s.72,1.39,1.72,1.39,1.72-.41,1.72-1.5a2.7,2.7,0,0,0-.18-1Zm-1.36,2a1.08,1.08,0,0,1-1.14-1c0-.61.57-.84,1.14-.84v1.81Z" transform="translate(-0.38 -0.42)"/><polygon class="cls-1" points="54.73 18.42 54.73 18.01 49.88 18.01 49.88 18.42 54.73 18.42 54.73 18.42"/><path class="cls-2" d="M54.59,14.72a2.12,2.12,0,0,1,.25.92,1.11,1.11,0,0,1-1.26,1.09V14.48h-.21c-.89,0-1.63.38-1.63,1.31s.72,1.39,1.72,1.39,1.72-.41,1.72-1.5a2.7,2.7,0,0,0-.18-1Zm-1.36,2a1.08,1.08,0,0,1-1.14-1c0-.61.57-.84,1.14-.84v1.81Z" transform="translate(-0.38 -0.42)"/><polygon class="cls-2" points="54.73 12.82 54.73 12.41 53.04 12.41 54.73 10.78 54.73 10.22 52.89 12.02 51.43 10.41 51.43 10.94 52.78 12.41 49.88 12.41 49.88 12.82 54.73 12.82 54.73 12.82"/><path class="cls-2" d="M53.46,9.78a1.55,1.55,0,1,0-1.72-1.54,1.54,1.54,0,0,0,1.72,1.54Zm0-.45c-.76,0-1.38-.38-1.38-1.09s.61-1.09,1.38-1.09,1.38.38,1.38,1.09-.61,1.09-1.38,1.09Z" transform="translate(-0.38 -0.42)"/><path class="cls-1" d="M55.1,1.09H52.84a1,1,0,0,0-1.1,1,1.11,1.11,0,0,0,.7,1.05h0a.83.83,0,0,0-.7.87,1,1,0,0,0,.64,1h-.56V5.5c.26,0,.52,0,.78,0H55.1V5.07H53.28c-.82,0-1.2-.44-1.2-.89s.37-.7.83-.7H55.1V3.08H53.28c-.82,0-1.2-.44-1.2-.88s.37-.7.83-.7H55.1V1.09Z" transform="translate(-0.38 -0.42)"/></svg>