<svg id="Ebene_1" data-name="Ebene 1" xmlns="http://www.w3.org/2000/svg" viewBox="0 0 437.03 40.18"><defs><style>.cls-1{fill:#fff;}.cls-2{fill:#ffed00;}</style></defs><title>partner_herold</title><path class="cls-1" d="M1.15,21.57h12v14H38.56v-14h12V60.82h-12V46H13.19V60.82h-12Z" transform="translate(-1.15 -21.13)"/><path class="cls-1" d="M58.73,21.57h42.94v9.11H70.77V37H100V45.1H70.77v6.29h31.61v9.44H58.73Z" transform="translate(-1.15 -21.13)"/><path class="cls-1" d="M109.64,21.57H146c9.27,0,11.77,4.61,11.77,11.66v2.49c0,5.26-1.19,8.35-6.72,9.65v.11c3.58.65,6.56,2.23,6.56,8.68v6.67h-12V56.1c0-4.12-1.19-5.48-4.93-5.48H121.68V60.82h-12Zm12,19.3h19.9c3.25,0,4.45-1.3,4.45-4.12v-1.3c0-3.47-1.73-4.12-5.53-4.12H121.68Z" transform="translate(-1.15 -21.13)"/><path class="cls-1" d="M165,35.34c0-11.49,6.45-14.2,17.3-14.2h19.3c10.84,0,17.3,2.71,17.3,14.2V47.05c0,11.49-6.45,14.2-17.3,14.2H182.3c-10.84,0-17.3-2.71-17.3-14.2Zm12.36,8c0,5.69,1.19,7.86,6.89,7.86h15.4c5.69,0,6.89-2.17,6.89-7.86V39.08c0-4.88-1.19-7.86-7.54-7.86H184.9c-6.34,0-7.54,3-7.54,7.86Z" transform="translate(-1.15 -21.13)"/><path class="cls-1" d="M226.16,21.57h12V50.74h27.06V60.82H226.16Z" transform="translate(-1.15 -21.13)"/><path class="cls-1" d="M270.78,21.57h36.33c12,0,16.27,4,16.27,13.66V47.16c0,9.71-4.23,13.66-16.27,13.66H270.78Zm12,29.17h21.36c5.15,0,7.16-1.46,7.16-7V38.38c0-5.58-2-7-7.16-7H282.82Z" transform="translate(-1.15 -21.13)"/><path class="cls-2" d="M334.27,49.76h11.39V60.82H334.27Z" transform="translate(-1.15 -21.13)"/><path class="cls-2" d="M355.43,49.9c0-8.48,5.86-9,17.21-9,6.41,0,9.95.18,12.2,2.5V40.69c0-3.05-.91-4.15-5.49-4.15h-6.9c-3.42,0-4.39.31-4.52,2.5H356.59c0-8.42,4.15-9.82,14-9.82h13.61c8.05,0,12.33,3.84,12.33,11.17V60.82H385.45V57.28c-3.23,3.35-4.45,4-10.31,4h-8c-7.14.06-11.72-1.53-11.72-8.85ZM376.3,54c8.06,0,8.79-1.22,8.79-3.29,0-2.32-.67-3.17-7.14-3.17h-5.19c-4.94,0-6,1.1-6,3.66,0,2,1.59,2.81,6.16,2.81Z" transform="translate(-1.15 -21.13)"/><path class="cls-2" d="M406.87,38.12H401V29.7h5.86V22.38h11.71V29.7h18.19v8.42H418.59v12c0,2.32,1.71,2.81,4.52,2.81,3.78,0,4.82-.85,4.82-3.72V47.09h10.25v3.78c0,5.92-3.91,10.43-13.24,10.43H420.3c-7.2,0-13.43-2.26-13.43-10.86Z" transform="translate(-1.15 -21.13)"/></svg>