<?xml version="1.0" encoding="utf-8"?>
<!-- Generator: Adobe Illustrator 21.0.0, SVG Export Plug-In . SVG Version: 6.00 Build 0)  -->
<svg version="1.1" id="Ebene_1" xmlns="http://www.w3.org/2000/svg" xmlns:xlink="http://www.w3.org/1999/xlink" x="0px" y="0px"
	 viewBox="0 0 50 50" style="enable-background:new 0 0 50 50;" xml:space="preserve">
<style type="text/css">
	.st0{fill:#FFFFFF;}
	.st1{fill:none;stroke:#91E31C;stroke-width:3;stroke-miterlimit:10;}
</style>
<g>
	<g id="PunkteUmrandung_5_">
		<g>
			<path class="st0" d="M25,0.6C25,0.6,25,0.6,25,0.6C25,0.6,25,0.6,25,0.6C25,0.6,25,0.6,25,0.6C25,0.6,24.9,0.6,25,0.6
				C24.9,0.6,24.9,0.6,25,0.6C24.9,0.6,24.9,0.6,25,0.6C24.9,0.6,24.9,0.6,25,0.6C24.9,0.6,24.9,0.6,25,0.6c-0.1,0-0.1,0-0.1,0
				c0,0,0,0,0,0c0,0,0,0,0,0c0,0,0,0,0,0c0,0,0,0,0,0c0,0,0,0,0,0c0,0,0,0,0,0c0,0,0,0,0,0c0,0,0,0,0,0c0,0,0,0,0,0c0,0,0,0,0,0
				c0,0-0.1,0-0.1,0c0,0,0,0,0,0c0,0,0,0,0,0c0,0,0,0,0,0c-0.1,0-0.1,0-0.2,0c0,0,0,0,0,0c0,0,0,0,0,0c0,0,0,0,0,0c0,0,0,0,0,0
				c0,0,0,0,0,0c0,0,0,0,0,0c0,0,0,0,0,0c0,0,0,0,0,0c0,0,0,0,0,0c0,0,0,0,0,0c0,0,0,0,0,0c0,0,0,0,0,0c0,0,0,0,0,0c0,0,0,0,0,0
				c0,0,0,0-0.1,0c-0.2,0-0.4,0.2-0.4,0.4c0,0.2,0.2,0.4,0.4,0.4c0,0,0,0,0,0c0.2,0,0.5,0,0.7,0c0.2,0,0.4-0.2,0.4-0.4
				S25.2,0.6,25,0.6L25,0.6L25,0.6z M21.3,0.8C21.3,0.8,21.3,0.8,21.3,0.8c-0.1,0-0.2,0-0.2,0c0,0,0,0,0,0c0,0,0,0,0,0l0,0
				c0,0,0,0,0,0c0,0,0,0,0,0c0,0,0,0,0,0c0,0,0,0,0,0c0,0,0,0,0,0c0,0,0,0,0,0c0,0,0,0,0,0c0,0,0,0-0.1,0l0,0c0,0,0,0,0,0l0,0
				c-0.1,0-0.1,0-0.2,0c0,0,0,0,0,0c0,0,0,0,0,0l0,0c0,0,0,0-0.1,0c0,0,0,0,0,0c0,0,0,0,0,0c0,0,0,0,0,0c0,0,0,0,0,0c0,0,0,0,0,0
				c0,0,0,0,0,0c0,0,0,0,0,0c-0.2,0-0.3,0.2-0.3,0.4c0,0.2,0.2,0.3,0.4,0.3c0,0,0,0,0.1,0c0.2,0,0.5-0.1,0.7-0.1
				c0.2,0,0.3-0.2,0.3-0.4C21.7,1,21.5,0.8,21.3,0.8L21.3,0.8z M17.7,1.7c0,0-0.1,0-0.1,0c-0.1,0-0.2,0.1-0.3,0.1c0,0,0,0,0,0
				c0,0,0,0-0.1,0c0,0,0,0,0,0c0,0,0,0,0,0c0,0,0,0,0,0c0,0,0,0,0,0c0,0,0,0,0,0c0,0,0,0,0,0c0,0,0,0,0,0c0,0,0,0,0,0c0,0,0,0,0,0
				c0,0,0,0,0,0c0,0,0,0,0,0c0,0,0,0,0,0c0,0,0,0,0,0c0,0,0,0,0,0c-0.1,0-0.2,0.1-0.2,0.1c-0.2,0.1-0.3,0.3-0.2,0.5
				c0.1,0.2,0.2,0.3,0.4,0.3c0,0,0.1,0,0.1,0c0.2-0.1,0.5-0.2,0.7-0.2c0.2-0.1,0.3-0.3,0.2-0.5C18,1.8,17.9,1.7,17.7,1.7L17.7,1.7z
				 M14.3,3.1c-0.1,0-0.1,0-0.2,0c-0.1,0-0.1,0.1-0.2,0.1c0,0,0,0,0,0c0,0,0,0,0,0c0,0,0,0,0,0c0,0,0,0,0,0c0,0,0,0,0,0c0,0,0,0,0,0
				c0,0,0,0,0,0c0,0,0,0,0,0c0,0,0,0,0,0c0,0,0,0,0,0c0,0,0,0,0,0c0,0,0,0,0,0c0,0,0,0,0,0c0,0,0,0,0,0c0,0,0,0,0,0c0,0,0,0,0,0
				c0,0,0,0,0,0c0,0,0,0,0,0c0,0,0,0,0,0c0,0,0,0,0,0c0,0,0,0,0,0c0,0,0,0,0,0c0,0,0,0,0,0c0,0,0,0,0,0c0,0,0,0,0,0c0,0,0,0,0,0
				c0,0,0,0,0,0c0,0,0,0,0,0c0,0,0,0,0,0c0,0,0,0,0,0c0,0,0,0,0,0c0,0-0.1,0-0.1,0.1c-0.2,0.1-0.2,0.3-0.2,0.5
				c0.1,0.1,0.2,0.2,0.3,0.2c0.1,0,0.1,0,0.2,0C14,4,14.3,3.9,14.5,3.8c0.2-0.1,0.3-0.3,0.2-0.5C14.6,3.1,14.4,3.1,14.3,3.1
				L14.3,3.1z M11.1,5C11.1,5,11,5,10.9,5c0,0,0,0,0,0c0,0,0,0,0,0c0,0,0,0,0,0c0,0,0,0,0,0l0,0c0,0,0,0,0,0l0,0
				c-0.2,0.1-0.3,0.2-0.5,0.4c0,0,0,0,0,0c0,0,0,0,0,0c0,0,0,0,0,0c0,0,0,0,0,0c0,0,0,0,0,0c-0.2,0.1-0.2,0.4-0.1,0.5
				c0.1,0.1,0.2,0.1,0.3,0.1c0.1,0,0.2,0,0.2-0.1c0.2-0.1,0.4-0.3,0.6-0.4c0.2-0.1,0.2-0.4,0.1-0.5C11.4,5,11.3,5,11.1,5L11.1,5z
				 M8.3,7.3c-0.1,0-0.2,0-0.3,0.1C7.9,7.5,7.8,7.6,7.7,7.7c0,0,0,0,0,0c0,0,0,0,0,0c0,0,0,0,0,0c0,0,0,0,0,0c0,0,0,0,0,0
				c0,0,0,0,0,0c0,0,0,0,0,0c0,0,0,0,0,0c0,0,0,0,0,0c0,0,0,0,0,0c0,0,0,0,0,0c0,0,0,0,0,0c0,0,0,0,0,0l0,0c0,0,0,0-0.1,0.1
				c-0.1,0.1-0.1,0.4,0,0.5c0.1,0.1,0.2,0.1,0.3,0.1c0.1,0,0.2,0,0.3-0.1c0.2-0.2,0.3-0.3,0.5-0.5c0.1-0.1,0.2-0.4,0-0.5
				C8.5,7.3,8.4,7.3,8.3,7.3L8.3,7.3z M5.8,10.1c-0.1,0-0.2,0.1-0.3,0.1c0,0,0,0-0.1,0.1c0,0,0,0,0,0c0,0,0,0,0,0c0,0,0,0,0,0
				c0,0,0,0,0,0c0,0,0,0,0,0c0,0,0,0,0,0c0,0,0,0,0,0c0,0,0,0,0,0c0,0,0,0,0,0c0,0,0,0,0,0c0,0,0,0-0.1,0.1c0,0,0,0,0,0
				c0,0,0,0,0,0.1c0,0,0,0,0,0c0,0,0,0,0,0c0,0,0,0,0,0c0,0,0,0,0,0c0,0,0,0,0,0c0,0,0,0,0,0c0,0,0,0,0,0c0,0,0,0,0,0c0,0,0,0,0,0
				c0,0,0,0,0,0c0,0,0,0,0,0c0,0,0,0,0,0c0,0,0,0,0,0l0,0c0,0.1-0.1,0.1-0.1,0.2C5,11,5,11.2,5.2,11.3c0.1,0,0.1,0.1,0.2,0.1
				c0.1,0,0.2-0.1,0.3-0.2C5.9,11,6,10.9,6.1,10.7c0.1-0.2,0.1-0.4-0.1-0.5C6,10.1,5.9,10.1,5.8,10.1L5.8,10.1z M3.8,13.2
				c-0.1,0-0.3,0.1-0.3,0.2c-0.1,0.1-0.1,0.2-0.2,0.4c0,0,0,0,0,0c0,0,0,0,0,0c0,0,0,0,0,0c0,0,0,0,0,0c0,0,0,0,0,0c0,0,0,0,0,0
				c0,0,0,0,0,0c0,0,0,0,0,0c0,0,0,0,0,0c0,0,0,0,0,0c0,0,0,0,0,0c0,0,0,0,0,0c0,0,0,0,0,0c0,0,0,0,0,0c0,0,0,0.1-0.1,0.1
				c0,0,0,0,0,0c0,0,0,0,0,0c-0.1,0.2,0,0.4,0.2,0.5c0.1,0,0.1,0,0.2,0c0.1,0,0.3-0.1,0.3-0.2c0.1-0.2,0.2-0.4,0.3-0.6
				c0.1-0.2,0-0.4-0.2-0.5C4,13.2,3.9,13.2,3.8,13.2L3.8,13.2z M2.3,16.5c-0.2,0-0.3,0.1-0.4,0.2c0,0.1-0.1,0.3-0.1,0.4c0,0,0,0,0,0
				c0,0,0,0,0,0c0,0,0,0,0,0c0,0,0,0,0,0c0,0,0,0,0,0c0,0,0,0,0,0c0,0,0,0,0,0c0,0,0,0,0,0c0,0,0,0,0,0c0,0,0,0,0,0
				c0,0.1,0,0.1-0.1,0.2c-0.1,0.2,0,0.4,0.2,0.5c0,0,0.1,0,0.1,0c0.2,0,0.3-0.1,0.4-0.3c0.1-0.2,0.2-0.5,0.2-0.7
				c0.1-0.2,0-0.4-0.2-0.5C2.4,16.5,2.4,16.5,2.3,16.5L2.3,16.5z M1.4,20.1c-0.2,0-0.3,0.1-0.4,0.3c0,0.1,0,0.1,0,0.2c0,0,0,0,0,0
				c0,0,0,0,0,0c0,0,0,0,0,0c0,0,0,0,0,0c0,0,0,0,0,0c0,0,0,0,0,0c0,0,0,0,0,0c0,0,0,0,0,0c0,0,0,0,0,0c0,0,0,0,0,0c0,0,0,0,0,0
				c0,0,0,0,0,0c0,0,0,0,0,0c0,0,0,0,0,0c0,0,0,0,0,0c0,0,0,0,0,0c0,0,0,0,0,0c0,0,0,0,0,0c0,0,0,0,0,0c0,0,0,0,0,0c0,0,0,0,0,0
				c0,0,0,0,0,0c0,0,0,0,0,0c0,0,0,0,0,0c0,0,0,0,0,0c0,0,0,0,0,0c0,0,0,0,0,0c0,0,0,0,0,0c0,0,0,0,0,0c0,0,0,0,0,0c0,0,0,0,0,0.1
				c0,0,0,0,0,0c0,0.1,0,0.1,0,0.2c0,0.2,0.1,0.4,0.3,0.4c0,0,0,0,0.1,0c0.2,0,0.3-0.1,0.4-0.3c0-0.2,0.1-0.5,0.1-0.7
				C1.8,20.3,1.6,20.1,1.4,20.1C1.4,20.1,1.4,20.1,1.4,20.1L1.4,20.1z M1,23.7c-0.2,0-0.4,0.2-0.4,0.4c0,0.2,0,0.5,0,0.7l0,0
				c0,0,0,0,0,0l0,0c0,0.2,0.2,0.4,0.4,0.4c0,0,0,0,0,0c0.2,0,0.4-0.2,0.4-0.4c0-0.2,0-0.5,0-0.7C1.3,23.9,1.2,23.8,1,23.7
				C1,23.7,1,23.7,1,23.7L1,23.7z M1.1,27.4C1.1,27.4,1.1,27.4,1.1,27.4c-0.2,0-0.4,0.2-0.4,0.4c0,0.1,0,0.3,0.1,0.4l0,0
				c0,0,0,0,0,0c0,0,0,0,0,0c0,0,0,0,0,0c0,0,0,0,0,0c0,0,0,0,0,0c0,0,0,0,0,0c0,0,0,0,0,0c0,0,0,0,0,0c0,0,0,0,0,0
				c0,0.1,0,0.1,0,0.2c0,0.2,0.2,0.3,0.4,0.3c0,0,0,0,0.1,0c0.2,0,0.3-0.2,0.3-0.4c0-0.2-0.1-0.5-0.1-0.7
				C1.5,27.6,1.3,27.4,1.1,27.4L1.1,27.4z M1.8,31.1c0,0-0.1,0-0.1,0c-0.2,0.1-0.3,0.3-0.3,0.5c0,0.1,0.1,0.2,0.1,0.3c0,0,0,0,0,0
				c0,0,0,0,0,0c0,0,0,0,0,0c0,0,0,0,0,0.1c0,0,0,0,0,0c0,0,0,0,0,0c0,0,0,0,0,0c0,0,0,0,0,0c0,0,0,0,0,0c0,0,0,0,0,0.1l0,0
				c0,0,0,0,0,0c0,0,0,0,0,0c0,0,0,0,0,0c0,0,0,0,0,0c0,0.1,0,0.1,0.1,0.2c0.1,0.2,0.2,0.3,0.4,0.3c0,0,0.1,0,0.1,0
				c0.2-0.1,0.3-0.3,0.2-0.5c-0.1-0.2-0.1-0.5-0.2-0.7C2.1,31.2,2,31.1,1.8,31.1L1.8,31.1z M3.1,34.5c-0.1,0-0.1,0-0.2,0
				c-0.2,0.1-0.3,0.3-0.2,0.5c0,0,0,0,0,0c0,0,0,0,0,0c0,0,0,0,0,0c0,0,0,0,0,0c0,0,0,0,0,0c0,0,0,0,0,0c0,0,0,0,0,0c0,0,0,0,0,0
				c0,0,0,0,0,0c0,0,0,0,0,0c0,0,0,0,0,0c0,0,0,0,0,0c0,0,0,0,0,0c0,0,0,0,0,0c0,0,0,0,0,0c0,0,0,0,0,0c0,0,0,0,0,0c0,0,0,0,0,0
				c0,0,0,0,0,0c0,0,0,0,0,0c0,0,0,0,0,0c0,0,0,0,0,0c0,0,0,0,0,0c0,0,0,0,0,0c0,0,0,0,0,0c0,0,0,0,0,0c0,0,0,0,0,0c0,0,0,0,0,0
				c0,0,0,0,0,0c0,0,0,0,0,0l0,0c0,0,0,0,0,0l0,0c0,0.1,0.1,0.2,0.1,0.3c0.1,0.1,0.2,0.2,0.3,0.2c0.1,0,0.1,0,0.2,0
				c0.2-0.1,0.3-0.3,0.2-0.5c-0.1-0.2-0.2-0.4-0.3-0.7C3.3,34.6,3.2,34.5,3.1,34.5L3.1,34.5z M4.8,37.8c-0.1,0-0.1,0-0.2,0.1
				c-0.2,0.1-0.2,0.3-0.1,0.5c0.1,0.2,0.3,0.4,0.4,0.6c0.1,0.1,0.2,0.2,0.3,0.2c0.1,0,0.1,0,0.2-0.1c0.2-0.1,0.2-0.4,0.1-0.5
				c-0.1-0.2-0.3-0.4-0.4-0.6C5.1,37.8,5,37.8,4.8,37.8L4.8,37.8z M7.1,40.7c-0.1,0-0.2,0-0.3,0.1c-0.2,0.1-0.2,0.4,0,0.5
				c0.1,0.1,0.2,0.2,0.3,0.3c0,0,0,0,0,0c0,0,0,0,0,0c0,0,0,0,0,0c0,0,0,0,0,0c0,0,0,0,0,0c0,0,0,0,0,0c0,0,0,0,0,0c0,0,0,0,0,0
				c0.1,0.1,0.1,0.1,0.2,0.2C7.4,41.9,7.5,42,7.6,42c0.1,0,0.2,0,0.3-0.1c0.1-0.1,0.2-0.4,0-0.5c-0.2-0.2-0.3-0.4-0.5-0.5
				C7.3,40.7,7.2,40.7,7.1,40.7L7.1,40.7z M9.7,43.2c-0.1,0-0.2,0-0.3,0.1c-0.1,0.2-0.1,0.4,0.1,0.5c0,0,0,0,0,0c0,0,0,0,0,0
				c0,0,0,0,0,0c0,0,0,0,0,0c0,0,0,0,0,0c0,0,0,0,0,0c0,0,0,0,0,0c0,0,0,0,0,0c0,0,0,0,0,0c0,0,0,0,0,0c0,0,0,0,0,0c0,0,0,0,0,0
				c0,0,0,0,0,0c0,0,0,0,0,0c0,0,0,0,0,0c0,0,0,0,0,0c0,0,0,0,0,0l0,0c0,0,0,0,0,0c0,0,0,0,0,0c0.1,0.1,0.3,0.2,0.4,0.3
				c0.1,0.1,0.1,0.1,0.2,0.1c0.1,0,0.2-0.1,0.3-0.1c0.1-0.2,0.1-0.4-0.1-0.5c-0.2-0.1-0.4-0.3-0.6-0.5C9.9,43.3,9.8,43.2,9.7,43.2
				L9.7,43.2z M12.8,45.4c-0.1,0-0.3,0.1-0.3,0.2c-0.1,0.2,0,0.4,0.1,0.5c0.2,0.1,0.3,0.2,0.5,0.3c0,0,0,0,0,0c0,0,0,0,0,0
				c0,0,0,0,0,0c0,0,0,0,0,0c0,0,0.1,0.1,0.1,0.1c0.1,0,0.1,0,0.2,0c0.1,0,0.3-0.1,0.3-0.2c0.1-0.2,0-0.4-0.1-0.5
				c-0.2-0.1-0.4-0.2-0.6-0.4C12.9,45.4,12.8,45.4,12.8,45.4L12.8,45.4z M16.1,47c-0.1,0-0.3,0.1-0.3,0.2c-0.1,0.2,0,0.4,0.2,0.5
				c0,0,0.1,0,0.1,0c0,0,0,0,0,0c0,0,0,0,0,0c0,0,0,0,0,0c0,0,0,0,0,0c0,0,0,0,0,0c0,0,0,0,0,0c0,0,0,0,0,0c0,0,0,0,0,0c0,0,0,0,0,0
				c0,0,0,0,0,0c0,0,0,0,0,0c0,0,0,0,0,0c0,0,0,0,0,0c0,0,0,0,0,0c0,0,0,0,0,0c0,0,0,0,0,0c0,0,0,0,0,0l0,0c0,0,0,0,0,0c0,0,0,0,0,0
				c0,0,0,0,0,0l0,0c0,0,0,0,0.1,0l0,0c0,0,0,0,0,0c0,0,0,0,0,0c0.1,0,0.2,0.1,0.2,0.1c0,0,0.1,0,0.1,0c0.2,0,0.3-0.1,0.4-0.2
				c0.1-0.2,0-0.4-0.2-0.5c-0.2-0.1-0.5-0.2-0.7-0.3C16.2,47,16.1,47,16.1,47L16.1,47z M19.6,48.1c-0.2,0-0.3,0.1-0.4,0.3
				c0,0.2,0.1,0.4,0.3,0.4c0.2,0,0.4,0.1,0.6,0.1c0,0,0,0,0,0c0.1,0,0.1,0,0.2,0c0,0,0,0,0.1,0c0.2,0,0.3-0.1,0.4-0.3
				c0-0.2-0.1-0.4-0.3-0.4C20.2,48.2,19.9,48.1,19.6,48.1C19.7,48.1,19.6,48.1,19.6,48.1L19.6,48.1z M23.2,48.6
				c-0.2,0-0.4,0.2-0.4,0.3c0,0.2,0.1,0.4,0.3,0.4c0,0,0,0,0,0c0,0,0,0,0,0c0,0,0,0,0,0c0,0,0,0,0,0c0,0,0,0,0,0c0.2,0,0.4,0,0.5,0
				c0,0,0,0,0,0c0,0,0,0,0,0c0,0,0,0,0,0c0,0,0,0,0,0c0,0,0.1,0,0.1,0c0,0,0,0,0,0c0.2,0,0.4-0.2,0.4-0.4c0-0.2-0.2-0.4-0.4-0.4
				C23.8,48.7,23.5,48.6,23.2,48.6C23.3,48.6,23.3,48.6,23.2,48.6L23.2,48.6z M27.7,48.5C27.7,48.5,27.6,48.5,27.7,48.5
				c-0.3,0-0.5,0.1-0.8,0.1c-0.2,0-0.4,0.2-0.3,0.4c0,0.2,0.2,0.3,0.4,0.3c0,0,0,0,0,0c0,0,0.1,0,0.1,0c0,0,0,0,0,0c0,0,0,0,0.1,0
				c0,0,0,0,0,0c0,0,0,0,0,0c0,0,0,0,0,0c0,0,0,0,0,0c0,0,0,0,0,0c0,0,0,0,0,0c0,0,0,0,0,0c0,0,0,0,0,0c0,0,0,0,0,0c0,0,0,0,0,0
				c0,0,0,0,0,0c0,0,0,0,0,0c0,0,0,0,0,0c0,0,0,0,0,0c0,0,0,0,0,0c0.1,0,0.3,0,0.4,0c0.2,0,0.4-0.2,0.3-0.4
				C28,48.7,27.9,48.5,27.7,48.5L27.7,48.5z M31.3,47.9C31.3,47.9,31.2,47.9,31.3,47.9C31,47.9,30.7,48,30.5,48
				c-0.2,0-0.3,0.2-0.3,0.5c0,0.2,0.2,0.3,0.4,0.3c0,0,0.1,0,0.1,0c0.1,0,0.2-0.1,0.3-0.1c0,0,0,0,0,0c0,0,0,0,0,0c0,0,0,0,0,0
				c0,0,0,0,0,0c0,0,0,0,0,0c0,0,0,0,0,0c0,0,0,0,0,0c0,0,0,0,0,0c0,0,0,0,0,0c0,0,0,0,0,0c0,0,0,0,0,0c0,0,0,0,0,0c0,0,0,0,0,0
				c0,0,0,0,0,0c0,0,0,0,0,0c0,0,0,0,0,0c0.1,0,0.1,0,0.2-0.1c0.2-0.1,0.3-0.3,0.3-0.5C31.6,48,31.5,47.9,31.3,47.9L31.3,47.9z
				 M34.8,46.6c-0.1,0-0.1,0-0.2,0c-0.2,0.1-0.4,0.2-0.7,0.3c-0.2,0.1-0.3,0.3-0.2,0.5c0.1,0.1,0.2,0.2,0.3,0.2c0,0,0.1,0,0.1,0
				c0.1,0,0.2-0.1,0.3-0.1c0,0,0,0,0,0c0,0,0,0,0,0c0,0,0,0,0,0c0,0,0,0,0,0c0,0,0,0,0,0c0,0,0,0,0,0c0,0,0,0,0,0c0,0,0,0,0,0
				c0,0,0,0,0,0c0,0,0,0,0,0c0,0,0,0,0,0c0,0,0,0,0,0c0,0,0,0,0,0c0,0,0,0,0,0c0,0,0,0,0,0c0,0,0,0,0,0c0.1,0,0.1-0.1,0.2-0.1
				c0.2-0.1,0.3-0.3,0.2-0.5C35.1,46.7,34.9,46.6,34.8,46.6L34.8,46.6z M38,44.9c-0.1,0-0.1,0-0.2,0.1c-0.2,0.1-0.4,0.3-0.6,0.4
				c-0.2,0.1-0.2,0.3-0.1,0.5c0.1,0.1,0.2,0.2,0.3,0.2c0.1,0,0.1,0,0.2-0.1c0,0,0.1-0.1,0.1-0.1c0,0,0,0,0,0c0,0,0,0,0,0
				c0,0,0,0,0,0c0,0,0,0,0,0l0,0c0,0,0,0,0,0l0,0c0,0,0,0,0,0c0,0,0,0,0,0c0,0,0,0,0,0c0,0,0,0,0,0c0,0,0,0,0,0c0,0,0,0,0,0
				c0,0,0,0,0,0c0,0,0,0,0,0c0,0,0,0,0,0c0,0,0,0,0,0c0,0,0,0,0,0c0,0,0,0,0,0c0,0,0,0,0,0c0,0,0,0,0,0c0,0,0,0,0,0c0,0,0,0,0,0
				c0,0,0,0,0,0c0,0,0,0,0,0c0,0,0,0,0,0c0,0,0,0,0,0c0,0,0,0,0,0c0,0,0,0,0,0c0,0,0,0,0,0c0,0,0,0,0,0c0,0,0,0,0,0c0,0,0,0,0,0
				c0,0,0,0,0,0c0,0,0,0,0,0c0,0,0,0,0,0c0,0,0,0,0,0c0,0,0,0,0,0c0,0,0,0,0,0c0,0,0,0,0,0c0,0,0,0,0,0c0,0,0,0,0,0c0,0,0,0,0,0l0,0
				c0,0,0,0,0,0c0.2-0.1,0.2-0.3,0.1-0.5C38.3,44.9,38.1,44.9,38,44.9L38,44.9z M41,42.6c-0.1,0-0.2,0-0.2,0.1
				c-0.2,0.2-0.4,0.3-0.6,0.5c-0.2,0.1-0.2,0.4,0,0.5c0.1,0.1,0.2,0.1,0.3,0.1c0.1,0,0.2,0,0.2-0.1c0.2-0.2,0.4-0.3,0.6-0.5
				c0.2-0.1,0.2-0.4,0-0.5C41.2,42.7,41.1,42.6,41,42.6L41,42.6z M43.5,40c-0.1,0-0.2,0-0.3,0.1c-0.2,0.2-0.3,0.4-0.5,0.6
				c-0.1,0.2-0.1,0.4,0,0.5c0.1,0.1,0.2,0.1,0.2,0.1c0.1,0,0.2,0,0.3-0.1c0,0,0.1-0.1,0.1-0.1l0,0c0,0,0,0,0,0c0,0,0,0,0,0
				c0,0,0,0,0,0c0,0,0,0,0,0c0,0,0,0,0,0c0,0,0,0,0,0l0,0c0.1-0.1,0.2-0.2,0.3-0.3c0,0,0,0,0,0c0,0,0,0,0,0c0,0,0,0,0,0c0,0,0,0,0,0
				c0,0,0,0,0,0c0.1-0.2,0.1-0.4,0-0.5C43.7,40,43.6,40,43.5,40L43.5,40z M45.7,37c-0.1,0-0.3,0.1-0.3,0.2c-0.1,0.2-0.3,0.4-0.4,0.6
				c-0.1,0.2-0.1,0.4,0.1,0.5c0.1,0,0.1,0.1,0.2,0.1c0.1,0,0.2-0.1,0.3-0.2c0.1-0.2,0.3-0.4,0.4-0.6c0.1-0.2,0-0.4-0.1-0.5
				C45.8,37,45.7,37,45.7,37L45.7,37z M47.3,33.7c-0.1,0-0.3,0.1-0.3,0.2c-0.1,0.2-0.2,0.4-0.3,0.7c-0.1,0.2,0,0.4,0.2,0.5
				c0,0,0.1,0,0.2,0c0.1,0,0.3-0.1,0.3-0.2c0.1-0.1,0.1-0.2,0.1-0.3c0,0,0,0,0,0c0,0,0,0,0,0c0,0,0,0,0,0c0,0,0,0,0,0c0,0,0,0,0,0
				c0,0,0,0,0,0c0,0,0,0,0,0c0,0,0,0,0,0c0,0,0,0,0,0c0,0,0,0,0,0c0,0,0,0,0,0c0,0,0,0,0,0c0,0,0,0,0,0c0,0,0,0,0,0c0,0,0,0,0,0
				c0,0,0,0,0,0c0,0,0,0,0,0c0,0,0,0,0,0c0,0,0,0,0,0c0-0.1,0-0.1,0.1-0.2c0.1-0.2,0-0.4-0.2-0.5C47.4,33.7,47.3,33.7,47.3,33.7
				L47.3,33.7z M48.4,30.2c-0.2,0-0.3,0.1-0.4,0.3c-0.1,0.2-0.1,0.5-0.2,0.7c-0.1,0.2,0.1,0.4,0.3,0.5c0,0,0.1,0,0.1,0
				c0.2,0,0.3-0.1,0.4-0.3c0,0,0,0,0-0.1c0,0,0,0,0,0c0,0,0,0,0,0c0,0,0,0,0,0c0,0,0,0,0,0c0,0,0,0,0,0c0,0,0,0,0,0c0,0,0,0,0,0
				c0,0,0,0,0,0c0,0,0,0,0,0c0,0,0,0,0,0c0,0,0,0,0,0c0,0,0,0,0,0c0,0,0,0,0-0.1l0,0c0,0,0,0,0,0c0,0,0,0,0,0c0,0,0,0,0,0
				c0,0,0,0,0,0c0,0,0,0,0-0.1c0,0,0,0,0,0c0,0,0,0,0,0c0,0,0,0,0,0c0,0,0,0,0,0l0,0c0,0,0,0,0,0c0,0,0,0,0,0c0,0,0,0,0,0
				c0,0,0,0,0,0c0,0,0,0,0,0c0,0,0,0,0,0c0,0,0,0,0,0c0,0,0,0,0,0c0,0,0,0,0,0c0,0,0,0,0,0c0,0,0,0,0,0c0,0,0,0,0,0c0,0,0,0,0,0
				c0,0,0,0,0,0c0,0,0,0,0,0c0,0,0,0,0,0c0,0,0,0,0,0c0,0,0,0,0,0c0,0,0,0,0,0c0,0,0,0,0,0c0,0,0-0.1,0-0.1
				C48.8,30.4,48.7,30.2,48.4,30.2C48.5,30.2,48.5,30.2,48.4,30.2L48.4,30.2z M49,26.5c-0.2,0-0.4,0.1-0.4,0.3c0,0.2,0,0.5-0.1,0.7
				c0,0.2,0.1,0.4,0.3,0.4c0,0,0,0,0,0c0.2,0,0.4-0.1,0.4-0.3c0,0,0,0,0-0.1c0,0,0,0,0,0c0,0,0,0,0,0c0,0,0,0,0,0c0,0,0,0,0,0
				c0,0,0,0,0,0c0,0,0,0,0,0c0,0,0,0,0,0l0,0c0-0.2,0-0.4,0.1-0.6c0,0,0,0,0,0c0,0,0,0,0,0l0,0C49.4,26.7,49.2,26.5,49,26.5
				C49,26.5,49,26.5,49,26.5L49,26.5z M49,22.8C49,22.8,49,22.8,49,22.8c-0.2,0-0.4,0.2-0.4,0.4c0,0.2,0,0.5,0,0.7
				c0,0.2,0.2,0.4,0.4,0.4c0,0,0,0,0,0c0.2,0,0.4-0.2,0.4-0.4c0-0.2,0-0.4,0-0.5c0,0,0,0,0,0c0,0,0,0,0,0c0,0,0,0,0,0c0,0,0,0,0,0
				c0,0,0,0,0,0c0,0,0,0,0,0c0-0.1,0-0.1,0-0.2C49.4,23,49.2,22.8,49,22.8L49,22.8z M48.4,19.2C48.4,19.2,48.4,19.2,48.4,19.2
				c-0.3,0.1-0.4,0.3-0.4,0.5c0.1,0.2,0.1,0.5,0.2,0.7c0,0.2,0.2,0.3,0.4,0.3c0,0,0,0,0.1,0c0.2,0,0.3-0.2,0.3-0.4
				c0-0.1-0.1-0.3-0.1-0.4c0,0,0,0,0,0c0,0,0,0,0,0c0,0,0,0,0,0c0,0,0,0,0-0.1c0,0,0,0,0,0c0,0,0,0,0,0l0,0c0-0.1,0-0.1,0-0.2
				C48.8,19.3,48.6,19.2,48.4,19.2L48.4,19.2z M47.3,15.7c0,0-0.1,0-0.1,0C47,15.8,46.9,16,47,16.2c0.1,0.2,0.2,0.5,0.3,0.7
				c0.1,0.2,0.2,0.2,0.4,0.2c0,0,0.1,0,0.1,0c0.2-0.1,0.3-0.3,0.2-0.5c-0.1-0.2-0.2-0.5-0.3-0.7C47.6,15.7,47.5,15.7,47.3,15.7
				L47.3,15.7z M45.7,12.4c-0.1,0-0.1,0-0.2,0.1c-0.2,0.1-0.2,0.3-0.1,0.5c0.1,0.2,0.2,0.4,0.4,0.6c0.1,0.1,0.2,0.2,0.3,0.2
				c0.1,0,0.1,0,0.2,0c0.2-0.1,0.2-0.3,0.1-0.5c0,0,0,0,0,0c0,0,0,0,0,0c0,0,0,0,0,0c0,0,0,0,0,0c0,0,0,0,0,0c0,0,0,0,0,0
				c0,0,0,0,0,0c0,0,0,0,0,0c0,0,0,0,0,0c0,0,0,0,0,0c0,0,0,0,0-0.1c0,0,0,0,0,0c0,0,0,0,0,0c0,0,0,0,0,0c0,0,0,0,0,0c0,0,0,0,0,0
				c0,0,0,0,0,0c0,0,0,0,0,0c0,0,0,0,0,0c0,0,0,0,0,0c0,0,0,0,0,0c0,0,0,0,0,0c0,0,0,0,0,0c0,0,0,0,0,0c0,0,0,0,0,0c0,0,0,0,0,0
				c0,0,0,0,0,0c0,0,0,0,0-0.1l0,0c0-0.1-0.1-0.2-0.1-0.2C46,12.4,45.8,12.4,45.7,12.4L45.7,12.4z M43.6,9.3c-0.1,0-0.2,0-0.2,0.1
				c-0.2,0.1-0.2,0.4-0.1,0.5c0.2,0.2,0.3,0.4,0.5,0.6c0.1,0.1,0.2,0.1,0.3,0.1c0.1,0,0.2,0,0.2-0.1c0.2-0.1,0.2-0.4,0.1-0.5
				c-0.1-0.1-0.1-0.1-0.2-0.2c0,0,0,0,0,0c0,0,0,0,0,0c0,0,0,0,0,0c0,0,0,0,0,0c0,0,0,0,0,0c0,0,0,0,0,0c0,0,0,0,0,0l0,0
				c0,0,0,0,0,0c0,0,0,0,0,0C44,9.7,44,9.6,43.9,9.5C43.8,9.4,43.7,9.3,43.6,9.3L43.6,9.3z M41,6.7c-0.1,0-0.2,0-0.3,0.1
				c-0.1,0.2-0.1,0.4,0,0.5c0.2,0.2,0.4,0.3,0.5,0.5c0.1,0.1,0.2,0.1,0.3,0.1c0.1,0,0.2,0,0.3-0.1c0.1-0.1,0.1-0.4,0-0.5
				c0,0,0,0,0,0c0,0,0,0,0,0c0,0,0,0,0,0c0,0,0,0,0,0c0,0,0,0,0,0c0,0,0,0,0,0c0,0,0,0,0,0c0,0,0,0,0,0c0,0,0,0,0,0c0,0,0,0,0,0
				c0,0,0,0,0,0c-0.1-0.1-0.2-0.1-0.2-0.2c0,0,0,0,0,0c0,0,0,0,0,0c0,0,0,0,0,0c0,0,0,0,0,0c0,0,0,0,0,0c0,0,0,0,0,0c0,0,0,0,0,0
				c0,0,0,0,0,0c0,0,0,0,0,0c0,0,0,0,0,0c0,0-0.1-0.1-0.1-0.1C41.2,6.7,41.1,6.7,41,6.7L41,6.7z M38.1,4.4c-0.1,0-0.2,0.1-0.3,0.2
				c-0.1,0.2-0.1,0.4,0.1,0.5c0.2,0.1,0.4,0.3,0.6,0.4c0.1,0,0.1,0.1,0.2,0.1c0.1,0,0.2-0.1,0.3-0.2c0.1-0.2,0.1-0.4-0.1-0.5
				c-0.2-0.1-0.3-0.2-0.5-0.3l0,0c0,0,0,0,0,0c0,0,0,0,0,0c0,0,0,0,0,0c0,0,0,0,0,0c0,0,0,0,0,0c0,0,0,0,0,0c0,0,0,0,0,0
				c0,0,0,0,0,0c0,0,0,0,0,0c0,0-0.1,0-0.1-0.1C38.2,4.5,38.2,4.4,38.1,4.4L38.1,4.4z M34.9,2.7c-0.1,0-0.3,0.1-0.3,0.2
				c-0.1,0.2,0,0.4,0.2,0.5c0.2,0.1,0.4,0.2,0.7,0.3c0.1,0,0.1,0,0.2,0c0.1,0,0.3-0.1,0.3-0.2c0.1-0.2,0-0.4-0.2-0.5
				c-0.2-0.1-0.5-0.2-0.7-0.3C35,2.7,34.9,2.7,34.9,2.7L34.9,2.7z M31.4,1.4c-0.2,0-0.3,0.1-0.4,0.3c-0.1,0.2,0.1,0.4,0.3,0.5
				c0.2,0.1,0.5,0.1,0.7,0.2c0,0,0.1,0,0.1,0c0.2,0,0.3-0.1,0.4-0.3c0.1-0.2,0-0.4-0.2-0.5c0,0,0,0,0,0c0,0,0,0,0,0c0,0,0,0,0,0
				c0,0,0,0,0,0c0,0,0,0,0,0c0,0,0,0,0,0c0,0,0,0,0,0c0,0,0,0,0,0c0,0,0,0,0,0c0,0,0,0,0,0c0,0,0,0,0,0c0,0,0,0,0,0c0,0,0,0,0,0
				c0,0,0,0,0,0c0,0,0,0,0,0c0,0,0,0,0,0c0,0,0,0,0,0c0,0,0,0,0,0c0,0,0,0,0,0c0,0,0,0,0,0c0,0,0,0,0,0c0,0,0,0,0,0c0,0,0,0,0,0
				c0,0,0,0,0,0c0,0,0,0,0,0c0,0,0,0,0,0c0,0,0,0,0,0c0,0,0,0,0,0c0,0,0,0,0,0c0,0,0,0,0,0c0,0,0,0,0,0c0,0,0,0,0,0c0,0,0,0,0,0
				c0,0,0,0,0,0c0,0,0,0,0,0c0,0,0,0,0,0c0,0,0,0,0,0c0,0,0,0,0,0l0,0c0,0,0,0,0,0c0,0,0,0,0,0c0,0,0,0,0,0c0,0,0,0,0,0
				C31.7,1.5,31.6,1.5,31.4,1.4C31.5,1.4,31.4,1.4,31.4,1.4L31.4,1.4z M27.8,0.7c-0.2,0-0.4,0.1-0.4,0.3c0,0.2,0.1,0.4,0.3,0.4
				c0.2,0,0.5,0.1,0.7,0.1c0,0,0,0,0.1,0c0.2,0,0.3-0.1,0.4-0.3c0-0.2-0.1-0.4-0.3-0.4c0,0,0,0-0.1,0c0,0,0,0,0,0c0,0,0,0,0,0
				c0,0,0,0,0,0c0,0,0,0,0,0c0,0,0,0,0,0c0,0,0,0,0,0c0,0,0,0,0,0c0,0,0,0,0,0C28.2,0.8,28,0.7,27.8,0.7C27.8,0.7,27.8,0.7,27.8,0.7
				L27.8,0.7z"/>
		</g>
	</g>
	<path class="st1" d="M26.1,29.3c0-3.1,2.8-3.7,3.9-4.5c1.6-1.2,2.6-3.1,2.6-5.2c0-3.6-2.9-6.5-6.5-6.5s-6.5,2.9-6.5,6.5"/>
	<line class="st1" x1="26.1" y1="29.3" x2="26.1" y2="32.1"/>
	<line class="st1" x1="26.1" y1="36.8" x2="26.1" y2="34.3"/>
</g>
</svg>
