<svg id="Ebene_1" data-name="Ebene 1" xmlns="http://www.w3.org/2000/svg" viewBox="0 0 48.85 48.85"><defs><style>.cls-1{fill:#fff;}.cls-2{fill:none;stroke:#face15;stroke-miterlimit:10;stroke-width:3px;}</style></defs><title>question_yellow</title><g id="PunkteUmrandung"><path class="cls-1" d="M25,.56h-.75a.37.37,0,0,0,0,.75H25a.38.38,0,0,0,0-.75ZM21.32.84h-.06l-.19,0h-.2l-.21,0h-.15a.38.38,0,0,0,.07.74h.07l.72-.12a.38.38,0,0,0-.06-.75Zm-3.59.84-.11,0-.27.09h0l-.07,0h-.14l-.24.08a.38.38,0,0,0,.13.73l.12,0,.69-.23a.38.38,0,0,0-.11-.73ZM14.31,3.06a.37.37,0,0,0-.17,0l-.2.1h0l0,0h-.27l-.13.07a.38.38,0,0,0,.36.66l.65-.33a.38.38,0,0,0-.17-.71ZM11.14,5a.37.37,0,0,0-.22.07h0l0,0h0l-.49.36h0a.38.38,0,1,0,.45.6l.59-.43A.38.38,0,0,0,11.14,5ZM8.3,7.3A.37.37,0,0,0,8,7.41l-.33.33H7.61l0,0h0l-.07.07A.38.38,0,0,0,8,8.46l.52-.51A.37.37,0,0,0,8.3,7.3ZM5.85,10.06a.37.37,0,0,0-.3.15l-.05.07h0v0h0l-.05.07h0l0,.06h0v0h0l0,0h0l0,0h0l-.13.18a.38.38,0,0,0,.61.43l.43-.59a.38.38,0,0,0-.3-.6Zm-2,3.1a.37.37,0,0,0-.33.2l-.19.35h0v0h0v0h0l0,0h0v0h0L3.17,14h0a.38.38,0,0,0,.67.34l.34-.64a.38.38,0,0,0-.33-.55ZM2.34,16.52a.38.38,0,0,0-.35.25l-.14.39h0v0h0v0h0l-.07.22A.37.37,0,0,0,2,18l.12,0a.38.38,0,0,0,.36-.26q.11-.35.23-.69a.37.37,0,0,0-.23-.48l-.13,0Zm-1,3.56a.38.38,0,0,0-.37.3l0,.18H1v0H1v0H1v0h0v0h0V21h0l0,.15a.37.37,0,0,0,.31.43h.06a.38.38,0,0,0,.37-.32q.06-.36.13-.72a.38.38,0,0,0-.3-.44ZM1,23.75a.37.37,0,0,0-.37.36q0,.36,0,.73h0v0h0a.38.38,0,0,0,.37.38h0a.37.37,0,0,0,.37-.37q0-.36,0-.73A.38.38,0,0,0,1,23.75Zm.15,3.69h0a.38.38,0,0,0-.33.41l.05.41h0v0h0v0h0v0h0l0,.21a.38.38,0,0,0,.37.32h.06a.38.38,0,0,0,.32-.43q-.05-.36-.1-.72a.38.38,0,0,0-.37-.33Zm.71,3.62h-.1a.38.38,0,0,0-.26.46l.09.31h0v0h0l0,.05h0v0h0v0h0l0,.05h0v0h0v0h0l.07.22a.38.38,0,0,0,.36.26l.11,0A.38.38,0,0,0,2.37,32q-.11-.35-.2-.7a.38.38,0,0,0-.36-.28Zm1.25,3.47a.38.38,0,0,0-.34.53h0v0h0v0h0v0h0l0,0h0v0h0l0,0h0v0h0l.14.3a.37.37,0,1,0,.67-.33l-.31-.66a.38.38,0,0,0-.34-.22Zm1.77,3.23a.38.38,0,0,0-.32.58l.42.63a.38.38,0,0,0,.61-.43l-.41-.6a.37.37,0,0,0-.31-.17Zm2.25,2.93a.37.37,0,0,0-.28.63l.3.33h.06l.15.16a.38.38,0,0,0,.54-.52l-.49-.53a.37.37,0,0,0-.28-.12Zm2.67,2.55a.38.38,0,0,0-.24.66h.13l0,0h0l.4.31a.38.38,0,0,0,.46-.6L10,43.32a.37.37,0,0,0-.24-.09Zm3,2.12a.38.38,0,0,0-.19.7l.49.28h0l.13.07a.38.38,0,0,0,.36-.66L13,45.4a.37.37,0,0,0-.19-.05ZM16.08,47a.38.38,0,0,0-.14.72l.1,0h.12l0,0h0l0,0h0l.06,0h0l.24.09.13,0a.38.38,0,0,0,.13-.73L16.22,47l-.14,0Zm3.52,1.1a.38.38,0,0,0-.09.74l.56.12h0l.18,0h.07a.38.38,0,0,0,.07-.74l-.71-.15Zm3.65.55a.38.38,0,0,0,0,.75h.07l.53,0H24a.38.38,0,0,0,0-.75l-.73,0Zm4.43-.08h0l-.72.07a.38.38,0,0,0,0,.75h.39l.39,0a.38.38,0,0,0,0-.75Zm3.62-.69h-.1l-.7.18a.38.38,0,0,0,.09.74h.09L31,48.7h.21l.2-.05a.38.38,0,0,0-.1-.74Zm3.48-1.23a.37.37,0,0,0-.15,0l-.67.29a.38.38,0,0,0,.14.72l.14,0,.3-.12h0l0,0h.12l.21-.09a.38.38,0,0,0-.15-.72ZM38,44.87a.37.37,0,0,0-.2.06l-.62.38a.37.37,0,1,0,.39.64l.14-.08h.1l0,0h0l0,0h.19l0,0h0l0,0a.38.38,0,0,0-.2-.69ZM41,42.64a.37.37,0,0,0-.25.09l-.55.47a.38.38,0,0,0,.48.58l.57-.49a.38.38,0,0,0-.25-.65ZM43.52,40a.37.37,0,0,0-.29.14l-.47.55a.37.37,0,1,0,.56.5l.09-.11h0l0,0h0l0,0h0l.27-.32h0v0a.38.38,0,0,0-.29-.61Zm2.13-3a.37.37,0,0,0-.32.18l-.38.62a.37.37,0,1,0,.63.41l.4-.64a.38.38,0,0,0-.32-.57Zm1.65-3.3a.38.38,0,0,0-.35.23l-.28.67a.37.37,0,1,0,.69.3l.15-.34h0v0h0v0h0v0h0v0h0l.06-.15a.37.37,0,0,0-.21-.49l-.14,0Zm1.12-3.51a.38.38,0,0,0-.36.29q-.08.35-.18.7a.38.38,0,0,0,.26.46h.1a.38.38,0,0,0,.36-.28l0-.07h0v0h0v0h0v0h0v-.05h0v0h0v0h0l0-.07h0v0h0v0h0v0h0v0h0v0h0v0h0l0-.08a.38.38,0,0,0-.28-.45ZM49,26.52a.38.38,0,0,0-.37.35q0,.36-.07.72a.37.37,0,0,0,.33.41h0a.38.38,0,0,0,.37-.33v-.06h0v0h0v0h0v0h0q0-.28.05-.56h0v0h0a.38.38,0,0,0-.34-.4Zm0-3.69h0a.37.37,0,0,0-.35.4q0,.36,0,.73a.38.38,0,0,0,.37.36h0a.38.38,0,0,0,.36-.39q0-.27,0-.53h0v0h0v-.16a.37.37,0,0,0-.37-.35Zm-.55-3.65h-.08a.37.37,0,0,0-.28.45q.08.35.15.71a.38.38,0,0,0,.37.3h.07a.38.38,0,0,0,.3-.44l-.09-.43h0v0h0l0-.07h0v0h0l0-.2a.38.38,0,0,0-.36-.29Zm-1.11-3.52-.14,0a.37.37,0,0,0-.21.49q.14.34.26.68a.38.38,0,0,0,.35.25l.13,0A.37.37,0,0,0,48,16.6c-.09-.24-.18-.47-.27-.7a.38.38,0,0,0-.35-.23ZM45.7,12.35a.38.38,0,0,0-.32.57l.36.63a.37.37,0,0,0,.66-.36h0l0,0h0l0-.06h0l0,0h0v0h0v0h0l0-.06h0L46,12.54a.37.37,0,0,0-.32-.18Zm-2.12-3a.38.38,0,0,0-.29.61l.45.57a.38.38,0,0,0,.59-.46l-.17-.22h0v0h0v0h0l-.24-.29a.37.37,0,0,0-.29-.14ZM41,6.68a.38.38,0,0,0-.25.65l.53.49a.38.38,0,0,0,.52-.54l0,0h0l0,0h0l-.24-.22h-.08l-.11-.1A.37.37,0,0,0,41,6.68ZM38.1,4.43a.38.38,0,0,0-.2.69l.6.41a.38.38,0,0,0,.43-.61l-.46-.31h-.09L38.3,4.5a.37.37,0,0,0-.2-.06ZM34.86,2.67a.38.38,0,0,0-.15.72l.66.31A.38.38,0,0,0,35.69,3L35,2.7a.37.37,0,0,0-.15,0ZM31.39,1.42a.38.38,0,0,0-.1.74l.7.2.11,0a.38.38,0,0,0,.11-.73h-.47l-.25-.07ZM27.76.72a.38.38,0,0,0,0,.75l.72.09h.05a.38.38,0,0,0,.05-.75H28.4L27.81.72Z" transform="translate(-0.56 -0.56)"/></g><path class="cls-2" d="M26.06,32.11V29.26c0-3.13,2.82-3.73,3.91-4.54a6.54,6.54,0,1,0-10.44-5.24" transform="translate(-0.56 -0.56)"/><line class="cls-2" x1="25.55" y1="36.23" x2="25.55" y2="33.74"/></svg>