<?xml version="1.0" encoding="utf-8"?>
<!-- Generator: Adobe Illustrator 19.2.0, SVG Export Plug-In . SVG Version: 6.00 Build 0)  -->
<svg version="1.1" id="Ebene_1" xmlns="http://www.w3.org/2000/svg" xmlns:xlink="http://www.w3.org/1999/xlink" x="0px" y="0px"
	 viewBox="0 0 84.9 129.1" style="enable-background:new 0 0 84.9 129.1;" xml:space="preserve">
<style type="text/css">
	.st0{display:none;clip-path:url(#SVGID_2_);fill:none;}
	.st1{clip-path:url(#SVGID_2_);}
	.st2{fill:none;stroke:#13FFFD;stroke-width:5;stroke-miterlimit:10;}
</style>
<g>
	<defs>
		<circle id="SVGID_1_" cx="42.1" cy="63.7" r="72.3"/>
	</defs>
	<clipPath id="SVGID_2_">
		<use xlink:href="#SVGID_1_"  style="overflow:visible;"/>
	</clipPath>
	<circle class="st0" cx="42.1" cy="66.6" r="72.3"/>
	<g class="st1">
		<path class="st2" d="M16.4,39.9c-0.1,0-0.3,0-0.4,0c-3.2,0-5.8,3.8-5.8,8.5c0,4.5,2.4,8.2,5.5,8.4c1.7,10.9,7.8,18.7,26.4,18.7
			c18.6,0,24.7-7.8,26.4-18.7c0.2,0,0.4,0,0.6,0c3.2,0,5.8-3.8,5.8-8.5c0-4.7-2.6-8.5-5.8-8.5"/>
		<path class="st2" d="M14.7,40c-0.8-3.7,0.1-15.3,10.2-23.9c0.2-0.2,0.6-0.4,0.6-0.4L27,7.9l9.8,5.6l1.6-6.4c0,0,4,4.5,10.6,8
			c0.7,0.4,5.8-6.5,5.8-6.5s-0.1,8.2,0.6,8.6c0.3,0.1,2.8,1.6,3.1,1.7c4.8,2.6,6.6,3.9,10,9.8c4.1,7.1,2.5,11.7,2.5,11.7"/>
		<path class="st2" d="M64.7,90.3c-5.1-2.3-10.2-3.7-12.6-3.7c0,0,0,0-0.4,0c0,0-2.2,7.4-8.9,7.4c-6.6,0-10.1-7.5-10.1-7.4
			c-0.4,0-0.6,0-0.6,0c-2.4,0-7.5,1.4-12.6,3.7c-7,3.2-12.9,8.2-14,13.6C3.8,113,0.4,139,0.4,139h41.8h42.6c0,0-3.9-25-6-35.1
			C77.5,98.5,71.7,93.5,64.7,90.3z"/>
	</g>
</g>
</svg>
