<?xml version="1.0" encoding="utf-8"?>
<!-- Generator: Adobe Illustrator 19.2.0, SVG Export Plug-In . SVG Version: 6.00 Build 0)  -->
<svg version="1.1" id="Ebene_1" xmlns="http://www.w3.org/2000/svg" xmlns:xlink="http://www.w3.org/1999/xlink" x="0px" y="0px"
	 viewBox="0 0 84.93 129.11" style="enable-background:new 0 0 84.93 129.11;" xml:space="preserve">
<style type="text/css">
	.st0{display:none;clip-path:url(#SVGID_2_);fill:none;}
	.st1{clip-path:url(#SVGID_2_);}
	.st2{fill:none;stroke:#D0418F;stroke-width:4;stroke-miterlimit:10;}
</style>
<g>
	<defs>
		<circle id="SVGID_1_" cx="42.63" cy="60.72" r="73.97"/>
	</defs>
	<clipPath id="SVGID_2_">
		<use xlink:href="#SVGID_1_"  style="overflow:visible;"/>
	</clipPath>
	<circle class="st0" cx="42.63" cy="63.72" r="73.97"/>
	<g class="st1">
		<path class="st2" d="M16.29,39.33c-0.14-0.01-0.29-0.02-0.43-0.02c-3.28,0-5.95,3.87-5.95,8.65c0,4.6,2.47,8.37,5.59,8.64
			c1.72,11.11,7.96,19.14,27.03,19.14c19.06,0,25.31-8.02,27.03-19.12c0.19,0.03,0.38,0.04,0.57,0.04c3.28,0,5.95-3.88,5.95-8.66
			c0-4.78-2.66-8.65-5.95-8.65c-0.44,0-0.87,0.07-1.29,0.21"/>
		<path class="st2" d="M16.29,39.33c-0.43-0.02-0.72-0.01-1.71,0.18c-0.83-3.82,0.1-15.62,10.46-24.4c0.18-0.16,0.64-0.44,0.64-0.44
			l1.47-8.02l10,5.75l1.63-6.54c0,0,4.05,4.56,10.81,8.17c0.68,0.36,5.93-6.63,5.93-6.63s-0.08,8.4,0.62,8.75
			c0.29,0.14,2.85,1.6,3.12,1.75c4.89,2.67,6.71,3.94,10.21,9.99c4.2,7.25,2.59,11.94,2.59,11.94s-1.22-0.86-3.23-0.27
			c-0.41,0.05-10.06-2.79-14.57-4.6c-0.34-0.14-1.02-0.45-1.02-0.45l0.58,7.73L40.55,32.17c0,0-0.87-0.14-1.3-0.17
			C29.86,31.35,27.16,41.56,16.29,39.33z"/>
		<path class="st2" d="M65.7,87.88c-5.22-2.38-10.43-3.8-12.85-3.8c0,0-0.01-0.03-0.38-0.04c0-0.02-2.29,7.59-9.08,7.59
			c-6.79,0-10.35-7.64-10.35-7.59c-0.42-0.01-0.63,0.04-0.63,0.04c-2.42,0-7.64,1.43-12.85,3.8c-7.15,3.26-14.3,8.32-14.3,13.95
			c0,9.75,0,35.86,0,35.86h37.37H80c0,0,0-26.11,0-35.86C80,96.19,72.85,91.14,65.7,87.88z"/>
	</g>
</g>
</svg>
