<?xml version="1.0" encoding="utf-8"?>
<!-- Generator: Adobe Illustrator 19.2.0, SVG Export Plug-In . SVG Version: 6.00 Build 0)  -->
<svg version="1.1" id="Ebene_1" xmlns="http://www.w3.org/2000/svg" xmlns:xlink="http://www.w3.org/1999/xlink" x="0px" y="0px"
	 viewBox="0 0 95 86.3" style="enable-background:new 0 0 95 86.3;" xml:space="preserve">
<style type="text/css">
	.st0{fill:none;stroke:#FF00B4;stroke-width:1.5;stroke-miterlimit:10;}
</style>
<title>figure_ideas</title>
<path class="st0" d="M64,42.2c0.7,0.2,1.1,0.9,0.9,1.5c-0.2,0.7-0.9,1.1-1.5,0.9c-0.5-0.1-0.9-0.6-0.9-1.2
	C62.5,42.7,63.2,42.1,64,42.2z"/>
<path class="st0" d="M58.5,44.2c0.4,0.2,0.7,0.7,0.5,1.1c-0.2,0.4-0.7,0.7-1.1,0.5c-0.3-0.1-0.5-0.5-0.5-0.8
	C57.4,44.5,57.9,44.1,58.5,44.2z"/>
<path class="st0" d="M48.4,34.2c0.5,0,1,0.4,1,1c0,0.5-0.4,1-1,1c-0.5,0-1-0.4-1-1C47.5,34.7,47.9,34.2,48.4,34.2z"/>
<path class="st0" d="M51.6,29.5c0.8,0.2,1.2,1,1.1,1.7c-0.2,0.8-1,1.2-1.7,1.1c-0.6-0.2-1.1-0.7-1.1-1.4
	C49.9,30,50.7,29.4,51.6,29.5z"/>
<path class="st0" d="M36.7,33.5c0.5,0.2,0.8,0.8,0.6,1.3c-0.2,0.5-0.8,0.8-1.3,0.6c-0.4-0.1-0.7-0.5-0.7-1
	C35.4,33.8,36,33.4,36.7,33.5z"/>
<path class="st0" d="M34.3,24.7c0.8,0.2,1.2,1,1,1.7c-0.2,0.8-1,1.2-1.7,1c-0.6-0.2-1.1-0.7-1.1-1.4C32.6,25.2,33.4,24.6,34.3,24.7z
	"/>
<path class="st0" d="M29.6,44.2c0.5,0,1,0.4,1,1c0,0.5-0.4,1-1,1s-1-0.4-1-1C28.6,44.6,29,44.2,29.6,44.2z"/>
<path class="st0" d="M24.7,42.6c1.1,0,2,0.5,2,1.2s-0.9,1.2-2,1.2c-1.1,0-2-0.5-2-1.2S23.6,42.6,24.7,42.6z"/>
<path class="st0" d="M67.5,38.6c0.9-2.4,3-4.1,5.5-4.4c0.8,0,1.7,0.3,2.4,0.8c0.6-1,1.6-1.7,2.7-2c1.1-0.2,2.2-0.1,3.1,0.4
	c0.5-1.4,2-2.3,3.5-2c1.6,0,2.9,1.2,3.1,2.8c0,0,1.2-1.6,3.1,0c2,1.6,0.4,5.6,0.4,5.6s2.8,1.9,1.6,4.8c-1.2,2.9-1.7,4.1-3.1,4.8
	C88.5,50.1,86,49,86,49s-0.4,2.1-3.1,2c-1.6-0.1-3.2-0.8-4.3-2c0,0-0.4,1.9-3.1,1.2c-2.7-0.7-3.1-5.2-3.1-5.2s-3.5,0.1-4.3-2
	C67.1,41,66.4,42.1,67.5,38.6z"/>
<path class="st0" d="M15.2,10.8l3.5-2.4l-2-2.8h3.9V2.4l3.1,2L25.4,2l2.4,2.4l2-2l1.2,3.2l3.5-1.2V8H38l-2.3,2.8l2,2.4L33.7,14v3.2
	L30.6,16l-2.4,2.4L25.5,16l-3.1,1.6l-0.8-2.4H18l0.8-3.2l-3.1-0.8L15.2,10.8z"/>
<path class="st0" d="M61.6,6.4c8.5,0,15.3,5.1,15.3,11.3s-6.8,11.3-15.3,11.3S46.3,24,46.3,17.7S53.2,6.4,61.6,6.4z"/>
<path class="st0" d="M12.1,30.7c5.9,0,10.6,2.9,10.6,6.4s-4.8,6.4-10.6,6.4S1.5,40.6,1.5,37S6.2,30.7,12.1,30.7z"/>
<path class="st0" d="M14.8,85.2l16.9-18.7c0.6-0.4,1.2-0.7,2-0.8h21.6c0.7,0.1,1.4,0.4,2,0.8l16.5,18.7h-11l-5-4.1l-0.1,4.1H31.3
	v-4.1l-5.1,4.1H14.8z"/>
<path class="st0" d="M44.7,38.2c6.4-0.1,11.6,5,11.7,11.4c0.1,6.4-5,11.6-11.4,11.7c-6.4,0.1-11.6-5-11.7-11.4c0,0,0-0.1,0-0.1
	C33.3,43.4,38.4,38.3,44.7,38.2z"/>
</svg>
