<svg id="Ebene_4" data-name="Ebene 4" xmlns="http://www.w3.org/2000/svg" viewBox="0 0 200.39 280"><defs><style>.cls-1{fill:none;stroke:#fcce14;stroke-miterlimit:10;stroke-width:4px;}</style></defs><title>figure_upload</title><path class="cls-1" d="M50.66,189.85s-12.07,1.1-20.1,6.9S18,205.48,12.22,215.59C8,222.83,7.84,234.73,7.84,234.73l14.48-13.1S15.83,233.8,12.49,245c-3.85,12.93-2.33,34.82-2.33,34.82s21.64-3.51,32-9.13c14.08-7.65,24.63-21.08,24.63-21.08s-1.75,8.71-4.6,14-7.55,13-7.55,13,14.79-5.6,21.52-17.15,12.29-23.59,11.08-36.08c-0.92-9.57-2.35-12.67-2.35-12.67a29.81,29.81,0,0,1-6.64.28c-4-.46-4.58-0.8-4.58-0.8S69.76,214.42,62.6,221c-5,4.64-13.89,7.23-13.89,7.23a35.53,35.53,0,0,1,.55-15.2c2.15-7.83,5.61-16.37,5.61-16.37a9.33,9.33,0,0,0-1.05-1.41A47.58,47.58,0,0,1,50.66,189.85Z" transform="translate(-5.76 -2.17)"/><path class="cls-1" d="M54,200.57c-4.26,1.77-9.18,5-16.07,20.1C25.58,247.76,27.59,259,27.59,259s15.15-5.25,24.87-15c9.35-9.34,12.48-14.49,15.75-20.52,3.76-6.92,2.53-11.61,2.53-11.61" transform="translate(-5.76 -2.17)"/><path class="cls-1" d="M201.25,4.58c-2.09-1.59-13.7,1.78-21.82,5S156.5,21.72,156.5,21.72s11.83,11.79,19.65,18.85c8.35,7.53,14.62,12,14.62,12A190.86,190.86,0,0,1,171,41.26c-9.06-6-19.9-15.2-20.34-14.86-18.31,14.09-29.88,26.83-40.49,41.71-11.81,16.56-29.06,51-36.1,69.39-4.45,11.63-15.34,42.33-15.34,42.33a40.74,40.74,0,0,0,2.24,4.25,25.29,25.29,0,0,0,2.3,3.05s8.78-18.7,19-32,19-9.25,19-9.25S93.48,149.83,85.3,161c-6.69,9.17-16,24.86-18.92,31.22-6.13,13.31-7.69,20-7.69,20s5.31-4.49,8.51-8,7.71-7.44,7.71-7.44,6.56,3.91,12.2,2.78c3.47-.7,9.51-5.95,9.51-5.95s6,11.17,5.19,24.27c-0.53,8.48-4,19-4,19a52.12,52.12,0,0,0,18.16-12.19c10.26-11.15,14.89-19,18.34-27.74,5.26-13.37,2-28.19,1.52-29.31,0,0-7.54,4.42-13.9,8.94s-10.58,5.67-10.58,5.67,34.68-30.66,54.9-59.23c22.18-31.32,30.32-51.52,33.93-65.57a117,117,0,0,0,4-32.46C203.9,14.6,203.34,6.17,201.25,4.58Z" transform="translate(-5.76 -2.17)"/><path class="cls-1" d="M68.62,124.21l-8.09,23.87c-1,2.37-6.42,20.78-6.42,20.78S45,168.37,37,171.65s-19.14,11.71-19.14,11.71-1.58-21.73,13.52-39.25c11-12.78,17-13.65,22.29-16.06S68.62,124.21,68.62,124.21Z" transform="translate(-5.76 -2.17)"/></svg>