<?xml version="1.0" encoding="utf-8"?>
<!-- Generator: Adobe Illustrator 19.2.0, SVG Export Plug-In . SVG Version: 6.00 Build 0)  -->
<svg version="1.1" id="Isolationsmodus" xmlns="http://www.w3.org/2000/svg" xmlns:xlink="http://www.w3.org/1999/xlink" x="0px"
	 y="0px" viewBox="0 0 99.9 102.3" style="enable-background:new 0 0 99.9 102.3;" xml:space="preserve">
<style type="text/css">
	.st0{fill:#91E31C;}
	.st1{fill:none;stroke:#91E31C;stroke-width:2;stroke-miterlimit:10;}
</style>
<title>figure_oktonaut</title>
<path class="st0" d="M40.6,22.4c-2.7-2.8-5.3-5.8-8-8.6c-1.9-2-4.5-3.1-7.2-3.2c-4-0.1-7.9,1.4-10.8,4.1c-5.3,4.8-6.3,12.8-2.1,17.6
	c2.6,3,5.5,5.8,8.2,8.8c1.4,1.5,2.7,1.5,4.1,0.1c5.2-4.9,10.4-9.7,15.6-14.6C41.9,25.3,42.1,23.9,40.6,22.4z M20.6,31.6l-2.3-2.5
	c-2.6-2.8-3.1-4.8-0.6-8.3c3.1,3.7,6.3,7.3,9.2,10.7C24,34.1,23.3,34.6,20.6,31.6z"/>
<path class="st0" d="M40.4,52.4c-3.3-1.3-5.6-3.4-5.6-7.1s2-6.2,5.1-7.8c1-0.4,2.1-0.5,3-0.2c2.2,0.8,4.7,1.6,6.4,3.2s4,2,6.1,2.8
	c4.3,1.8,6.6,6.6,5.2,11.1c-1.2,4.5-5,7.8-9.6,8.4C45.2,63.7,40.7,59.3,40.4,52.4z M51.8,47c-3.2,0-7,3.5-7,6.6
	c0.2,2.6,2.3,4.7,4.9,4.9c3,0,6.8-3.6,6.8-6.6C56.6,49.3,54.5,47.1,51.8,47z M46.7,43.3c-0.1-1.5-1.3-2.6-2.8-2.6
	c-1.9,0-4.8,2.5-4.7,4.4c-0.1,1.5,1.1,2.8,2.7,2.9c0.1,0,0.1,0,0.2,0C43.9,48.1,46.6,45.5,46.7,43.3L46.7,43.3z"/>
<path class="st1" d="M14.3,46.8c0,0-5-5.5-10.5-12C-1.4,28.6,1.4,14.5,9.6,8c7.2-5.8,18-8.7,24-3.5c5.8,5,14.8,12.8,14.8,12.8
	s5.2-3.5,15.8-0.8C69.8,18.1,85.9,28,85.9,28s5.6,3.7,1.1,11.4c-3.5,6-9.8,3.2-9.8,3.2L66,38.1c0,0,9.6,9.8,21,15
	c6.4,2.9,9,6.2,9,6.2s4.5,4.5,0.2,12c-5.3,9.4-12,5.8-12,5.8l-19.8-9l8.5,17.8c0,0,3.4,7-6,12.8c-6.5,4-11,0.8-11,0.8
	s-3-1.8-10.8-14.5C44,82.7,34.6,66.6,34.6,66.6s8.5,14.3,2.8,19.8c-3,2.8-8.7,4.4-12,2c-3.8-2.8-5.1-9.7-9.2-19.8
	C10.3,54.6,14.3,46.8,14.3,46.8z"/>
</svg>
