<svg id="Ebene_2" data-name="Ebene 2" xmlns="http://www.w3.org/2000/svg" viewBox="0 0 360.33 272.45"><defs><style>.cls-1{fill:#13fffd;}.cls-2{fill:none;stroke:#13fffd;stroke-miterlimit:10;stroke-width:5px;}</style></defs><title>figure_camera</title><circle class="cls-1" cx="137.84" cy="61.93" r="9.79"/><circle class="cls-1" cx="263.03" cy="62.53" r="9.79"/><path class="cls-2" d="M263.39,3.22A58.83,58.83,0,1,0,322.21,62,58.83,58.83,0,0,0,263.39,3.22Zm0.36,83.6a24.57,24.57,0,1,1,24.57-24.57A24.57,24.57,0,0,1,263.75,86.82Z" transform="translate(-1.17 -0.72)"/><path class="cls-2" d="M138,3.22A58.83,58.83,0,1,0,196.84,62,58.83,58.83,0,0,0,138,3.22Zm0.36,83.6a24.57,24.57,0,1,1,24.57-24.57A24.57,24.57,0,0,1,138.38,86.82Z" transform="translate(-1.17 -0.72)"/><rect class="cls-2" x="110.17" y="136.28" width="193.67" height="133.67" rx="25" ry="25"/><path class="cls-2" d="M94.67,151.5H83.83a8,8,0,0,0-8,8V165H43l-6.67-4H3.67v41.33H36.33l6.67-3.5H75.83v11.5H49.67v3.17H39.5v27.17H49.67v3.17H75.83v1.67a8,8,0,0,0,8,8h11Z" transform="translate(-1.17 -0.72)"/><path class="cls-2" d="M353.33,145a5.68,5.68,0,0,0-5.67,5.67v1.67H321v31.33h26.67v2a5.67,5.67,0,1,0,11.33,0v-35A5.68,5.68,0,0,0,353.33,145Z" transform="translate(-1.17 -0.72)"/></svg>