<?xml version="1.0" encoding="utf-8"?>
<!-- Generator: Adobe Illustrator 19.2.0, SVG Export Plug-In . SVG Version: 6.00 Build 0)  -->
<svg version="1.1" id="Ebene_2" xmlns="http://www.w3.org/2000/svg" xmlns:xlink="http://www.w3.org/1999/xlink" x="0px" y="0px"
	 viewBox="0 0 369.7 276.9" style="enable-background:new 0 0 369.7 276.9;" xml:space="preserve">
<style type="text/css">
	.st0{fill:#13FFFD;}
	.st1{fill:none;stroke:#13FFFD;stroke-width:5;stroke-miterlimit:10;}
	.st2{fill:none;stroke:#13FFFD;stroke-width:7.5;stroke-miterlimit:10;}
</style>
<title>figure_camera</title>
<circle class="st0" cx="142.5" cy="61.9" r="9.8"/>
<circle class="st0" cx="267.7" cy="62.5" r="9.8"/>
<path class="st1" d="M266.9,2.5c-32.5,0-58.8,26.3-58.8,58.8s26.3,58.8,58.8,58.8s58.8-26.3,58.8-58.8c0,0,0,0,0-0.1
	C325.7,28.8,299.4,2.5,266.9,2.5z M267.2,86.1c-13.6,0-24.6-11-24.6-24.6s11-24.6,24.6-24.6s24.6,11,24.6,24.6
	S280.8,86.1,267.2,86.1L267.2,86.1z"/>
<path class="st1" d="M141.5,2.5c-32.5,0-58.8,26.3-58.8,58.8s26.3,58.8,58.8,58.8s58.8-26.3,58.8-58.8l0,0
	C200.3,28.8,174,2.5,141.5,2.5z M141.9,86.1c-13.6,0-24.6-11-24.6-24.6s11-24.6,24.6-24.6s24.6,11,24.6,24.6l0,0
	C166.4,75.1,155.4,86.1,141.9,86.1L141.9,86.1z"/>
<path class="st2" d="M139.8,136.3h143.7c13.8,0,25,11.2,25,25V245c0,13.8-11.2,25-25,25H139.8c-13.8,0-25-11.2-25-25v-83.7
	C114.8,147.5,126,136.3,139.8,136.3z"/>
<path class="st2" d="M98.2,150.8H87.3c-4.4,0-8,3.6-8,8v5.5H46.5l-6.7-4H7.2v41.3h32.7l6.7-3.5h32.8v11.5H53.2v3.2H43V240h10.2v3.2
	h26.2v1.7c0,4.4,3.6,8,8,8h11L98.2,150.8z"/>
<path class="st2" d="M356.8,144.3c-3.1,0-5.7,2.5-5.7,5.7v1.7h-26.7V183h26.7v2c-0.1,3.1,2.3,5.8,5.4,5.9c3.1,0.1,5.8-2.3,5.9-5.4
	c0-0.2,0-0.3,0-0.5v-35C362.5,146.8,360,144.3,356.8,144.3z"/>
</svg>
