<svg id="Isolationsmodus" xmlns="http://www.w3.org/2000/svg" viewBox="0 0 98.48 100.22"><defs><style>.cls-1{fill:none;stroke:#91e31c;stroke-miterlimit:10;stroke-width:1.5px;}.cls-2{fill:#91e31c;}</style></defs><title>figure_oktonaut</title><path class="cls-1" d="M25.8,9.73A10.35,10.35,0,0,1,33,12.95c2.7,2.83,5.31,5.76,8,8.59,1.49,1.56,1.32,2.9-.19,4.29Q33,33.09,25.2,40.39c-1.45,1.36-2.75,1.36-4.11-.12-2.71-2.94-5.52-5.78-8.16-8.78C8.7,26.67,9.7,18.66,15,13.85A15.47,15.47,0,0,1,25.8,9.73Z" transform="translate(-0.85 -0.28)"/><path class="cls-1" d="M18.17,20c-2.5,3.46-1.93,5.51.64,8.28l2.26,2.46c2.71,3,3.36,2.56,6.32-.07C24.48,27.3,21.27,23.69,18.17,20Z" transform="translate(-0.85 -0.28)"/><path class="cls-2" d="M40.84,51.58c-3.27-1.33-5.59-3.43-5.57-7.1s2-6.17,5.08-7.82a4.09,4.09,0,0,1,3.05-.15c2.22,0.85,4.67,1.64,6.38,3.18s4,2,6.06,2.85A9,9,0,0,1,61,53.6,11.56,11.56,0,0,1,51.4,62C45.68,62.92,41.16,58.45,40.84,51.58Zm11.44-5.41c-3.2-.05-7,3.55-7,6.64a5.27,5.27,0,0,0,4.94,4.91c3.05,0,6.75-3.57,6.85-6.59A5.06,5.06,0,0,0,52.28,46.17Zm-5.17-3.7a2.74,2.74,0,0,0-2.84-2.59c-1.93-.05-4.78,2.53-4.69,4.39a2.78,2.78,0,0,0,2.85,2.9C44.34,47.24,47,44.64,47.1,42.47Z" transform="translate(-0.85 -0.28)"/><path class="cls-1" d="M14.75,46s-5-5.5-10.5-12C-1,27.79,1.87,13.73,10,7.25c7.24-5.77,18-8.74,24-3.5,5.75,5,14.75,12.75,14.75,12.75S54,13,64.5,15.75c5.75,1.5,21.88,11.38,21.88,11.38S92,30.83,87.5,38.5c-3.5,6-9.75,3.25-9.75,3.25L66.5,37.25s9.59,9.8,21,15c6.39,2.91,9,6.25,9,6.25s4.5,4.5.25,12c-5.33,9.41-12,5.75-12,5.75L65,67.25,73.5,85s3.41,7-6,12.75c-6.5,4-11,.75-11,0.75s-3-1.75-10.75-14.5C44.45,81.86,35,65.75,35,65.75s8.5,14.32,2.75,19.75c-3,2.84-8.68,4.43-12,2-3.75-2.75-5.1-9.65-9.25-19.75C10.75,53.75,14.75,46,14.75,46Z" transform="translate(-0.85 -0.28)"/></svg>