<svg id="Ebene_1" data-name="Ebene 1" xmlns="http://www.w3.org/2000/svg" viewBox="0 0 95 86.29"><defs><style>.cls-1{fill:none;stroke:#ff00b4;stroke-miterlimit:10;fill-rule:evenodd;}</style></defs><title>figure_ideas</title><path class="cls-1" d="M437.94,295.07a1.27,1.27,0,1,1-1.59,1.23A1.45,1.45,0,0,1,437.94,295.07Z" transform="translate(-373.5 -253.21)"/><path class="cls-1" d="M432.32,297.11a0.88,0.88,0,1,1-1.21.81A1.07,1.07,0,0,1,432.32,297.11Z" transform="translate(-373.5 -253.21)"/><path class="cls-1" d="M422.05,286.93a1,1,0,1,1-1,1A1,1,0,0,1,422.05,286.93Z" transform="translate(-373.5 -253.21)"/><path class="cls-1" d="M425.28,282.06a1.47,1.47,0,1,1-1.81,1.43A1.65,1.65,0,0,1,425.28,282.06Z" transform="translate(-373.5 -253.21)"/><path class="cls-1" d="M410,286.15a1.06,1.06,0,1,1-1.41,1A1.26,1.26,0,0,1,410,286.15Z" transform="translate(-373.5 -253.21)"/><path class="cls-1" d="M407.57,277.19a1.46,1.46,0,1,1-1.82,1.41A1.66,1.66,0,0,1,407.57,277.19Z" transform="translate(-373.5 -253.21)"/><path class="cls-1" d="M402.75,297.11a1,1,0,1,1-1,1A1,1,0,0,1,402.75,297.11Z" transform="translate(-373.5 -253.21)"/><path class="cls-1" d="M397.74,295.47c1.11,0,2,.55,2,1.23s-0.9,1.23-2,1.23-2-.55-2-1.23S396.64,295.47,397.74,295.47Z" transform="translate(-373.5 -253.21)"/><path class="cls-1" d="M441.56,291.42a6.81,6.81,0,0,1,5.63-4.47,4.47,4.47,0,0,1,2.41.81,4.26,4.26,0,0,1,2.81-2,5.15,5.15,0,0,1,3.22.41,3.21,3.21,0,0,1,3.62-2,3.36,3.36,0,0,1,3.22,2.85s1.19-1.64,3.22,0,0.4,5.69.4,5.69,2.82,1.92,1.61,4.88-1.77,4.24-3.22,4.88-4-.41-4-0.41-0.39,2.14-3.22,2a6.35,6.35,0,0,1-4.42-2s-0.43,1.94-3.22,1.22-3.22-5.29-3.22-5.29-3.59.12-4.42-2S440.4,295,441.56,291.42Z" transform="translate(-373.5 -253.21)"/><path class="cls-1" d="M388.08,262.95l3.62-2.44-2-2.85h4v-3.25l3.22,2,1.61-2.44,2.41,2.44,2-2,1.21,3.25,3.62-1.22v3.66h3.62L409,262.95l2,2.44-4,.81v3.25l-3.22-1.22-2.41,2.44-2.81-2.44-3.22,1.63-0.8-2.44h-3.62l0.8-3.25-3.22-.81Z" transform="translate(-373.5 -253.21)"/><path class="cls-1" d="M435.54,258.48c8.67,0,15.69,5.19,15.69,11.58s-7,11.58-15.69,11.58-15.69-5.19-15.69-11.58S426.87,258.48,435.54,258.48Z" transform="translate(-373.5 -253.21)"/><path class="cls-1" d="M384.87,283.27c6,0,10.87,2.92,10.87,6.52s-4.87,6.52-10.87,6.52S374,293.39,374,289.79,378.87,283.27,384.87,283.27Z" transform="translate(-373.5 -253.21)"/><path class="cls-1" d="M387.67,339L405,319.89a4,4,0,0,1,2-.81h22.12a5.9,5.9,0,0,1,2,.81L448,339H436.73l-5.16-4.16L431.51,339H404.56v-4.16L399.34,339H387.67Z" transform="translate(-373.5 -253.21)"/><path class="cls-1" d="M418.25,291a11.79,11.79,0,1,1-11.66,11.79A11.73,11.73,0,0,1,418.25,291Z" transform="translate(-373.5 -253.21)"/></svg>