<?xml version="1.0" encoding="utf-8"?>
<!-- Generator: Adobe Illustrator 19.2.0, SVG Export Plug-In . SVG Version: 6.00 Build 0)  -->
<svg version="1.1" id="Ebene_4" xmlns="http://www.w3.org/2000/svg" xmlns:xlink="http://www.w3.org/1999/xlink" x="0px" y="0px"
	 viewBox="0 0 207 284.5" style="enable-background:new 0 0 207 284.5;" xml:space="preserve">
<style type="text/css">
	.st0{fill:none;stroke:#FCCE14;stroke-width:3;stroke-miterlimit:10;}
	.st1{fill:none;stroke:#FCCE14;stroke-width:6;stroke-miterlimit:10;}
</style>
<title>figure_upload</title>
<path class="st0" d="M47.4,190.8c0,0-12.1,1.1-20.1,6.9S14.7,206.4,9,216.5c-4.2,7.2-4.4,19.1-4.4,19.1l14.5-13.1
	c0,0-6.5,12.2-9.8,23.4c-3.9,12.9-2.3,34.8-2.3,34.8s21.6-3.5,32-9.1c14.1-7.6,24.6-21.1,24.6-21.1s-1.8,8.7-4.6,14s-7.5,13-7.5,13
	s14.8-5.6,21.5-17.1c6.7-11.5,12.3-23.6,11.1-36.1c-0.9-9.6-2.3-12.7-2.3-12.7c-2.2,0.3-4.4,0.4-6.6,0.3c-4-0.5-4.6-0.8-4.6-0.8
	s-3.9,4.2-11.1,10.8c-5,4.6-13.9,7.2-13.9,7.2c-0.9-5-0.7-10.2,0.6-15.2c2.2-7.8,5.6-16.4,5.6-16.4c-0.3-0.5-0.7-1-1.1-1.4
	C49.4,194.5,48.3,192.7,47.4,190.8z"/>
<path class="st0" d="M50.7,201.5c-4.3,1.8-9.2,5-16.1,20.1c-12.3,27.1-10.3,38.3-10.3,38.3s15.1-5.2,24.9-15
	c9.3-9.3,12.5-14.5,15.8-20.5c3.8-6.9,2.5-11.6,2.5-11.6"/>
<path class="st1" d="M198,5.5c-2.1-1.6-13.7,1.8-21.8,5s-22.9,12.1-22.9,12.1s11.8,11.8,19.6,18.9c8.4,7.5,14.6,12,14.6,12
	c-6.8-3.4-13.4-7.1-19.8-11.3c-9.1-6-19.9-15.2-20.3-14.9c-18.3,14.1-29.9,26.8-40.5,41.7c-11.8,16.6-29.1,51-36.1,69.4
	c-4.4,11.6-15.3,42.3-15.3,42.3c0.7,1.5,1.4,2.9,2.2,4.2c0.7,1.1,1.5,2.1,2.3,3.1c0,0,8.8-18.7,19-32s19-9.2,19-9.2
	s-7.8,3.9-16,15.1c-6.7,9.2-16,24.9-18.9,31.2c-6.1,13.3-7.7,20-7.7,20s5.3-4.5,8.5-8s7.7-7.4,7.7-7.4s6.6,3.9,12.2,2.8
	c3.5-0.7,9.5-5.9,9.5-5.9s6,11.2,5.2,24.3c-0.5,8.5-4,19-4,19c6.8-2.7,13-6.9,18.2-12.2c10.3-11.1,14.9-19,18.3-27.7
	c5.3-13.4,2-28.2,1.5-29.3c0,0-7.5,4.4-13.9,8.9s-10.6,5.7-10.6,5.7s34.7-30.7,54.9-59.2c22.2-31.3,30.3-51.5,33.9-65.6
	c2.8-10.6,4.2-21.5,4-32.5C200.6,15.5,200.1,7.1,198,5.5z"/>
<path class="st1" d="M65.4,125.1L57.3,149c-1,2.4-6.4,20.8-6.4,20.8s-9.1-0.5-17.1,2.8s-19.1,11.7-19.1,11.7S13,162.6,28.1,145
	c11-12.8,17-13.6,22.3-16.1S65.4,125.1,65.4,125.1z"/>
</svg>
