<svg id="Ebene_1" data-name="Ebene 1" xmlns="http://www.w3.org/2000/svg" viewBox="0 0 195.7 199.35"><defs><style>.cls-1,.cls-2{fill:#fcce14;}.cls-1,.cls-3{stroke:#fcce14;stroke-miterlimit:10;}.cls-1{stroke-width:0.5px;}.cls-3{fill:none;stroke-width:2px;}</style></defs><title>heinricha</title><g id="Ebene_1-2" data-name="Ebene 1"><g id="Isolationsmodus"><path class="cls-1" d="M49.1,18.2a20.86,20.86,0,0,1,14.3,6.4c5.4,5.6,10.6,11.5,16,17.1,3,3.1,2.6,5.8-.4,8.6-10.4,9.6-20.8,19.3-31.1,29C45,82,42.4,82,39.7,79.1c-5.4-5.9-11-11.5-16.3-17.5C14.9,52,16.9,36,27.6,26.4A30.46,30.46,0,0,1,49.1,18.2ZM32.7,38c-3.6,7.8-3,11.6,2.1,17.1,1.5,1.6,3,3.3,4.5,4.9,5.4,6,6.5,5.9,11.2-1.1Z" transform="translate(0.25 0.26)"/><path class="cls-2" d="M79.1,101.7C72.6,99,67.9,94.8,68,87.5s4-12.3,10.1-15.6a8.06,8.06,0,0,1,6.1-.3c4.4,1.7,9.3,3.3,12.7,6.3,3.7,3.3,7.9,4,12.1,5.7a17.88,17.88,0,0,1,10.2,22.1c-3,9.3-9.5,15-19.1,16.7C88.8,124.3,79.8,115.4,79.1,101.7Zm22.8-10.8c-6.4-.1-14,7.1-14,13.2,0,4.9,4.9,9.8,9.9,9.8,6.1,0,13.5-7.1,13.7-13.2,0.2-4.9-4.5-9.7-9.6-9.8h0ZM91.6,83.5c-0.4-2.8-2-5.1-5.7-5.2-3.9-.1-9.5,5-9.4,8.8,0.2,3.3,2.1,5.7,5.7,5.8C86.1,93,91.5,87.8,91.6,83.5Z" transform="translate(0.25 0.26)"/><path class="cls-3" d="M27,90.5s-10-11-21-24C-4.4,54.2,1.3,26.1,17.5,13.2,32,1.6,53.4-4.3,65.5,6.2,77,16.2,95,31.7,95,31.7s10.4-7,31.5-1.5c11.5,3,46.9,25.5,46.9,25.5s7.9,4.7-1,20c-7,12-19.5,6.5-19.5,6.5l-22.5-9s19.1,19.6,41.9,30c12.8,5.8,18,12.5,18,12.5s9,9,.5,24c-10.6,18.8-24,11.5-24,11.5l-39.4-18,17,35.4s6.8,13.9-12,25.5c-13,8-22,1.5-22,1.5s-6-3.5-21.5-29c-2.6-4.3-21.5-36.4-21.5-36.4s17,28.6,5.5,39.4c-6,5.7-17.3,8.9-24,4-7.5-5.5-10.2-19.3-18.5-39.4C19,106,27,90.5,27,90.5Z" transform="translate(0.25 0.26)"/></g></g></svg>