<?xml version="1.0" encoding="utf-8"?>
<!-- Generator: Adobe Illustrator 19.2.0, SVG Export Plug-In . SVG Version: 6.00 Build 0)  -->
<svg version="1.1" xmlns="http://www.w3.org/2000/svg" xmlns:xlink="http://www.w3.org/1999/xlink" x="0px" y="0px"
	 viewBox="0 0 196.7 198.6" style="enable-background:new 0 0 196.7 198.6;" xml:space="preserve">
<style type="text/css">
	.st0{display:none;}
	.st1{display:inline;stroke:#FFFFFF;stroke-miterlimit:10;}
	.st2{fill:#FFFFFF;stroke:#FFFFFF;stroke-width:0.5;stroke-miterlimit:10;}
	.st3{fill:#FFFFFF;}
	.st4{fill:none;stroke:#FFFFFF;stroke-width:2;stroke-miterlimit:10;}
</style>
<g id="Ebene_2_1_" class="st0">
	<rect class="st1" width="196.7" height="198.6"/>
</g>
<g id="Ebene_1">
	<g id="Ebene_2">
	</g>
	<g id="Isolationsmodus">
		<title>heinrich</title>
		<path class="st2" d="M49.1,18.2c5.4,0.2,10.6,2.5,14.3,6.4c5.4,5.6,10.6,11.5,16,17.1c3,3.1,2.6,5.8-0.4,8.6
			c-10.4,9.6-20.8,19.3-31.1,29C45,82,42.4,82,39.7,79.1c-5.4-5.9-11-11.5-16.3-17.5C14.9,52,16.9,36,27.6,26.4
			C33.4,21,41.1,18,49.1,18.2z M32.7,38c-3.6,7.8-3,11.6,2.1,17.1c1.5,1.6,3,3.3,4.5,4.9c5.4,6,6.5,5.9,11.2-1.1L32.7,38z"/>
		<path class="st3" d="M79.1,101.7C72.6,99,67.9,94.8,68,87.5s4-12.3,10.1-15.6c1.9-0.9,4.1-1,6.1-0.3c4.4,1.7,9.3,3.3,12.7,6.3
			c3.7,3.3,7.9,4,12.1,5.7c8.7,3.6,13.1,13.2,10.2,22.1c-3,9.3-9.5,15-19.1,16.7C88.8,124.3,79.8,115.4,79.1,101.7z M101.9,90.9
			c-6.4-0.1-14,7.1-14,13.2c0,4.9,4.9,9.8,9.9,9.8c6.1,0,13.5-7.1,13.7-13.2C111.7,95.8,107,91,101.9,90.9L101.9,90.9z M91.6,83.5
			c-0.4-2.8-2-5.1-5.7-5.2c-3.9-0.1-9.5,5-9.4,8.8c0.2,3.3,2.1,5.7,5.7,5.8C86.1,93,91.5,87.8,91.6,83.5z"/>
		<path class="st4" d="M27,90.5c0,0-10-11-21-24C-4.4,54.2,1.3,26.1,17.5,13.2c14.5-11.6,35.9-17.5,48-7C77,16.2,95,31.7,95,31.7
			s10.4-7,31.5-1.5c11.5,3,46.9,25.5,46.9,25.5s7.9,4.7-1,20c-7,12-19.5,6.5-19.5,6.5l-22.5-9c0,0,19.1,19.6,41.9,30
			c12.8,5.8,18,12.5,18,12.5s9,9,0.5,24c-10.6,18.8-24,11.5-24,11.5l-39.4-18l17,35.4c0,0,6.8,13.9-12,25.5c-13,8-22,1.5-22,1.5
			s-6-3.5-21.5-29c-2.6-4.3-21.5-36.4-21.5-36.4s17,28.6,5.5,39.4c-6,5.7-17.3,8.9-24,4c-7.5-5.5-10.2-19.3-18.5-39.4
			C19,106,27,90.5,27,90.5z"/>
	</g>
</g>
</svg>
