<svg id="Isolationsmodus" xmlns="http://www.w3.org/2000/svg" viewBox="0 0 297.69 198.62"><defs><style>.cls-1,.cls-3{fill:none;stroke:#fff;stroke-miterlimit:10;}.cls-1{stroke-width:1.5px;}.cls-2{fill:#fff;}.cls-3{stroke-width:2px;}</style></defs><title>heinrich</title><path class="cls-1" d="M50.81,20a20.67,20.67,0,0,1,14.32,6.42c5.4,5.65,10.6,11.5,16,17.15,3,3.11,2.64,5.78-.37,8.58Q65.16,66.6,49.63,81.17c-2.9,2.72-5.5,2.71-8.21-.24-5.4-5.87-11-11.54-16.29-17.53-8.46-9.61-6.46-25.62,4.19-35.21A30.9,30.9,0,0,1,50.81,20ZM34.46,39.81c-3.57,7.77-3,11.57,2.14,17.11q2.26,2.44,4.51,4.91c5.41,6,6.48,5.88,11.15-1.07Z" transform="translate(-1.74 -1.84)"/><path class="cls-2" d="M80.84,103.53c-6.52-2.66-11.17-6.84-11.13-14.17S73.77,77,79.86,73.74a8.18,8.18,0,0,1,6.09-.3c4.44,1.7,9.33,3.27,12.73,6.34,3.69,3.32,7.95,4,12.09,5.68A17.91,17.91,0,0,1,121,107.56c-3,9.28-9.53,15-19.09,16.67C90.52,126.17,81.49,117.23,80.84,103.53Zm22.84-10.81c-6.39-.1-14,7.08-14,13.25,0,4.93,4.91,9.82,9.86,9.81,6.1,0,13.49-7.13,13.69-13.16C113.4,97.6,108.77,92.8,103.69,92.72ZM93.36,85.34c-0.4-2.81-2-5.07-5.67-5.17-3.86-.11-9.54,5-9.36,8.77,0.16,3.33,2.09,5.65,5.7,5.79C87.85,94.87,93.23,89.66,93.36,85.34Z" transform="translate(-1.74 -1.84)"/><path class="cls-1" d="M28.76,92.38s-10-11-21-24C-2.7,56,3,27.95,19.27,15,33.72,3.49,55.15-2.45,67.19,8,78.68,18,96.65,33.48,96.65,33.48s10.41-7,31.45-1.5C139.58,35,175,57.44,175,57.44s7.93,4.66-1,20c-7,12-19.47,6.49-19.47,6.49l-22.46-9s19.15,19.57,41.93,30c12.76,5.81,18,12.48,18,12.48s9,9,.5,24c-10.65,18.79-24,11.48-24,11.48l-39.44-18,17,35.44s6.81,13.89-12,25.46c-13,8-22,1.5-22,1.5s-6-3.49-21.47-29c-2.59-4.26-21.47-36.44-21.47-36.44s17,28.6,5.49,39.44c-6,5.68-17.33,8.86-24,4-7.49-5.49-10.19-19.28-18.47-39.44C20.77,107.86,28.76,92.38,28.76,92.38Z" transform="translate(-1.74 -1.84)"/><path class="cls-3" d="M134.9,34.86a27.76,27.76,0,0,1,26.79-5c8.12,2.86,14.35,9.32,21.3,14.41,20.95,15.33,40.52,24.22,63.77,25.22,19.64,0.84,41.75-7.5,52-17" transform="translate(-1.74 -1.84)"/></svg>