<?xml version="1.0" encoding="utf-8"?>
<!-- Generator: Adobe Illustrator 19.2.0, SVG Export Plug-In . SVG Version: 6.00 Build 0)  -->
<svg version="1.1" xmlns="http://www.w3.org/2000/svg" xmlns:xlink="http://www.w3.org/1999/xlink" x="0px" y="0px"
	 viewBox="0 0 166 317" style="enable-background:new 0 0 166 317;" xml:space="preserve">
<style type="text/css">
	.st0{display:none;}
	.st1{display:inline;stroke:#FFFFFF;stroke-miterlimit:10;}
	.st2{fill:#FCCE14;}
</style>
<g id="Ebene_3" class="st0">
	<rect x="-187" y="-276.33" class="st1" width="412.62" height="663"/>
</g>
<g id="Rakete">
</g>
<g id="Ebene_4">
	<path class="st2" d="M34.02,216.17c0,0-9.24,6.31-16.05,13.52S7.35,243.26,3.51,254.28c-2.74,7.9-1.64,16.57-1.64,16.57
		l13.26-15.65c0,0-5.58,13.24-6.76,24.89c-1.35,13.42,6.61,35.68,6.61,35.68s19.84-8.54,29.1-17.85c9.07-9.13,15.3-23.26,15.3-23.26
		l-2.58,20.35c0,0,7.79-5.89,10.96-12.15c5.82-11.51,7.46-16.63,8.21-24.32c1.27-13.05-0.59-24.18-0.59-24.18s-1.45,0.66-2.89,0.86
		c-1.36,0.19-2.93-0.87-2.93-0.87s-3.37,5.77-11.68,12.89c-4.61,3.95-17.07,9.6-17.07,9.6s-3.47-10.13-4.37-18.31
		c-0.88-7.95,1.53-18.08,1.53-18.08s-1.24-0.09-2.42-1.34C34.58,218.09,34.02,216.17,34.02,216.17z"/>
	<path class="st2" d="M122.78,202.76c1.99-20.38-7.34-32.27-7.99-33.28c0,0,23.93-28.26,35.32-56.85
		c9.56-23.99,13.51-34.11,14.5-57.8c1.26-30.4-9.08-52.11-11.43-53.28c-2.35-1.17-25.21,6.21-46.95,27.06
		c-16.67,15.99-24.7,31.33-33.41,51.13c-14.59,33.18-13.12,43.22-17.62,63.53c-2.09,0.56-16.22,1.5-29.91,16.61
		c-6.63,7.32-11.31,20.43-13.29,30.21c-2.88,14.22,0.28,23.89,0.28,23.89s7.42-8.13,14.86-12.58c12.72-7.61,16.54-6.1,18.19-6.38
		c-0.83,3.55,0.63,6.96,2.38,9.7c2.26,3.54,6.11,5.78,6.11,5.78s-1.86,6.56-2.23,10.04c-0.69,6.53,0.03,11.94,0.03,11.94
		s3.52-2.23,7.82-7.18c3.28-3.78,6.89-9.3,6.89-9.3s2.7,1.07,7.34,0.65c6.1-0.55,9.65-4.92,9.65-4.92s5.63,5.03,7.65,18
		c1.31,8.41,0.72,19.18,0.72,19.18s12.19-6.81,18.17-16.45C117.84,219.57,121.86,212.15,122.78,202.76z M111.84,95.54
		c-8.34-3.67-12.13-13.4-8.46-21.75c3.67-8.34,13.4-12.13,21.75-8.46c8.34,3.67,12.13,13.4,8.46,21.75
		C129.91,95.42,120.18,99.2,111.84,95.54z"/>
</g>
</svg>
