<svg id="Ebene_5" data-name="Ebene 5" xmlns="http://www.w3.org/2000/svg" viewBox="0 0 17.61 34.21"><defs><style>.cls-1{fill:#6ec5d7;}</style></defs><title>icon_participate_upload</title><path class="cls-1" d="M11.49,23.73a9.67,9.67,0,0,0-1.9,1.45A6.77,6.77,0,0,0,8,27.9a4,4,0,0,0-.09,1.89l1.48-1.73a11.44,11.44,0,0,0-.76,2.76,14,14,0,0,0,.45,3.85A15,15,0,0,0,12.36,33a10.21,10.21,0,0,0,2.26-2.8,7,7,0,0,1-.22,1.63c-0.2.64-.56,1.58-0.56,1.58a5.26,5.26,0,0,0,2-2.31,12.2,12.2,0,0,0,.61-4.16,2.15,2.15,0,0,0-.38-1.4,1.23,1.23,0,0,1-.4.12l-0.33.05a7,7,0,0,1-1.46,1.53,11.41,11.41,0,0,1-1.68,1,11.55,11.55,0,0,1-.48-2,6.54,6.54,0,0,1,.2-2,1.22,1.22,0,0,1-.28-0.2A0.45,0.45,0,0,1,11.49,23.73Z" transform="translate(-7.8 -0.46)"/><path class="cls-1" d="M21,22.87c0.3-1.57-.93-3.65-1-3.76a19.86,19.86,0,0,0,3-5,22.41,22.41,0,0,0,2.37-7.85,13,13,0,0,0-.23-3.63A4.73,4.73,0,0,0,24.42.48a5.32,5.32,0,0,0-2.28,1,24.72,24.72,0,0,0-2.26,1.79l-0.55.63a20.67,20.67,0,0,0-3.57,5.38,44.4,44.4,0,0,0-2.33,7.33,7.77,7.77,0,0,0-1.86.71c-0.53.37-1,.52-2.18,2.57a6.11,6.11,0,0,0-.61,4.2,8.87,8.87,0,0,1,1.67-1.35,7.59,7.59,0,0,1,2-.74,1.2,1.2,0,0,0,.26,1.08,5.59,5.59,0,0,0,.51.47s-0.16,1.17-.2,1.56a4.71,4.71,0,0,0,.09,1A4.83,4.83,0,0,0,14,25.21c0.28-.44.55-1,0.55-1A3,3,0,0,0,16,24.19a1.51,1.51,0,0,0,.6-0.47,3.31,3.31,0,0,1,1.22,2.18,13.14,13.14,0,0,1,0,2.08,5.79,5.79,0,0,0,1.74-1.7A9.32,9.32,0,0,0,21,22.87Zm-1.27-12A1.83,1.83,0,1,1,22.17,10,1.83,1.83,0,0,1,19.75,10.9Z" transform="translate(-7.8 -0.46)"/></svg>