<?xml version="1.0" encoding="utf-8"?>
<!-- Generator: Adobe Illustrator 19.2.0, SVG Export Plug-In . SVG Version: 6.00 Build 0)  -->
<svg version="1.1" id="Ebene_1" xmlns="http://www.w3.org/2000/svg" xmlns:xlink="http://www.w3.org/1999/xlink" x="0px" y="0px"
	 viewBox="0 0 96.1 43.9" style="enable-background:new 0 0 96.1 43.9;" xml:space="preserve">
<style type="text/css">
	.st0{fill:none;}
	.st1{display:none;}
	.st2{display:inline;}
	.st3{fill:#FBCD14;}
	.st4{display:none;fill:#FBCD14;enable-background:new    ;}
	.st5{font-family:'HelveticaNeue-Light';}
	.st6{font-size:14px;}
	.st7{enable-background:new    ;}
</style>
<line class="st0" x1="-176.5" y1="-26" x2="-177" y2="-26"/>
<g id="Pfeil" class="st1">
	<g class="st2">
		<polygon class="st3" points="52.4,43.5 63.1,32.8 61.7,31.4 53.2,39.9 53.2,19.6 51.2,19.6 51.2,39.8 42.7,31.4 41.3,32.8 
			52,43.5 52.2,43.7 52.2,43.7 52.2,43.7 		"/>
	</g>
</g>
<g id="Pfeil_2_" class="st1">
	<g class="st2">
		<polygon class="st3" points="52.4,43.5 63.1,32.8 61.7,31.4 53.2,39.9 53.2,19.6 51.2,19.6 51.2,39.8 42.7,31.4 41.3,32.8 
			52,43.5 52.2,43.7 52.2,43.7 52.2,43.7 		"/>
	</g>
</g>
<text transform="matrix(1 0 0 1 36.7214 10.4088)" class="st4 st5 st6">Hier !</text>
<polygon class="st3" points="59.2,32.8 57.8,31.4 49.3,39.9 49.3,19.6 47.3,19.6 47.3,39.8 38.9,31.4 37.5,32.8 48.4,43.7 
	48.4,43.7 48.4,43.7 "/>
<g class="st7">
	<path class="st3" d="M1.1,0.1l5.8,8.5h0V0.1h1v10H6.9L1,1.7h0v8.5h-1v-10H1.1z"/>
	<path class="st3" d="M9.9,4c0.1-0.3,0.4-0.6,0.6-0.8c0.3-0.2,0.6-0.3,0.9-0.4c0.3-0.1,0.7-0.1,1.1-0.1c0.3,0,0.6,0,1,0.1
		s0.6,0.2,0.9,0.3c0.3,0.2,0.5,0.4,0.6,0.7c0.2,0.3,0.2,0.7,0.2,1.2v3.8c0,0.4,0.2,0.5,0.5,0.5c0.1,0,0.2,0,0.3-0.1v0.7
		c-0.1,0-0.2,0-0.3,0c-0.1,0-0.2,0-0.3,0c-0.2,0-0.4,0-0.5-0.1s-0.2-0.1-0.3-0.3c-0.1-0.1-0.1-0.2-0.1-0.4s0-0.3,0-0.5h0
		c-0.2,0.2-0.3,0.4-0.5,0.6c-0.2,0.2-0.3,0.3-0.5,0.5c-0.2,0.1-0.4,0.2-0.7,0.3c-0.3,0.1-0.6,0.1-0.9,0.1c-0.3,0-0.7,0-0.9-0.1
		c-0.3-0.1-0.6-0.2-0.8-0.4S9.7,9.4,9.6,9.2S9.4,8.6,9.4,8.2c0-0.5,0.1-0.9,0.3-1.2c0.2-0.3,0.5-0.5,0.9-0.7
		c0.4-0.1,0.8-0.3,1.2-0.3s0.9-0.1,1.4-0.2c0.2,0,0.3,0,0.5-0.1s0.3-0.1,0.4-0.1c0.1-0.1,0.2-0.2,0.2-0.3c0.1-0.1,0.1-0.3,0.1-0.5
		c0-0.3,0-0.5-0.1-0.7C14.1,4,14,3.8,13.8,3.7c-0.2-0.1-0.4-0.2-0.6-0.2c-0.2,0-0.5-0.1-0.7-0.1c-0.6,0-1,0.1-1.4,0.4
		c-0.4,0.3-0.5,0.7-0.6,1.3H9.7C9.7,4.7,9.8,4.3,9.9,4z M14.4,6.2c-0.1,0.1-0.2,0.2-0.3,0.2s-0.3,0.1-0.4,0.1
		c-0.4,0.1-0.8,0.1-1.2,0.2c-0.4,0.1-0.8,0.1-1.1,0.2C11,7,10.8,7.2,10.6,7.3c-0.2,0.2-0.3,0.5-0.3,0.8c0,0.2,0,0.4,0.1,0.6
		c0.1,0.2,0.2,0.3,0.4,0.4s0.3,0.2,0.5,0.3c0.2,0.1,0.4,0.1,0.6,0.1c0.3,0,0.7-0.1,1-0.2c0.3-0.1,0.6-0.3,0.8-0.4
		c0.2-0.2,0.4-0.4,0.5-0.7c0.1-0.3,0.2-0.6,0.2-1L14.4,6.2L14.4,6.2z M10.8,0.2h1v1.4h-1V0.2z M13.3,0.2h1v1.4h-1V0.2z"/>
	<path class="st3" d="M21.4,3.9c-0.3-0.3-0.8-0.5-1.4-0.5c-0.4,0-0.8,0.1-1.1,0.3c-0.3,0.2-0.6,0.4-0.8,0.7c-0.2,0.3-0.4,0.6-0.5,1
		c-0.1,0.4-0.2,0.7-0.2,1.1c0,0.4,0.1,0.8,0.2,1.1c0.1,0.4,0.3,0.7,0.5,1s0.5,0.5,0.8,0.7c0.3,0.2,0.7,0.3,1.1,0.3
		c0.3,0,0.5-0.1,0.8-0.2c0.2-0.1,0.5-0.2,0.6-0.4c0.2-0.2,0.3-0.4,0.5-0.7c0.1-0.3,0.2-0.5,0.2-0.8h0.9c-0.1,0.9-0.4,1.6-1,2.1
		c-0.5,0.5-1.2,0.7-2,0.7c-0.6,0-1-0.1-1.5-0.3c-0.4-0.2-0.8-0.5-1.1-0.8C17.3,8.9,17,8.5,16.9,8c-0.1-0.5-0.2-1-0.2-1.5
		c0-0.5,0.1-1,0.2-1.5c0.1-0.5,0.4-0.9,0.7-1.2c0.3-0.3,0.6-0.6,1.1-0.8c0.4-0.2,0.9-0.3,1.5-0.3c0.8,0,1.4,0.2,2,0.6
		c0.5,0.4,0.9,1,1,1.9h-0.9C22,4.6,21.8,4.2,21.4,3.9z"/>
	<path class="st3" d="M25.2,0.1v4h0c0.2-0.4,0.5-0.8,0.9-1.1c0.4-0.3,0.9-0.4,1.4-0.4c0.5,0,0.9,0.1,1.3,0.2
		c0.3,0.1,0.6,0.3,0.8,0.6C29.8,3.7,29.9,4,30,4.3c0.1,0.3,0.1,0.7,0.1,1.2v4.6h-0.9V5.6c0-0.3,0-0.6-0.1-0.9
		c-0.1-0.3-0.2-0.5-0.3-0.7c-0.1-0.2-0.3-0.4-0.6-0.5c-0.2-0.1-0.5-0.2-0.9-0.2c-0.4,0-0.7,0.1-0.9,0.2S26,3.9,25.8,4.1
		c-0.2,0.2-0.3,0.5-0.4,0.8c-0.1,0.3-0.2,0.6-0.2,1v4.2h-0.9v-10H25.2z"/>
	<path class="st3" d="M36,4.3c-0.1-0.2-0.2-0.4-0.4-0.5c-0.2-0.1-0.4-0.2-0.6-0.3c-0.2-0.1-0.5-0.1-0.7-0.1c-0.2,0-0.4,0-0.6,0.1
		c-0.2,0-0.4,0.1-0.6,0.2s-0.3,0.2-0.4,0.4c-0.1,0.2-0.2,0.4-0.2,0.6c0,0.2,0,0.4,0.1,0.5c0.1,0.1,0.2,0.2,0.4,0.3
		c0.1,0.1,0.3,0.2,0.5,0.2c0.2,0.1,0.3,0.1,0.5,0.1l1.2,0.3c0.3,0,0.5,0.1,0.7,0.2c0.2,0.1,0.5,0.2,0.7,0.4c0.2,0.2,0.3,0.4,0.5,0.6
		c0.1,0.2,0.2,0.5,0.2,0.8c0,0.4-0.1,0.7-0.3,1c-0.2,0.3-0.4,0.5-0.7,0.7s-0.6,0.3-0.9,0.4c-0.3,0.1-0.7,0.1-1,0.1
		c-0.8,0-1.5-0.2-2.1-0.6s-0.8-1-0.9-1.9h0.9c0,0.6,0.3,1,0.7,1.4c0.4,0.3,0.9,0.5,1.5,0.5c0.2,0,0.4,0,0.7-0.1
		c0.2,0,0.4-0.1,0.6-0.2c0.2-0.1,0.4-0.3,0.5-0.4s0.2-0.4,0.2-0.6c0-0.2,0-0.4-0.1-0.5c-0.1-0.1-0.2-0.3-0.4-0.4
		c-0.1-0.1-0.3-0.2-0.5-0.2S35,7,34.8,6.9l-1.1-0.3c-0.3-0.1-0.6-0.2-0.8-0.3c-0.2-0.1-0.5-0.2-0.6-0.4s-0.3-0.3-0.4-0.5
		S31.7,5,31.7,4.7c0-0.4,0.1-0.7,0.2-0.9c0.2-0.3,0.4-0.5,0.6-0.6c0.3-0.2,0.6-0.3,0.9-0.4c0.3-0.1,0.6-0.1,1-0.1c0.4,0,0.7,0,1,0.1
		c0.3,0.1,0.6,0.2,0.8,0.4c0.2,0.2,0.4,0.4,0.6,0.7S37,4.6,37,5h-0.9C36.1,4.7,36.1,4.5,36,4.3z"/>
	<path class="st3" d="M41.4,2.9v0.7h-1.5v4.9c0,0.3,0,0.5,0.1,0.7s0.3,0.3,0.6,0.3c0.3,0,0.5,0,0.8,0v0.7c-0.1,0-0.3,0-0.4,0
		c-0.1,0-0.3,0-0.4,0c-0.6,0-1-0.1-1.2-0.3c-0.2-0.2-0.3-0.7-0.3-1.3V3.6h-1.3V2.9h1.3V0.7h0.9v2.2H41.4z"/>
	<path class="st3" d="M43.3,7.7c0.1,0.3,0.2,0.6,0.4,0.9s0.4,0.5,0.7,0.7c0.3,0.2,0.7,0.3,1.1,0.3c0.6,0,1.1-0.2,1.5-0.5
		s0.6-0.8,0.8-1.3h0.9c-0.2,0.8-0.5,1.5-1,1.9c-0.5,0.4-1.2,0.7-2.1,0.7c-0.6,0-1.1-0.1-1.5-0.3c-0.4-0.2-0.8-0.5-1-0.8
		c-0.3-0.4-0.5-0.8-0.6-1.2c-0.1-0.5-0.2-0.9-0.2-1.5c0-0.5,0.1-0.9,0.2-1.4s0.3-0.9,0.6-1.2c0.3-0.4,0.6-0.6,1-0.9
		c0.4-0.2,0.9-0.3,1.5-0.3c0.6,0,1.1,0.1,1.5,0.3c0.4,0.2,0.7,0.5,1,0.9c0.3,0.4,0.4,0.8,0.6,1.3c0.1,0.5,0.2,1,0.1,1.5h-5.6
		C43.2,7.1,43.2,7.4,43.3,7.7z M47.7,5c-0.1-0.3-0.3-0.6-0.5-0.8c-0.2-0.2-0.4-0.4-0.7-0.6c-0.3-0.1-0.6-0.2-1-0.2
		c-0.4,0-0.7,0.1-1,0.2S44.1,4,43.9,4.2c-0.2,0.2-0.4,0.5-0.5,0.8c-0.1,0.3-0.2,0.6-0.2,1h4.7C47.9,5.7,47.8,5.4,47.7,5z"/>
	<path class="st3" d="M54.1,4.3c-0.1-0.2-0.2-0.4-0.4-0.5c-0.2-0.1-0.4-0.2-0.6-0.3c-0.2-0.1-0.5-0.1-0.7-0.1c-0.2,0-0.4,0-0.6,0.1
		s-0.4,0.1-0.6,0.2s-0.3,0.2-0.4,0.4c-0.1,0.2-0.2,0.4-0.2,0.6c0,0.2,0,0.4,0.1,0.5c0.1,0.1,0.2,0.2,0.4,0.3
		c0.2,0.1,0.3,0.2,0.5,0.2s0.3,0.1,0.5,0.1l1.2,0.3c0.3,0,0.5,0.1,0.8,0.2c0.2,0.1,0.5,0.2,0.7,0.4c0.2,0.2,0.3,0.4,0.5,0.6
		c0.1,0.2,0.2,0.5,0.2,0.8c0,0.4-0.1,0.7-0.3,1c-0.2,0.3-0.4,0.5-0.7,0.7s-0.6,0.3-0.9,0.4c-0.3,0.1-0.7,0.1-1,0.1
		c-0.8,0-1.5-0.2-2.1-0.6s-0.8-1-0.9-1.9h0.9c0,0.6,0.3,1,0.7,1.4c0.4,0.3,0.9,0.5,1.5,0.5c0.2,0,0.4,0,0.7-0.1
		c0.2,0,0.4-0.1,0.6-0.2c0.2-0.1,0.4-0.3,0.5-0.4s0.2-0.4,0.2-0.6c0-0.2,0-0.4-0.1-0.5c-0.1-0.1-0.2-0.3-0.4-0.4
		c-0.1-0.1-0.3-0.2-0.5-0.2S53.1,7,52.9,6.9l-1.1-0.3c-0.3-0.1-0.6-0.2-0.8-0.3c-0.2-0.1-0.5-0.2-0.6-0.4S50.1,5.7,50,5.5
		c-0.1-0.2-0.2-0.5-0.2-0.8c0-0.4,0.1-0.7,0.2-0.9c0.2-0.3,0.4-0.5,0.6-0.6c0.3-0.2,0.6-0.3,0.9-0.4c0.3-0.1,0.6-0.1,1-0.1
		c0.4,0,0.7,0,1,0.1c0.3,0.1,0.6,0.2,0.8,0.4c0.2,0.2,0.4,0.4,0.6,0.7s0.2,0.6,0.2,1h-0.9C54.3,4.7,54.2,4.5,54.1,4.3z"/>
	<path class="st3" d="M60.7,0.1l3.2,8.9h0l3.2-8.9h1l-3.7,10h-1.1l-3.7-10H60.7z"/>
	<path class="st3" d="M69.9,0.1v1.4H69V0.1H69.9z M69.9,2.9v7.2H69V2.9H69.9z"/>
	<path class="st3" d="M77.1,10.1V8.8h0C77,9,76.8,9.2,76.7,9.4c-0.2,0.2-0.4,0.4-0.6,0.5c-0.2,0.1-0.5,0.2-0.7,0.3
		c-0.3,0.1-0.5,0.1-0.8,0.1c-0.6,0-1-0.1-1.4-0.3c-0.4-0.2-0.7-0.5-1-0.8c-0.3-0.4-0.5-0.8-0.6-1.2c-0.1-0.5-0.2-0.9-0.2-1.5
		c0-0.5,0.1-1,0.2-1.5s0.3-0.9,0.6-1.2c0.3-0.3,0.6-0.6,1-0.8s0.9-0.3,1.4-0.3c0.3,0,0.5,0,0.8,0.1S75.8,3,76,3.1
		c0.2,0.1,0.4,0.3,0.6,0.5S76.9,4,77,4.3h0V0.1h0.9v10H77.1z M72.3,7.6c0.1,0.4,0.2,0.7,0.4,1s0.4,0.5,0.7,0.7
		c0.3,0.2,0.7,0.3,1.1,0.3c0.5,0,0.9-0.1,1.2-0.3c0.3-0.2,0.6-0.4,0.8-0.7c0.2-0.3,0.3-0.6,0.4-1C77,7.3,77,6.9,77,6.5
		c0-0.4,0-0.7-0.1-1.1c-0.1-0.4-0.2-0.7-0.4-1c-0.2-0.3-0.5-0.5-0.8-0.7c-0.3-0.2-0.7-0.3-1.2-0.3c-0.4,0-0.8,0.1-1.1,0.3
		c-0.3,0.2-0.5,0.4-0.7,0.7s-0.3,0.6-0.4,1c-0.1,0.4-0.1,0.7-0.1,1.1C72.1,6.9,72.2,7.3,72.3,7.6z"/>
	<path class="st3" d="M80.2,7.7c0.1,0.3,0.2,0.6,0.4,0.9s0.4,0.5,0.7,0.7c0.3,0.2,0.7,0.3,1.1,0.3c0.6,0,1.1-0.2,1.5-0.5
		s0.6-0.8,0.8-1.3h0.9c-0.2,0.8-0.5,1.5-1,1.9c-0.5,0.4-1.2,0.7-2.1,0.7c-0.6,0-1.1-0.1-1.5-0.3c-0.4-0.2-0.8-0.5-1-0.8
		c-0.3-0.4-0.5-0.8-0.6-1.2c-0.1-0.5-0.2-0.9-0.2-1.5c0-0.5,0.1-0.9,0.2-1.4s0.3-0.9,0.6-1.2c0.3-0.4,0.6-0.6,1-0.9
		c0.4-0.2,0.9-0.3,1.5-0.3c0.6,0,1.1,0.1,1.5,0.3c0.4,0.2,0.7,0.5,1,0.9c0.3,0.4,0.4,0.8,0.6,1.3c0.1,0.5,0.2,1,0.1,1.5h-5.6
		C80.1,7.1,80.2,7.4,80.2,7.7z M84.6,5c-0.1-0.3-0.3-0.6-0.5-0.8C84,4,83.7,3.8,83.4,3.7c-0.3-0.1-0.6-0.2-1-0.2
		c-0.4,0-0.7,0.1-1,0.2C81.2,3.8,81,4,80.8,4.2c-0.2,0.2-0.4,0.5-0.5,0.8c-0.1,0.3-0.2,0.6-0.2,1h4.7C84.8,5.7,84.7,5.4,84.6,5z"/>
	<path class="st3" d="M91.4,3c0.4,0.2,0.8,0.5,1.1,0.8c0.3,0.3,0.5,0.7,0.7,1.2c0.1,0.5,0.2,1,0.2,1.5c0,0.5-0.1,1-0.2,1.5
		c-0.2,0.5-0.4,0.9-0.7,1.2s-0.6,0.6-1.1,0.8c-0.4,0.2-0.9,0.3-1.5,0.3c-0.6,0-1-0.1-1.5-0.3c-0.4-0.2-0.8-0.5-1.1-0.8
		S86.9,8.5,86.7,8c-0.1-0.5-0.2-1-0.2-1.5c0-0.5,0.1-1,0.2-1.5c0.1-0.5,0.4-0.9,0.7-1.2C87.7,3.5,88,3.2,88.4,3s0.9-0.3,1.5-0.3
		C90.5,2.7,90.9,2.8,91.4,3z M88.8,3.7c-0.3,0.2-0.6,0.4-0.8,0.7c-0.2,0.3-0.4,0.6-0.5,1c-0.1,0.4-0.2,0.7-0.2,1.1
		c0,0.4,0.1,0.8,0.2,1.1c0.1,0.4,0.3,0.7,0.5,1c0.2,0.3,0.5,0.5,0.8,0.7c0.3,0.2,0.7,0.3,1.1,0.3s0.8-0.1,1.1-0.3
		c0.3-0.2,0.6-0.4,0.8-0.7c0.2-0.3,0.4-0.6,0.5-1c0.1-0.4,0.2-0.7,0.2-1.1c0-0.4-0.1-0.8-0.2-1.1c-0.1-0.4-0.3-0.7-0.5-1
		c-0.2-0.3-0.5-0.5-0.8-0.7c-0.3-0.2-0.7-0.3-1.1-0.3S89.1,3.5,88.8,3.7z"/>
	<path class="st3" d="M94.9,8.6h1.2v1.5h-1.2V8.6z M95,0.1h1v3l-0.2,4.5h-0.5L95,3.1V0.1z"/>
</g>
</svg>
