<?xml version="1.0" encoding="utf-8"?>
<!-- Generator: Adobe Illustrator 21.0.0, SVG Export Plug-In . SVG Version: 6.00 Build 0)  -->
<svg version="1.1" id="Ebene_1" xmlns="http://www.w3.org/2000/svg" xmlns:xlink="http://www.w3.org/1999/xlink" x="0px" y="0px"
	 viewBox="0 0 55.7 41.3" style="enable-background:new 0 0 55.7 41.3;" xml:space="preserve">
<style type="text/css">
	.st0{fill:#FFFFFF;}
</style>
<title>icon_views</title>
<path class="st0" d="M13,36.1c9.6,8.1,21.5,6.2,31-2c4-3.5,11.7-11.7,11.7-11.7S46.9,9.5,41.3,5c-9.8-7.8-24.1-6.3-32,3.6
	C6,12.8,0,22.8,0,22.8C3.9,27.6,8.3,32,13,36.1z M35.8,7.5c6,4.8,6.9,13.5,2.2,19.5c-4.8,6-13.5,6.9-19.5,2.2
	c-6-4.8-6.9-13.5-2.2-19.5c0,0,0,0,0,0C21.1,3.7,29.8,2.7,35.8,7.5z"/>
<ellipse transform="matrix(0.9938 -0.1108 0.1108 0.9938 -1.2909 3.7746)" class="st0" cx="33.3" cy="13.5" rx="4.8" ry="4.8"/>
</svg>
