<svg id="Ebene_2" data-name="Ebene 2" xmlns="http://www.w3.org/2000/svg" viewBox="0 0 40.03 40.01"><defs><style>.cls-1{fill:#fff;}.cls-2{fill:#bd081c;}</style></defs><title>icon_pinterest</title><rect class="cls-1" width="40" height="40"/><path class="cls-2" d="M29.13,0H0V10.18H0v23H0V40H40V0H29.13ZM19.3,25.46l-0.76,2.91A13.61,13.61,0,0,1,17,31.56s-0.09.17-.45,0.07a0.43,0.43,0,0,1-.4-0.35,11.74,11.74,0,0,1,0-3.51c0.22-1,1.44-6.09,1.44-6.09a4.42,4.42,0,0,1-.37-1.82c0-1.7,1-3,2.22-3a1.54,1.54,0,0,1,1.55,1.73,24.67,24.67,0,0,1-1,4.08,1.78,1.78,0,0,0,1.81,2.21c2.18,0,3.85-2.3,3.85-5.61a4.84,4.84,0,0,0-5.12-5,5.3,5.3,0,0,0-5.53,5.32,4.76,4.76,0,0,0,.91,2.8,0.37,0.37,0,0,1,.09.35l-0.34,1.39c-0.05.22-.18,0.27-0.41,0.16-1.53-.71-2.49-2.95-2.49-4.75,0-3.86,2.81-7.41,8.09-7.41,4.25,0,7.55,3,7.55,7.07,0,4.22-2.66,7.62-6.36,7.62A3.28,3.28,0,0,1,19.3,25.46Z"/></svg>