<?xml version="1.0" encoding="utf-8"?>
<!-- Generator: Adobe Illustrator 19.2.0, SVG Export Plug-In . SVG Version: 6.00 Build 0)  -->
<svg version="1.1" id="Ebene_1" xmlns="http://www.w3.org/2000/svg" xmlns:xlink="http://www.w3.org/1999/xlink" x="0px" y="0px"
	 viewBox="0 0 25.9 43.9" style="enable-background:new 0 0 25.9 43.9;" xml:space="preserve">
<style type="text/css">
	.st0{fill:none;}
	.st1{display:none;}
	.st2{display:inline;}
	.st3{fill:#FBCD14;}
	.st4{display:none;fill:#FBCD14;enable-background:new    ;}
	.st5{font-family:'HelveticaNeue-Light';}
	.st6{font-size:14px;}
	.st7{enable-background:new    ;}
</style>
<line class="st0" x1="-211.1" y1="-26" x2="-211.6" y2="-26"/>
<g id="Pfeil" class="st1">
	<g class="st2">
		<polygon class="st3" points="17.8,43.5 28.5,32.8 27.1,31.4 18.6,39.9 18.6,19.6 16.6,19.6 16.6,39.8 8.1,31.4 6.7,32.8 
			17.4,43.5 17.6,43.7 17.6,43.7 17.6,43.7 		"/>
	</g>
</g>
<g id="Pfeil_2_" class="st1">
	<g class="st2">
		<polygon class="st3" points="17.8,43.5 28.5,32.8 27.1,31.4 18.6,39.9 18.6,19.6 16.6,19.6 16.6,39.8 8.1,31.4 6.7,32.8 
			17.4,43.5 17.6,43.7 17.6,43.7 17.6,43.7 		"/>
	</g>
</g>
<text transform="matrix(1 0 0 1 2.1589 10.4088)" class="st4 st5 st6">Hier !</text>
<polygon class="st3" points="24.6,32.8 23.2,31.4 14.7,39.9 14.7,19.6 12.7,19.6 12.7,39.8 4.3,31.4 2.9,32.8 13.8,43.7 13.8,43.7 
	13.8,43.7 "/>
<g class="st7">
	<path class="st3" d="M1,0.3v4.3h5.9V0.3h1v10h-1V5.5H1v4.8H0v-10H1z"/>
	<path class="st3" d="M10.6,0.3v1.4H9.7V0.3H10.6z M10.6,3.1v7.2H9.7V3.1H10.6z"/>
	<path class="st3" d="M13,7.9c0.1,0.3,0.2,0.6,0.4,0.9s0.4,0.5,0.7,0.7c0.3,0.2,0.7,0.3,1.1,0.3c0.6,0,1.1-0.2,1.5-0.5
		c0.4-0.3,0.6-0.8,0.8-1.3h0.9c-0.2,0.8-0.5,1.5-1,1.9c-0.5,0.4-1.2,0.7-2.1,0.7c-0.6,0-1.1-0.1-1.5-0.3c-0.4-0.2-0.8-0.5-1-0.8
		c-0.3-0.4-0.5-0.8-0.6-1.2c-0.1-0.5-0.2-0.9-0.2-1.5c0-0.5,0.1-0.9,0.2-1.4s0.3-0.9,0.6-1.2c0.3-0.4,0.6-0.6,1-0.9
		c0.4-0.2,0.9-0.3,1.5-0.3c0.6,0,1.1,0.1,1.5,0.3s0.7,0.5,1,0.9s0.4,0.8,0.6,1.3c0.1,0.5,0.2,1,0.1,1.5h-5.6
		C12.8,7.2,12.9,7.6,13,7.9z M17.3,5.2c-0.1-0.3-0.3-0.6-0.5-0.8c-0.2-0.2-0.4-0.4-0.7-0.6c-0.3-0.1-0.6-0.2-1-0.2
		c-0.4,0-0.7,0.1-1,0.2C14,4,13.7,4.2,13.5,4.4c-0.2,0.2-0.4,0.5-0.5,0.8c-0.1,0.3-0.2,0.6-0.2,1h4.7C17.5,5.9,17.4,5.5,17.3,5.2z"
		/>
	<path class="st3" d="M20.4,3.1v1.7h0c0.2-0.6,0.6-1,1-1.4c0.5-0.3,1-0.5,1.7-0.4v0.9c-0.4,0-0.8,0-1.1,0.2
		c-0.3,0.1-0.6,0.3-0.8,0.5c-0.2,0.2-0.4,0.5-0.6,0.8c-0.1,0.3-0.2,0.7-0.2,1.1v3.8h-0.9V3.1H20.4z"/>
	<path class="st3" d="M24.2,8.8h1.2v1.5h-1.2V8.8z M24.4,0.3h1v3l-0.2,4.5h-0.5l-0.2-4.5V0.3z"/>
</g>
</svg>
