<svg id="Ebene_7" data-name="Ebene 7" xmlns="http://www.w3.org/2000/svg" viewBox="0 0 35 33.63"><defs><style>.cls-1{fill:#fff;}</style></defs><title>icon_participate_contact</title><path class="cls-1" d="M30,18.55A1.45,1.45,0,0,1,29,16,8.07,8.07,0,0,0,31.85,10,8.07,8.07,0,0,0,29,3.91,1.45,1.45,0,0,1,31,1.74,11,11,0,0,1,34.76,10,10.94,10.94,0,0,1,31,18.18a1.45,1.45,0,0,1-1,.37h0Z" transform="translate(0 -1.37)"/><path class="cls-1" d="M26.69,15.72a1.45,1.45,0,0,1-1-2.54A4.31,4.31,0,0,0,27.23,10a4.31,4.31,0,0,0-1.52-3.22,1.45,1.45,0,1,1,1.93-2.17,7.09,7.09,0,0,1,0,10.79,1.45,1.45,0,0,1-1,.37h0Z" transform="translate(0 -1.37)"/><path class="cls-1" d="M15.82,18.55a1.45,1.45,0,0,1-1-.37A10.94,10.94,0,0,1,11,10a11,11,0,0,1,3.81-8.22,1.46,1.46,0,0,1,1.93,2.17A8.07,8.07,0,0,0,14,10,8.07,8.07,0,0,0,16.79,16a1.45,1.45,0,0,1-1,2.54h0Z" transform="translate(0 -1.37)"/><path class="cls-1" d="M19.12,15.72a1.45,1.45,0,0,1-1-.37,7.09,7.09,0,0,1,0-10.79,1.45,1.45,0,0,1,1.93,2.17A4.31,4.31,0,0,0,18.57,10a4.31,4.31,0,0,0,1.51,3.22,1.45,1.45,0,0,1-1,2.54h0Z" transform="translate(0 -1.37)"/><path class="cls-1" d="M0,20.77V35H35V20.77H0Zm6.94,8.83a1.72,1.72,0,1,1,1.72-1.72A1.72,1.72,0,0,1,6.94,29.61Zm5.58,0a1.72,1.72,0,1,1,1.72-1.72A1.72,1.72,0,0,1,12.52,29.61Zm5.58,0a1.72,1.72,0,1,1,1.72-1.72A1.72,1.72,0,0,1,18.09,29.61Z" transform="translate(0 -1.37)"/><rect class="cls-1" x="21.34" y="7.79" width="3" height="12.31"/></svg>