<svg id="Ebene_2" data-name="Ebene 2" xmlns="http://www.w3.org/2000/svg" xmlns:xlink="http://www.w3.org/1999/xlink" viewBox="0 0 40 40"><defs><style>.cls-1{fill:url(#Unbenannter_Verlauf_6);}.cls-2{fill:#fff;}</style><linearGradient id="Unbenannter_Verlauf_6" x1="20" y1="40" x2="20" gradientUnits="userSpaceOnUse"><stop offset="0" stop-color="#b31217"/><stop offset="1" stop-color="#e52d27"/></linearGradient></defs><title>icon_youtube</title><rect class="cls-1" width="40" height="40"/><path class="cls-2" d="M29.81,16a4.43,4.43,0,0,0-.8-2,2.88,2.88,0,0,0-2-.86c-2.83-.21-7.07-0.21-7.07-0.21h0s-4.24,0-7.07.21a2.88,2.88,0,0,0-2,.86,4.42,4.42,0,0,0-.8,2,31,31,0,0,0-.2,3.3v1.54a31,31,0,0,0,.2,3.3,4.42,4.42,0,0,0,.8,2,3.41,3.41,0,0,0,2.23.87c1.62,0.16,6.87.2,6.87,0.2s4.25,0,7.07-.21a2.88,2.88,0,0,0,2-.86,4.43,4.43,0,0,0,.8-2,31.07,31.07,0,0,0,.2-3.3V19.33A31.07,31.07,0,0,0,29.81,16Zm-12,6.89V17.2L23.17,20Z" transform="translate(0.01 0.01)"/></svg>