<svg id="Ebene_4" data-name="Ebene 4" xmlns="http://www.w3.org/2000/svg" viewBox="0 0 35 34.21"><defs><style>.cls-1{fill:#6ec5d7;}</style></defs><title>icon_participate_blackboard</title><path class="cls-1" d="M34.56,6.3L29.1,0.83A1.5,1.5,0,0,0,27,.83L9.67,18.15a1.5,1.5,0,0,0-.44,1L8.89,24.93a1.5,1.5,0,0,0,1.49,1.58h0.09l5.81-.34a1.49,1.49,0,0,0,1-.44L34.56,8.41A1.5,1.5,0,0,0,34.56,6.3ZM28.41,8L14.89,21.57a0.75,0.75,0,0,1-1.06-1.06L27.35,7A0.75,0.75,0,1,1,28.41,8Z" transform="translate(0 -0.4)"/><path class="cls-1" d="M18.07,26.72a1.86,1.86,0,0,1-1.21.54l-7.24.42H9.5a1.87,1.87,0,0,1-1.86-2l0.43-7.25a1.87,1.87,0,0,1,.54-1.21L24.94,0.92H9l-9,9V34.6H28.7V16.09ZM0.61,10.67a0.75,0.75,0,0,1,.75-0.75H8.72V2.56a0.75,0.75,0,1,1,1.5,0v8.86H1.36A0.75,0.75,0,0,1,.61,10.67Z" transform="translate(0 -0.4)"/></svg>