<svg id="Ebene_2" data-name="Ebene 2" xmlns="http://www.w3.org/2000/svg" viewBox="0 0 40 40"><defs><style>.cls-1{fill:#fff;}</style></defs><title>icon_instagramm</title><rect class="cls-1" width="40" height="40"/><path d="M20.6,9.86c3.22,0,3.6,0,4.88.07a6.68,6.68,0,0,1,2.24.42A4,4,0,0,1,30,12.64a6.68,6.68,0,0,1,.42,2.24c0.06,1.27.07,1.65,0.07,4.88s0,3.6-.07,4.88A6.68,6.68,0,0,1,30,26.88a4,4,0,0,1-2.29,2.29,6.68,6.68,0,0,1-2.24.42c-1.27.06-1.65,0.07-4.88,0.07s-3.6,0-4.88-.07a6.68,6.68,0,0,1-2.24-.42,4,4,0,0,1-2.29-2.29,6.68,6.68,0,0,1-.42-2.24c-0.06-1.27-.07-1.65-0.07-4.88s0-3.6.07-4.88a6.68,6.68,0,0,1,.42-2.24,4,4,0,0,1,2.29-2.29,6.68,6.68,0,0,1,2.24-.42C17,9.87,17.38,9.86,20.6,9.86m0-2.17c-3.28,0-3.69,0-5,.07a8.86,8.86,0,0,0-2.93.56,6.17,6.17,0,0,0-3.53,3.53,8.86,8.86,0,0,0-.56,2.93c-0.06,1.29-.07,1.7-0.07,5s0,3.69.07,5a8.86,8.86,0,0,0,.56,2.93,6.17,6.17,0,0,0,3.53,3.53,8.86,8.86,0,0,0,2.93.56c1.29,0.06,1.7.07,5,.07s3.69,0,5-.07a8.86,8.86,0,0,0,2.93-.56A6.17,6.17,0,0,0,32,27.66a8.86,8.86,0,0,0,.56-2.93c0.06-1.29.07-1.7,0.07-5s0-3.69-.07-5A8.86,8.86,0,0,0,32,11.85a6.17,6.17,0,0,0-3.53-3.53,8.86,8.86,0,0,0-2.93-.56c-1.29-.06-1.7-0.07-5-0.07h0Z" transform="translate(0.01 0.01)"/><path d="M20.6,13.56a6.2,6.2,0,1,0,6.2,6.2A6.2,6.2,0,0,0,20.6,13.56Zm0,10.22a4,4,0,1,1,4-4A4,4,0,0,1,20.6,23.78Z" transform="translate(0.01 0.01)"/><circle cx="27.06" cy="13.33" r="1.45"/></svg>