<svg id="Ebene_1" data-name="Ebene 1" xmlns="http://www.w3.org/2000/svg" viewBox="0 0 33.69 33.7"><defs><style>.cls-1{fill:#fff;}</style></defs><title>icon_participate_feedback</title><path class="cls-1" d="M16.83,35A16.85,16.85,0,0,1,4.92,6.23,16.85,16.85,0,0,1,28.75,30.06,16.75,16.75,0,0,1,16.83,35h0Zm0-30.84A14,14,0,0,0,6.94,28,14,14,0,1,0,16.83,4.16h0Z" transform="translate(0.02 -1.3)"/><path class="cls-1" d="M16.83,28.56A10.42,10.42,0,0,1,6.42,18.15a0.72,0.72,0,0,1,.72-0.72h0a0.71,0.71,0,0,1,.72.71,9,9,0,0,0,18,0,0.72,0.72,0,1,1,1.43,0A10.43,10.43,0,0,1,16.83,28.56h0Z" transform="translate(0.02 -1.3)"/><path class="cls-1" d="M11.95,14a2.15,2.15,0,1,0,2.15,2.15A2.15,2.15,0,0,0,11.95,14h0Z" transform="translate(0.02 -1.3)"/><path class="cls-1" d="M21.72,14a2.15,2.15,0,1,0,2.15,2.15A2.15,2.15,0,0,0,21.72,14h0Z" transform="translate(0.02 -1.3)"/></svg>