<svg id="Ebene_1" data-name="Ebene 1" xmlns="http://www.w3.org/2000/svg" viewBox="0 0 55.71 41.28"><defs><style>.cls-1{fill:#fcce14;}</style></defs><title>icon_views_yellow</title><path class="cls-1" d="M13,36.12c9.62,8.1,21.49,6.15,31-2,4-3.46,11.67-11.67,11.67-11.67S46.93,9.5,41.31,5a22.77,22.77,0,0,0-32,3.57C6,12.78,0,22.8,0,22.8A112.25,112.25,0,0,0,13,36.12ZM35.8,7.49A13.84,13.84,0,1,1,16.35,9.66h0A13.84,13.84,0,0,1,35.8,7.49Z" transform="translate(0.04 -0.03)"/><circle class="cls-1" cx="33.32" cy="13.5" r="4.79" transform="translate(-1.25 3.75) rotate(-6.36)"/></svg>