<svg id="Layer_3" data-name="Layer 3" xmlns="http://www.w3.org/2000/svg" viewBox="0 0 17.78 18"><defs><style>.cls-1{fill:#fff;}</style></defs><title>icon_transmitter</title><path class="cls-1" d="M17,11.09a.78.78,0,0,1-.78-.78,8.71,8.71,0,0,0-8.7-8.7A.78.78,0,0,1,7.55,0,10.28,10.28,0,0,1,17.82,10.31a.78.78,0,0,1-.78.78Z" transform="translate(-0.04 -0.04)"/><path class="cls-1" d="M13.82,11.09a.78.78,0,0,1-.78-.78A5.49,5.49,0,0,0,7.55,4.82a.78.78,0,1,1,0-1.57,7.06,7.06,0,0,1,7.06,7.05.78.78,0,0,1-.78.78Z" transform="translate(-0.04 -0.04)"/><path class="cls-1" d="M8.57,18A8.53,8.53,0,0,1,0,9.52C0,7.24.28,5.63,1.89,4A.78.78,0,0,1,3,4L14,15a.78.78,0,0,1,0,1.11c-1.61,1.61-3.11,2-5.38,2Z" transform="translate(-0.04 -0.04)"/><path class="cls-1" d="M8.43,10.44A.78.78,0,0,1,7.88,9.1L8.95,8a.78.78,0,0,1,1.11,1.11L9,10.21a.78.78,0,0,1-.55.23Z" transform="translate(-0.04 -0.04)"/></svg>