<svg id="Ebene_1" data-name="Ebene 1" xmlns="http://www.w3.org/2000/svg" viewBox="0 0 26.8 42.65"><defs><style>.cls-1{fill:#fff;}</style></defs><title>icon_edit_hover</title><path class="cls-1" d="M9.41,43.16s-0.56,1.31-2.83.49L2.11,42C0,41.29.47,40,.47,40L8.18,18.42l8.94,3.2Z" transform="translate(-0.42 -1.27)"/><path class="cls-1" d="M23.6,5.87l-1.76,7A3,3,0,0,1,18,14.72l-6-2.14a3,3,0,0,1-1.81-3.84l3.12-6.58-2.51-.9-0.15.06A11.34,11.34,0,0,0,4.2,8,11.71,11.71,0,0,0,11.49,22.9,11.71,11.71,0,0,0,26.56,16a11.35,11.35,0,0,0-.75-9.29l-0.05-.1Z" transform="translate(-0.42 -1.27)"/></svg>