<?xml version="1.0" encoding="utf-8"?>
<!-- Generator: Adobe Illustrator 19.2.0, SVG Export Plug-In . SVG Version: 6.00 Build 0)  -->
<svg version="1.1" xmlns="http://www.w3.org/2000/svg" xmlns:xlink="http://www.w3.org/1999/xlink" x="0px" y="0px"
	 viewBox="0 0 41.1 53.1" style="enable-background:new 0 0 41.1 53.1;" xml:space="preserve">
<style type="text/css">
	.st0{display:none;}
	.st1{display:inline;}
	.st2{fill:#FFFFFF;}
</style>
<g id="Ebene_2" class="st0">
	<rect x="-3" y="-1.3" class="st1" width="55.3" height="67.7"/>
</g>
<g id="Ebene_1">
	<path class="st2" d="M19.5,0.5C9.1,0.5,0.7,8.9,0.7,19.3c0,10.4,8.4,18.8,18.8,18.8s18.8-8.4,18.8-18.8C38.3,8.9,29.9,0.5,19.5,0.5
		z M19.5,33c-7.6,0-13.7-6.1-13.7-13.7c0-7.6,6.1-13.7,13.7-13.7s13.7,6.1,13.7,13.7C33.2,26.9,27.1,33,19.5,33z"/>
	<rect x="18.2" y="12.8" class="st2" width="2.5" height="13.1"/>
	
		<rect x="18.2" y="12.8" transform="matrix(4.511040e-11 1 -1 4.511040e-11 38.7917 -0.2083)" class="st2" width="2.5" height="13.1"/>
	<path class="st2" d="M41.6,49.1c0,0,0.7,1.2-2,2.8s-3.5,0.7-3.5,0.7L26,36.5l5.5-3.5L41.6,49.1z"/>
</g>
</svg>
