<?xml version="1.0" encoding="utf-8"?>
<!-- Generator: Adobe Illustrator 21.0.0, SVG Export Plug-In . SVG Version: 6.00 Build 0)  -->
<svg version="1.1" id="Ebene_1" xmlns="http://www.w3.org/2000/svg" xmlns:xlink="http://www.w3.org/1999/xlink" x="0px" y="0px"
	 viewBox="0 0 25.9 43.9" style="enable-background:new 0 0 25.9 43.9;" xml:space="preserve">
<style type="text/css">
	.st0{fill:none;}
	.st1{display:none;}
	.st2{display:inline;}
	.st3{fill:#FBCD14;}
	.st4{display:none;fill:#FBCD14;enable-background:new    ;}
	.st5{font-family:'HelveticaNeue-Light';}
	.st6{font-size:14px;}
</style>
<line class="st0" x1="-211.1" y1="-26" x2="-211.6" y2="-26"/>
<g id="Pfeil" class="st1">
	<g class="st2">
		<polygon class="st3" points="17.8,43.5 28.5,32.8 27.1,31.4 18.6,39.9 18.6,19.6 16.6,19.6 16.6,39.8 8.1,31.4 6.7,32.8 
			17.4,43.5 17.6,43.7 17.6,43.7 17.6,43.7 		"/>
	</g>
</g>
<g id="Pfeil_2_" class="st1">
	<g class="st2">
		<polygon class="st3" points="17.8,43.5 28.5,32.8 27.1,31.4 18.6,39.9 18.6,19.6 16.6,19.6 16.6,39.8 8.1,31.4 6.7,32.8 
			17.4,43.5 17.6,43.7 17.6,43.7 17.6,43.7 		"/>
	</g>
</g>
<text transform="matrix(1 0 0 1 2.1589 10.4088)" class="st4 st5 st6">Hier !</text>
<polygon class="st3" points="24.6,32.8 23.2,31.4 14.7,39.9 14.7,19.6 12.7,19.6 12.7,39.8 4.3,31.4 2.9,32.8 13.8,43.7 13.8,43.7 
	13.8,43.7 "/>
</svg>
