<?xml version="1.0" encoding="utf-8"?>
<!-- Generator: Adobe Illustrator 19.2.0, SVG Export Plug-In . SVG Version: 6.00 Build 0)  -->
<svg version="1.1" id="Ebene_1" xmlns="http://www.w3.org/2000/svg" xmlns:xlink="http://www.w3.org/1999/xlink" x="0px" y="0px"
	 viewBox="0 0 21.76 24.11" style="enable-background:new 0 0 21.76 24.11;" xml:space="preserve">
<style type="text/css">
	.st0{fill:none;}
	.st1{display:none;}
	.st2{display:inline;}
	.st3{fill-rule:evenodd;clip-rule:evenodd;fill:#FBCD14;}
	.st4{display:inline;fill:#FBCD14;}
</style>
<line class="st0" x1="-217.96" y1="-45.53" x2="-218.46" y2="-45.53"/>
<g id="Pfeil" class="st1">
	<g class="st2">
		<polygon class="st3" points="10.9,23.93 21.64,13.24 20.22,11.82 11.68,20.33 11.68,-0.01 9.68,-0.01 9.68,20.25 1.22,11.82 
			-0.19,13.24 10.55,23.93 10.72,24.11 10.72,24.11 10.72,24.11 		"/>
	</g>
</g>
<g id="Pfeil_2_" class="st1">
	<g class="st2">
		<polygon class="st3" points="10.9,23.93 21.64,13.24 20.22,11.82 11.68,20.33 11.68,-0.01 9.68,-0.01 9.68,20.25 1.22,11.82 
			-0.19,13.24 10.55,23.93 10.72,24.11 10.72,24.11 10.72,24.11 		"/>
	</g>
</g>
<text transform="matrix(1 0 0 1 -4.7159 -9.172)" style="display:none;fill:#FBCD14; font-family:'HelveticaNeue-Light'; font-size:14px;">Hier !</text>
<polygon class="st3" points="0,10.87 1.41,12.29 9.9,3.8 9.9,24.11 11.9,24.11 11.9,3.84 20.35,12.29 21.76,10.87 10.89,0 
	10.88,0.01 10.87,0 "/>
</svg>
