<svg id="Layer_3" data-name="Layer 3" xmlns="http://www.w3.org/2000/svg" viewBox="0 0 22.71 22.99"><defs><style>.cls-1{fill:#fcce14;}</style></defs><title>icon_transmitter_active</title><path class="cls-1" d="M490.38,1510.19a1,1,0,0,1-1-1,11.12,11.12,0,0,0-11.11-11.11,1,1,0,1,1,0-2,13.13,13.13,0,0,1,13.11,13.11,1,1,0,0,1-1,1Z" transform="translate(-468.67 -1496.08)"/><path class="cls-1" d="M486.27,1510.19a1,1,0,0,1-1-1,7,7,0,0,0-7-7,1,1,0,0,1,0-2,9,9,0,0,1,9,9,1,1,0,0,1-1,1Z" transform="translate(-468.67 -1496.08)"/><path class="cls-1" d="M479.56,1519.07a10.89,10.89,0,0,1-10.89-10.89c0-2.91.31-5,2.36-7a1,1,0,0,1,1.41,0l14,14a1,1,0,0,1,0,1.41c-2.06,2.06-4,2.51-6.88,2.51Z" transform="translate(-468.67 -1496.08)"/><path class="cls-1" d="M479.39,1509.35a1,1,0,0,1-.71-1.71l1.37-1.37a1,1,0,0,1,1.41,1.41l-1.37,1.37a1,1,0,0,1-.71.29Z" transform="translate(-468.67 -1496.08)"/></svg>