<?xml version="1.0" encoding="utf-8"?>
<!-- Generator: Adobe Illustrator 21.0.0, SVG Export Plug-In . SVG Version: 6.00 Build 0)  -->
<svg version="1.1" id="Ebene_1" xmlns="http://www.w3.org/2000/svg" xmlns:xlink="http://www.w3.org/1999/xlink" x="0px" y="0px"
	 viewBox="0 0 21.8 24.1" style="enable-background:new 0 0 21.8 24.1;" xml:space="preserve">
<style type="text/css">
	.st0{fill:none;}
	.st1{display:none;}
	.st2{display:inline;}
	.st3{fill:#FBCD14;}
	.st4{display:none;enable-background:new    ;}
	.st5{display:inline;fill:#FBCD14;}
	.st6{fill:#FFFFFF;}
</style>
<line class="st0" x1="-218" y1="-45.5" x2="-218.5" y2="-45.5"/>
<g id="Pfeil" class="st1">
	<g class="st2">
		<polygon class="st3" points="10.9,23.9 21.6,13.2 20.2,11.8 11.7,20.3 11.7,0 9.7,0 9.7,20.2 1.2,11.8 -0.2,13.2 10.6,23.9 
			10.7,24.1 10.7,24.1 10.7,24.1 		"/>
	</g>
</g>
<g id="Pfeil_2_" class="st1">
	<g class="st2">
		<polygon class="st3" points="10.9,23.9 21.6,13.2 20.2,11.8 11.7,20.3 11.7,0 9.7,0 9.7,20.2 1.2,11.8 -0.2,13.2 10.6,23.9 
			10.7,24.1 10.7,24.1 10.7,24.1 		"/>
	</g>
</g>
<text transform="matrix(1 0 0 1 -4.7159 -9.172)" style="display:none;fill:#FBCD14;enable-background:new    ; font-family:'HelveticaNeue-Light'; font-size:14px;">Hier !</text>
<polygon class="st6" points="0,10.9 1.4,12.3 9.9,3.8 9.9,24.1 11.9,24.1 11.9,3.8 20.4,12.3 21.8,10.9 10.9,0 10.9,0 10.9,0 "/>
</svg>
