<svg id="Ebene_2" data-name="Ebene 2" xmlns="http://www.w3.org/2000/svg" viewBox="0 0 40 40"><defs><style>.cls-1{fill:#df4932;}.cls-2{fill:#fff;fill-rule:evenodd;}</style></defs><title>icon_googleplus</title><rect class="cls-1" width="40" height="40"/><path class="cls-2" d="M22.53,10.38H17.6a10.53,10.53,0,0,0-2.1.23,5.35,5.35,0,0,0-2.19,1.14,4.53,4.53,0,0,0-1.53,3.31,3.72,3.72,0,0,0,1.08,2.65,3.78,3.78,0,0,0,3,1.25,7,7,0,0,0,.79,0l-0.15.43a1.41,1.41,0,0,0-.09.55,1.73,1.73,0,0,0,.24.94,5.3,5.3,0,0,0,.48.75,18.91,18.91,0,0,0-2.17.22,7.65,7.65,0,0,0-2.52.92A3.62,3.62,0,0,0,11,24.19a3.5,3.5,0,0,0-.42,1.53,3,3,0,0,0,1.29,2.43,6,6,0,0,0,3.87,1.11,7.15,7.15,0,0,0,4.74-1.49A4.16,4.16,0,0,0,22,24.58a3.61,3.61,0,0,0-.58-2.06,8.44,8.44,0,0,0-1.37-1.42l-0.84-.69A4.94,4.94,0,0,1,18.87,20a0.93,0.93,0,0,1-.23-0.64,1.16,1.16,0,0,1,.22-0.7,3.46,3.46,0,0,1,.41-0.52L20,17.47a6.7,6.7,0,0,0,.58-0.71,3.74,3.74,0,0,0,.58-2.13A4.45,4.45,0,0,0,21,13.35a4.76,4.76,0,0,0-.45-0.94A4.5,4.5,0,0,0,20,11.7a3.36,3.36,0,0,0-.52-0.42H21ZM19.82,23.9a2.42,2.42,0,0,1,.61,1.65,2.35,2.35,0,0,1-.9,1.9,4.22,4.22,0,0,1-2.66.77,5.08,5.08,0,0,1-3.06-.87,2.56,2.56,0,0,1-1.18-2.15,2.25,2.25,0,0,1,.27-1.14,2.61,2.61,0,0,1,.58-0.75,3.23,3.23,0,0,1,.69-0.45l0.53-.22a10.52,10.52,0,0,1,1.57-.35,6.27,6.27,0,0,1,1,0l0.55,0A14.89,14.89,0,0,1,19.82,23.9ZM19,16.61a2.58,2.58,0,0,1-.4,1,2.3,2.3,0,0,1-1.62.7,2.15,2.15,0,0,1-1.37-.47,3.82,3.82,0,0,1-1-1.15,5.9,5.9,0,0,1-.78-2.8A3.07,3.07,0,0,1,14.4,12a2.17,2.17,0,0,1,1.67-.81,2.35,2.35,0,0,1,1.34.45,3.29,3.29,0,0,1,.92,1.16,6.57,6.57,0,0,1,.75,3A8,8,0,0,1,19,16.61Zm8.6,1.49V15.45H26.11V18.1H23.5v1.48h2.61v2.65h1.52V19.57h2.59V18.1H27.63Z" transform="translate(0.01 0.01)"/></svg>