<svg xmlns="http://www.w3.org/2000/svg" viewBox="0 0 40 40"><defs><style>.cls-1{fill:#13fffd;}.cls-2{fill:#fff;stroke:#fff;stroke-miterlimit:10;}</style></defs><title>icon_links</title><g id="Ebene_1" data-name="Ebene 1"><rect class="cls-1" width="40" height="40"/></g><g id="Ebene_2" data-name="Ebene 2"><path class="cls-2" d="M15.62,24.79A.89.89,0,0,1,15,23.28l7.74-7.74A.89.89,0,1,1,24,16.79l-7.74,7.74a.88.88,0,0,1-.63.26Z" transform="translate(-0.05 0.04)"/><path class="cls-2" d="M14.31,31a4.75,4.75,0,0,1-3.36-1.39l-1-1a4.75,4.75,0,0,1,0-6.72l2.2-2.2A4.72,4.72,0,0,1,16,18.31a.89.89,0,0,1-.16,1.77,3,3,0,0,0-2.36.85l-2.2,2.21a3,3,0,0,0,0,4.22l1,1a3,3,0,0,0,4.22,0l2.21-2.21a2.94,2.94,0,0,0,.85-2.36.89.89,0,1,1,1.77-.16,4.72,4.72,0,0,1-1.36,3.77L18,29.4A5.67,5.67,0,0,1,14.31,31Z" transform="translate(-0.05 0.04)"/><path class="cls-2" d="M24.79,9.57a4.75,4.75,0,0,1,3.31,1.52l.93,1a4.75,4.75,0,0,1-.27,6.72l-2.29,2.12a4.72,4.72,0,0,1-3.82,1.21.89.89,0,0,1,.23-1.76,3,3,0,0,0,2.39-.75l2.29-2.12a3,3,0,0,0,.17-4.21l-.92-1a3,3,0,0,0-4.21-.16l-2.29,2.12a2.94,2.94,0,0,0-.94,2.32.89.89,0,1,1-1.77.09,4.72,4.72,0,0,1,1.51-3.71l2-2a5.67,5.67,0,0,1,3.74-1.41Z" transform="translate(-0.05 0.04)"/></g></svg>