<svg id="Ebene_2" data-name="Ebene 2" xmlns="http://www.w3.org/2000/svg" viewBox="0 0 40 40"><defs><style>.cls-1{fill:#55acee;}.cls-2{fill:#fff;}</style></defs><title>icon_twitter</title><rect class="cls-1" width="40" height="40"/><path class="cls-2" d="M30.47,13.44a8.66,8.66,0,0,1-2.49.68,4.34,4.34,0,0,0,1.9-2.4,8.67,8.67,0,0,1-2.75,1.05,4.34,4.34,0,0,0-7.38,4,12.3,12.3,0,0,1-8.93-4.53A4.34,4.34,0,0,0,12.17,18a4.31,4.31,0,0,1-2-.54V17.5a4.33,4.33,0,0,0,3.47,4.25,4.34,4.34,0,0,1-2,.07,4.34,4.34,0,0,0,4,3,8.69,8.69,0,0,1-5.38,1.85,8.82,8.82,0,0,1-1-.06,12.32,12.32,0,0,0,19-10.38q0-.28,0-0.56A8.8,8.8,0,0,0,30.47,13.44Z" transform="translate(0.01 0.01)"/></svg>