<?xml version="1.0" encoding="utf-8"?>
<!-- Generator: Adobe Illustrator 19.2.0, SVG Export Plug-In . SVG Version: 6.00 Build 0)  -->
<svg version="1.1" id="Ebene_1" xmlns="http://www.w3.org/2000/svg" xmlns:xlink="http://www.w3.org/1999/xlink" x="0px" y="0px"
	 viewBox="0 0 36.6 37.1" style="enable-background:new 0 0 36.6 37.1;" xml:space="preserve">
<style type="text/css">
	.st0{fill-rule:evenodd;clip-rule:evenodd;fill:#FFFFFF;}
</style>
<path class="st0" d="M28.7,26.7v-1.6h2.5l-2.5-5.4l1.4-0.7l2,4.3l2-4.3l1.4,0.7l-2.5,5.4h2.5v1.6H28.7z M30.2,12.6h5.5v1.6h-5.5v3.1
	h-1.5V9.6h1.5V12.6z M32.2,36.5c-2.2,0-3.6-1.8-3.6-4c0-2.2,1.4-4,3.6-4c2.2,0,3.6,1.8,3.6,4C35.8,34.7,34.4,36.5,32.2,36.5z
	 M32.2,34.9c-1.3,0-2-1.1-2-2.4c0-1.3,0.7-2.4,2-2.4c1.3,0,2,1.1,2,2.4C34.2,33.8,33.5,34.9,32.2,34.9z M32.2,6.9
	c-1.3,0-2-1.1-2-2.4c0-1.3,0.7-2.4,2-2.4c1.3,0,2,1.1,2,2.4C34.2,5.8,33.5,6.9,32.2,6.9z M32.2,8.4c-2.2,0-3.6-1.8-3.6-4
	c0-2.2,1.4-4,3.6-4c2.2,0,3.6,1.8,3.6,4C35.8,6.7,34.4,8.4,32.2,8.4z M19.2,9.8c0-2.9-2.4-4-5.3-4c-2.9,0-5.3,1.1-5.3,4
	c0,2.9,2.4,4,5.3,4C16.8,13.8,19.2,12.8,19.2,9.8z M21.9,24.5c0-4.4-3.6-6.7-8-6.7c-4.4,0-8,2.2-8,6.7c0,4.4,3.6,6.7,8,6.7
	C18.3,31.1,21.9,28.9,21.9,24.5z M23.8,13.4c-0.3,0.7-0.6,1.3-1.1,1.9c2.7,2.1,4.4,5.2,4.4,9.2c0,7.4-6,12-13.3,12
	c-7.4,0-13.3-4.6-13.3-12c0-3.9,1.7-7.1,4.4-9.2C3.9,13.8,3.2,12,3.2,9.8c0-5.9,4.8-9.3,10.7-9.3c2,0,3.8,0.4,5.4,1.1L23.8,13.4z"/>
</svg>
