<?xml version="1.0" encoding="utf-8"?>
<!-- Generator: Adobe Illustrator 19.2.0, SVG Export Plug-In . SVG Version: 6.00 Build 0)  -->
<svg version="1.1" xmlns="http://www.w3.org/2000/svg" xmlns:xlink="http://www.w3.org/1999/xlink" x="0px" y="0px"
	 viewBox="0 0 197.7 180.6" style="enable-background:new 0 0 197.7 180.6;" xml:space="preserve">
<style type="text/css">
	.st0{display:none;}
	.st1{display:inline;stroke:#FFFFFF;stroke-miterlimit:10;}
	.st2{display:inline;fill:none;stroke:#FFFFFF;stroke-width:2;stroke-miterlimit:10;}
	.st3{fill:none;stroke:#FFFFFF;stroke-width:2;stroke-miterlimit:10;}
	.st4{fill:none;stroke:#FFFFFF;stroke-width:0.5;stroke-miterlimit:10;}
</style>
<g id="Ebene_2" class="st0">
	<rect class="st1" width="200.1" height="180.6"/>
</g>
<g id="Ebene_1" class="st0">
	<title>planet3</title>
	<path class="st2" d="M33.8,42.5c6.6-8,14.6-14.6,23.6-19.7"/>
	<path class="st2" d="M20.5,118.1c-3.1-8.5-4.7-17.4-4.7-26.4c0.1-11.1,2.6-22.1,7.2-32.2"/>
	<path class="st2" d="M105.2,171.4c-1.7,0.1-3.4,0.1-5.2,0.1c-24.1,0-45.6-9.4-61-24.7"/>
	<path class="st2" d="M175.5,127.2c-8.8,16.5-23,29.6-40.2,37"/>
	<path class="st2" d="M179.7,65.7c3.1,8.3,4.6,17.1,4.6,26c0,7.4-1.1,14.7-3.1,21.7"/>
	<path class="st2" d="M97.7,11.8c0.8,0,1.6,0,2.3,0c20.4,0,40.1,7.1,55.8,20.1"/>
	<ellipse transform="matrix(0.9845 -0.1754 0.1754 0.9845 -5.1238 16.1102)" class="st2" cx="88.6" cy="37" rx="7.6" ry="5.5"/>
	<ellipse transform="matrix(0.9845 -0.1754 0.1754 0.9845 -5.1878 16.4081)" class="st2" cx="90.2" cy="37.6" rx="14.5" ry="10.5"/>
	<ellipse transform="matrix(0.7115 -0.7026 0.7026 0.7115 -27.0869 38.1047)" class="st2" cx="32.9" cy="52" rx="8.2" ry="4.4"/>
	<ellipse transform="matrix(0.7115 -0.7026 0.7026 0.7115 -26.6601 38.7723)" class="st2" cx="33.9" cy="51.9" rx="13.7" ry="7.4"/>
	<ellipse class="st2" cx="72.7" cy="108.8" rx="7" ry="7.7"/>
	<path class="st2" d="M84.3,109.1c0,7.2-5.3,13-11.9,13c-6.4-0.1-11.7-5.9-11.9-13s5.3-13,11.9-13S84.3,102,84.3,109.1z"/>
	<circle class="st2" cx="169" cy="116" r="6.1"/>
	<circle class="st2" cx="166.2" cy="115.3" r="15.1"/>
	
		<ellipse transform="matrix(0.6609 -0.7505 0.7505 0.6609 26.7051 142.2819)" class="st2" cx="170.8" cy="41.6" rx="2.3" ry="12.9"/>
	<ellipse transform="matrix(0.6609 -0.7505 0.7505 0.6609 26.4785 142.1769)" class="st2" cx="170.6" cy="41.8" rx="0.9" ry="5.1"/>
	<ellipse transform="matrix(0.9501 -0.3118 0.3118 0.9501 -41.1977 12.8177)" class="st2" cx="19.5" cy="135.2" rx="3.1" ry="9.9"/>
	<ellipse transform="matrix(0.9501 -0.3118 0.3118 0.9501 -41.1553 13.0789)" class="st2" cx="20.3" cy="135.2" rx="1.4" ry="4.5"/>
	
		<ellipse transform="matrix(0.9378 -0.3473 0.3473 0.9378 -52.2922 53.7165)" class="st2" cx="123.7" cy="172.8" rx="11.7" ry="5.9"/>
	
		<ellipse transform="matrix(0.9378 -0.3473 0.3473 0.9378 -52.0053 53.6376)" class="st2" cx="123.6" cy="171.9" rx="6.2" ry="3.1"/>
	<path class="st2" d="M4.5,92.7c-3-0.6-4.4-6.6-3.1-13.4s4.7-12,7.7-11.4"/>
	<ellipse transform="matrix(0.9378 -0.3473 0.3473 0.9378 2.594 26.1013)" class="st2" cx="74.1" cy="5.8" rx="12.2" ry="2.4"/>
	<ellipse transform="matrix(0.5 -0.866 0.866 0.5 60.1565 123.2361)" class="st2" cx="136.8" cy="9.5" rx="2.1" ry="11.1"/>
	<path class="st2" d="M190.7,72.1c0.9-0.2,3,5,4.5,11.6s2,12.2,1.1,12.4"/>
	<path class="st2" d="M181.2,141.2c0.9,0.6-1.2,5.1-4.7,10s-7,8.4-7.9,7.7"/>
	<path class="st2" d="M15.7,126.4c-0.3-1.3-0.1-2.6,0.6-3.7c0.8-1,1.6-1.9,2.5-2.7c2.1-2.2,3.2-5.1,3-8.1l-0.4,0.1"/>
	<path class="st2" d="M20.7,143.8c1.4,1.4,3.9,3.1,5.9,3.4c2.5,0.3,4.9,0.3,7.4,0l12.1-0.9"/>
	<path class="st2" d="M58.1,108.3c-0.6-3.4-0.7-6.8-0.2-10.2c0.3-2.8,0.9-5.6,1.9-8.2"/>
	<path class="st2" d="M58.1,108.3c0.5,6,1.6,11.9,3.3,17.7c1.8,5.5,5.1,10.1,6.4,11.4"/>
	<path class="st2" d="M163.5,130.1c-3.2,0-7.8,0.7-11.7,0.9c-4.2,0.2-8.7,0.4-12.2,2.8l0.6-0.3"/>
	<path class="st2" d="M169.1,86c0.3,6.7,2.9,13.1,7.4,18.1"/>
	<path class="st2" d="M23.1,59.5C23,61.3,25,66,25.3,66.7c0.6,1.4,1,2.9,1.1,4.4c0.2,1.7,0,3.4-0.5,5"/>
	<path class="st2" d="M40.5,40.8c1.7,0.3,5,0.8,6.7,1.1c1.5,0.3,3,0.5,4.5,0.5c2-0.2,4-0.6,5.9-1.3l0.1-0.4"/>
	<path class="st2" d="M66.4,42.6l0.1,0.2"/>
	<path class="st2" d="M67.8,44.6c1.4-0.2,2.7-0.8,3.8-1.7c0.8-0.7,1.6-1.5,2.3-2.4c1.1-1.2,1.9-2.6,2.3-4.1"/>
	<path class="st2" d="M97,27.7c5.9,1.7,12.1,2.3,17.8,0"/>
	<path class="st2" d="M143.8,32.4c0.2,0.4,0.6,0.6,1,0.7c2.7,1,5.6,0.2,8.4-0.5s6.2-1.1,8.6,0.2"/>
	<path class="st2" d="M180.6,50c0,7.3-0.9,14.7-1.4,22c-0.1,1.1,0,2.5,1,2.9"/>
	<path class="st2" d="M196.2,96.2c-4.9,2-9.4,5.1-13.1,8.9"/>
	<path class="st2" d="M190.8,72.1c-3.1-0.6-6.2-0.9-9.4-0.9"/>
	<path class="st2" d="M136.4,157c-1.3,1.6-1.4,3.9-1.3,6c0,0.7,0.1,1.3,0.1,2.6c0,1.5-0.2,3-0.4,4.5"/>
	<path class="st2" d="M93.6,165.1c4.9,1.4,9.1,4.3,13.2,7.4c2,1.5,4.4,3.5,6.4,5"/>
	<path class="st2" d="M146.9,158.1c1.3-0.1,3.5-0.3,4.8-0.4s2.3-0.3,3.5-0.3c4.5-0.3,9.1,0.2,13.5,1.5"/>
	<path class="st2" d="M178,124.8c0.3,2.4,0.8,5.6,1.1,8c0.1,1.3,0.8,7,2,8.3"/>
	<path class="st2" d="M6.6,68.6c3-2,6.2-3.4,9.7-4.3c1.9-0.4,3.7-1,5.4-1.9"/>
	<path class="st2" d="M3.7,92.4c1,0.9,5.6,5.6,6.9,7s5.5,5.1,6.6,6.3"/>
	<path class="st2" d="M62.6,9.7c-0.3,1.7-0.7,3.5-1.2,5.4c-0.4,1.3-0.8,2.6-1.3,3.9c-0.6,1.8-1.9,3.3-3.5,4.2"/>
	<path class="st2" d="M85.6,1.6c1.6,0.7,3,1.7,4.3,2.9c1.1,0.9,2.1,2,2.9,3.1c1,1.4,2.3,2.6,3.6,3.7c0.6,0.4,1.2,0.6,1.9,0.6"/>
	<path class="st2" d="M127.8,3.7c-1.7,0-3.3,0.6-4.6,1.6c-2.7,2.1-4.8,4.8-7.4,7c-0.5,0.5-1.2,0.6-1.9,0.5"/>
	<path class="st2" d="M146.5,14.8c0.3,0.7,0.9,1.8,1.2,6.3c0.1,1.5,0.1,3.1,0.1,4.6"/>
</g>
<g id="Ebene_3">
	<path class="st3" d="M30.6,39.3c6.8-8.2,15.2-15.3,24.6-20.6"/>
	<path class="st3" d="M17.8,121.3c-3.6-9.6-6-20.9-6-30.6c0-11.8,2.8-23.5,7.6-33.7"/>
	<path class="st3" d="M108.2,173.6c-1.8,0.1-6.6,0.6-8.4,0.6c-24.8,0-47.1-9.5-63.1-25.2c-0.2-0.2-4.3-4.6-4.5-4.8"/>
	<path class="st3" d="M178.7,127.8c-8.8,16.9-23.5,30.5-41.5,38.5c-0.2,0.1-2,0.9-2.2,1"/>
	<path class="st3" d="M183.1,63.5c3.2,8.6,4.8,17.5,4.8,27.2c0,7.9-1.1,15.5-3.3,22.7"/>
	<path class="st3" d="M97.4,7.2c0.8,0,1.6,0,2.5,0c22.4,0.1,42.8,8,58.3,21"/>
	<ellipse transform="matrix(0.9845 -0.1753 0.1753 0.9845 -4.5788 16.2404)" class="st4" cx="89.6" cy="34" rx="12.2" ry="8"/>
	<ellipse transform="matrix(0.9845 -0.1753 0.1753 0.9845 -4.5958 16.2312)" class="st3" cx="89.6" cy="34.1" rx="15.1" ry="11"/>
	<ellipse transform="matrix(0.7115 -0.7027 0.7027 0.7115 -25.5879 35.7)" class="st4" cx="30.7" cy="49" rx="11.2" ry="4.5"/>
	<ellipse transform="matrix(0.7115 -0.7027 0.7027 0.7115 -25.6319 35.6979)" class="st3" cx="30.7" cy="49.1" rx="14.3" ry="7.7"/>
	<ellipse class="st4" cx="71.1" cy="108.8" rx="9" ry="9.8"/>
	<path class="st3" d="M83.4,108.9c0,7.5-5.6,13.6-12.4,13.6c-6.7-0.1-12.2-6.1-12.4-13.6c-0.2-7.5,5.6-13.6,12.4-13.6
		C77.8,95.4,83.4,101.4,83.4,108.9z"/>
	<circle class="st4" cx="169.1" cy="115.3" r="12.1"/>
	<circle class="st3" cx="169" cy="115.3" r="15.8"/>
	
		<ellipse transform="matrix(0.6609 -0.7505 0.7505 0.6609 30.1558 143.3899)" class="st3" cx="173.7" cy="38.3" rx="2.4" ry="13.5"/>
	<ellipse transform="matrix(0.6609 -0.7505 0.7505 0.6609 30.4078 143.5014)" class="st4" cx="174" cy="38.1" rx="0.8" ry="6.8"/>
	
		<ellipse transform="matrix(0.8761 -0.4822 0.4822 0.8761 -63.3926 26.2309)" class="st3" cx="19.3" cy="136.4" rx="3.3" ry="10.3"/>
	<ellipse transform="matrix(0.866 -0.5 0.5 0.866 -65.633 28.1937)" class="st4" cx="19.8" cy="136.6" rx="0.7" ry="6.5"/>
	
		<ellipse transform="matrix(0.9378 -0.3473 0.3473 0.9378 -52.2246 53.4895)" class="st3" cx="123.1" cy="172.4" rx="12.2" ry="6.1"/>
	
		<ellipse transform="matrix(0.9378 -0.3473 0.3473 0.9378 -52.2463 53.5338)" class="st4" cx="123.2" cy="172.5" rx="8.9" ry="2.8"/>
	<path class="st3" d="M5.5,92.5c-3.1-0.6-4.6-6.9-3.2-14s4.9-12.5,8.1-11.9"/>
	<ellipse transform="matrix(0.9378 -0.3473 0.3473 0.9378 2.4712 26.2455)" class="st3" cx="74.5" cy="6.2" rx="12.8" ry="2.5"/>
	<ellipse transform="matrix(0.5 -0.866 0.866 0.5 61.1755 121.9873)" class="st3" cx="136.2" cy="8" rx="2.2" ry="11.6"/>
	<path class="st3" d="M190.1,71c1-0.2,3.1,5.2,4.7,12.2s2.1,12.8,1.1,13"/>
	<path class="st3" d="M178.2,138.9c0.9,0.7-1.3,5.3-4.9,10.4c-3.6,5.1-7.3,8.7-8.3,8.1"/>
	<path class="st3" d="M13.6,128.9c-0.3-1.3-0.1-2.7,0.7-3.9c0.7-1.1,1.8-1.9,2.7-2.8c2.2-2.2,3.3-5.4,3.1-8.4
		c-0.1,0-0.3,0.1-0.4,0.1"/>
	<path class="st3" d="M24.3,145.4c2.7,0,2.2-0.7,5.2-0.9c4.5-0.3,7.7,0.2,10.9,0"/>
	<path class="st3" d="M166.1,130.8c-3.3,0-8.2,0.7-12.2,0.9"/>
	<path class="st3" d="M172.5,91.2c0.4,7,2,6.8,6.7,11.9"/>
	<path class="st3" d="M19.4,57c-0.1,2,2,6.8,2.4,7.5c0.8,1.6,1.1,3.7,1.2,4.6"/>
	<path class="st3" d="M37.6,37.6c1.8,0.3,5.2,0.8,7,1.2c1.6,0.3,3.2,0.6,4.8,0.5"/>
	<path class="st3" d="M66.1,41.5c1.5-0.2,2.9-0.8,4-1.8c0.6-0.5,1.4-1.3,2.4-2.5c1.2-1.4,2-2.7,2.4-4.3"/>
	<path class="st3" d="M96.6,23.8c6.1,1.7,12.7,2.4,18.6,0.1"/>
	<path class="st3" d="M145.5,28.7c0.2,0.4,0.6,0.6,1,0.8c2.8,1.1,5.9,0.2,8.8-0.5s6.4-1.2,9,0.3"/>
	<path class="st3" d="M184,47.1c0,7.6-1,15.4-1.5,23c-0.1,1.2,0,2.6,1.1,3"/>
	<path class="st3" d="M195.9,96.1c-4.8,2-5.9,4.7-9.3,8.6"/>
	<path class="st3" d="M190.4,71.2c-2.9-0.5-2.7-2-5.6-1.9"/>
	<path class="st3" d="M136.4,162.8c-0.7,0.8-1.5,1.9-1.5,3.2c0,0.4,0.2,2.4-0.1,4"/>
	<path class="st3" d="M103.3,170.5c2.3,0.8,3.1,1.4,4.4,2.6c1.9,1.8,1.9,1.6,4,3.2"/>
	<path class="st3" d="M151.5,158.5c1.3-0.1,3.6-0.3,5-0.5c1.2-0.1,2.4-0.3,3.6-0.4c1.8-0.1,3.7-0.1,5.5,0"/>
	<path class="st3" d="M176.9,129.3c0.3,2.5,0.9,5.8,1.1,8.3c0,0.4,0.1,1.1,0.3,2"/>
	<path class="st3" d="M9.7,66.5c1.9-0.5,5.4-1.3,7.1-2.4"/>
	<path class="st3" d="M4.4,92.1c2,0.7,2.5,1.8,4,3.2c1.5,1.5,3,2.9,4.2,4.2"/>
	<path class="st3" d="M62.5,10.7c-0.3,1.8,0.1,2.5-0.8,3.8c-1.8,2.3-7.4,4.9-7.4,4.7"/>
	<path class="st3" d="M86.1,1.5c1.5,0.6,3.2,3.3,4.1,4c2.8,2,6.9,1.7,7.8,1.7"/>
	<path class="st3" d="M126.5,2.3c-2.3,1.9-2.3,1.8-5.1,4.7c-0.9,1-2.9,2.5-3.5,2.1"/>
	<path class="st3" d="M146.2,13.5c0.3,0.7,0.3,4.8,0.2,6.6"/>
</g>
</svg>
