<?xml version="1.0" encoding="utf-8"?>
<!-- Generator: Adobe Illustrator 19.2.0, SVG Export Plug-In . SVG Version: 6.00 Build 0)  -->
<svg version="1.1" id="Ebene_1" xmlns="http://www.w3.org/2000/svg" xmlns:xlink="http://www.w3.org/1999/xlink" x="0px" y="0px"
	 viewBox="0 0 197.1 194.7" style="enable-background:new 0 0 197.1 194.7;" xml:space="preserve">
<style type="text/css">
	.st0{fill:none;stroke:#FFFFFF;stroke-miterlimit:10;}
</style>
<title>planet1</title>
<path class="st0" d="M56.8,21.8l0.8-0.5c17.1-8.9,36.8-11.9,55.8-8.3l0.7,0.1"/>
<path class="st0" d="M65.6,177.4l-0.6-0.3c-38.5-15.8-60.1-56.9-51.5-97.5l0.1-0.7"/>
<path class="st0" d="M132.2,176.3c-3.6,1.6-7.3,3-11.2,4l-0.4,0.1"/>
<path class="st0" d="M145.8,26.3l0.5,0.3c35.9,24.6,47.7,72.1,27.6,110.7c-0.1,0.2-0.2,0.6-0.3,0.8"/>
<circle class="st0" cx="90.8" cy="59" r="7.7"/>
<ellipse transform="matrix(0.9449 -0.3274 0.3274 0.9449 -39.8089 17.4219)" class="st0" cx="31.8" cy="127" rx="3.1" ry="6.4"/>
<ellipse transform="matrix(0.9449 -0.3274 0.3274 0.9449 -39.8876 17.2125)" class="st0" cx="31.2" cy="127.1" rx="6.2" ry="12.9"/>
<ellipse transform="matrix(6.331303e-02 -0.998 0.998 6.331303e-02 -100.2788 105.6554)" class="st0" cx="6.1" cy="106.2" rx="10.6" ry="5.1"/>
<ellipse transform="matrix(6.331303e-02 -0.998 0.998 6.331303e-02 -101.6901 102.4344)" class="st0" cx="3.7" cy="105.4" rx="2.1" ry="1"/>
<ellipse class="st0" cx="155" cy="78.6" rx="6.1" ry="5.4"/>
<ellipse class="st0" cx="82.1" cy="3.9" rx="12.3" ry="2.9"/>
<ellipse transform="matrix(0.7475 -0.6643 0.6643 0.7475 21.3695 116.1302)" class="st0" cx="163.4" cy="30" rx="2.9" ry="12.3"/>
<ellipse transform="matrix(0.4679 -0.8838 0.8838 0.4679 -28.5966 33.6612)" class="st0" cx="13.7" cy="40.6" rx="16" ry="5"/>
<ellipse transform="matrix(0.7475 -0.6643 0.6643 0.7475 -70.5872 153.2217)" class="st0" cx="166.2" cy="169.4" rx="17.4" ry="5.5"/>
<ellipse transform="matrix(0.7475 -0.6643 0.6643 0.7475 -71.0636 155.1999)" class="st0" cx="168.6" cy="171.1" rx="4.4" ry="1.4"/>
<ellipse transform="matrix(0.4679 -0.8838 0.8838 0.4679 -28.0379 32.1162)" class="st0" cx="12.7" cy="39.3" rx="4.7" ry="1.5"/>
<ellipse class="st0" cx="82.7" cy="3.5" rx="5.5" ry="1.3"/>
<ellipse transform="matrix(0.1994 -0.9799 0.9799 0.1994 84.739 143.1253)" class="st0" cx="130" cy="19.7" rx="10.5" ry="17.7"/>
<ellipse transform="matrix(0.1994 -0.9799 0.9799 0.1994 90.0945 140.2307)" class="st0" cx="130.9" cy="15" rx="2.8" ry="4.7"/>
<ellipse transform="matrix(0.7475 -0.6643 0.6643 0.7475 -73.2062 94.4288)" class="st0" cx="87.6" cy="143.5" rx="6.7" ry="8.1"/>
<ellipse transform="matrix(0.7475 -0.6643 0.6643 0.7475 -74.3909 94.8735)" class="st0" cx="87.6" cy="145.3" rx="13.7" ry="16.6"/>
<ellipse class="st0" cx="155" cy="79.4" rx="12.8" ry="11.4"/>
<circle class="st0" cx="90.8" cy="61.4" r="16.3"/>
<path class="st0" d="M110.2,193.6c0,0.3-7.3,0-16.3-0.9s-16.2-1.7-16.2-2"/>
<path class="st0" d="M194.3,82.7c0.3,0,0.9,7.3,1.4,16.2s0.5,16.3,0.2,16.3"/>
<path class="st0" d="M27.4,107c0.2,1.6,0.2,3.2,0,4.8c-0.3,1.6-1,3.1-2,4.3"/>
<path class="st0" d="M34.9,139.4c5.2-0.2,10.4,0.3,15.4,1.6"/>
<path class="st0" d="M75.6,55.5c0.3-0.2-2,3.9-4.2,7.6c-1.8,3.1-5.1,4.8-7,4.8"/>
<path class="st0" d="M98.5,47.3c1.8,0.2,7.9,1.8,11.6,2.9c3,1,6.2,1.3,9.4,0.9"/>
<path class="st0" d="M100.9,155c2.8-2.9,4.3-5.2,6-6.8c3.4-3.2,5.6-2.9,8.1-2.9"/>
<path class="st0" d="M96.5,17.9c4.6,0.3,6.3-0.2,10.8-1.2c2.4-0.6,4.6-1.8,6.5-3.4"/>
<path class="st0" d="M149.4,41.8c-2.4-2.6-3.7-6.1-3.6-9.6c0-1.6,0.4-4.2,0.7-7.1"/>
<path class="st0" d="M166.9,83.5c-0.5,2.3-2.4,6.8-1.8,9.7c0.7,3.8,1.8,5.8,4.9,7.8"/>
<path class="st0" d="M147.6,70.1c-2.5,1.2-5.2,2.2-7.9,2.9c-3.3,1-6.9,1-10.2,0"/>
<path class="st0" d="M71.1,121.3c1.9,2.7,2.9,5.9,2.7,9.2c-0.3,3.6-0.6,7.5-1.3,9.7"/>
<path class="st0" d="M3.4,115.7c1.1,1.8,2.3,3.5,3.8,5c2.4,2.5,5.6,4.2,9.1,4.8"/>
<path class="st0" d="M2.6,99.3C3.7,97,5.4,95,7.4,93.4c2.1-1.4,3.1-2.2,4.5-3"/>
<path class="st0" d="M6.2,54.7c5.7,3.5,5.6,7.8,6.5,12.8c0.9,4.2,1.1,8.5,0.7,12.8"/>
<path class="st0" d="M20.7,26.3c6.9,5.6,19.2-1.1,36.2-4.4"/>
<path class="st0" d="M69.9,4c-0.7,8-4.7,11-8.6,14c-1.6,1.1-3,2.4-4.4,3.8"/>
<path class="st0" d="M94.4,4c-0.1,1.2,0.2,2.4,0.9,3.4c1.1,1.7,2.5,3.1,4.2,4.1"/>
<path class="st0" d="M147.2,22.7c2.7-0.9,5.5-1.5,8.4-2"/>
<path class="st0" d="M171.6,39.2c-0.6,1.3-1.2,2.6-2,4.6c-0.6,1.4-1.6,4.3-1.6,4.4"/>
<path class="st0" d="M181,76.3c1.2,1.8,3,3.2,5.1,3.9c1.1,0.3,2.2,0.5,3.2,0.8c1.7,0.4,3.4,0.9,4.9,1.7"/>
<path class="st0" d="M195.9,115.2c-3.5,0-6.9,0.9-9.8,2.7c-2.4,1.4-6.4,7.2-7.5,8.4"/>
<path class="st0" d="M173.5,137.9c0.5,3.7,1.3,7.3,2.5,10.8c1.1,3.3,2.4,5.7,3.7,10.1"/>
<path class="st0" d="M153.2,181c-2.5-1.7-5.2-3-8-4c-2.4-0.7-10.4-1.9-13-0.7"/>
<path class="st0" d="M65.6,177.4c1.4,1,7.5,2.7,10.2,6.6c0.8,1.2,2,2.4,2,6.6"/>
<path class="st0" d="M110.2,193.6c-0.1-4.6,1.3-7.5,3.8-9.5c2.3-1.4,4.7-2.7,7.1-3.8"/>
</svg>
