<?xml version="1.0" encoding="utf-8"?>
<!-- Generator: Adobe Illustrator 19.2.0, SVG Export Plug-In . SVG Version: 6.00 Build 0)  -->
<svg version="1.1" id="Ebene_1" xmlns="http://www.w3.org/2000/svg" xmlns:xlink="http://www.w3.org/1999/xlink" x="0px" y="0px"
	 viewBox="0 0 197.1 194.7" style="enable-background:new 0 0 197.1 194.7;" xml:space="preserve">
<style type="text/css">
	.st0{display:none;}
	.st1{display:inline;stroke:#FFFFFF;stroke-miterlimit:10;}
	.st2{display:inline;fill:none;stroke:#FFFFFF;stroke-width:2;stroke-miterlimit:10;}
	.st3{fill:none;stroke:#FFFFFF;stroke-width:2;stroke-miterlimit:10;}
	.st4{fill:none;stroke:#FFFFFF;stroke-width:0.5;stroke-miterlimit:10;}
</style>
<g id="Ebene_2" class="st0">
	<rect x="-7" y="-3.1" class="st1" width="225" height="204"/>
</g>
<g id="Ebene_1_1_" class="st0">
	<title>planet1</title>
	<path class="st2" d="M56.8,21.8l0.8-0.5c17.1-8.9,36.8-11.9,55.8-8.3l0.7,0.1"/>
	<path class="st2" d="M65.6,177.4l-0.6-0.3c-38.5-15.8-60.1-56.9-51.5-97.5l0.1-0.7"/>
	<path class="st2" d="M132.2,176.3c-3.6,1.6-7.3,3-11.2,4l-0.4,0.1"/>
	<path class="st2" d="M145.8,26.3l0.5,0.3c35.9,24.6,47.7,72.1,27.6,110.7c-0.1,0.2-0.2,0.6-0.3,0.8"/>
	<circle class="st2" cx="90.8" cy="58.9" r="7.7"/>
	<ellipse transform="matrix(0.9449 -0.3274 0.3274 0.9449 -39.8298 17.4173)" class="st2" cx="31.8" cy="127" rx="3.1" ry="6.4"/>
	
		<ellipse transform="matrix(0.9449 -0.3274 0.3274 0.9449 -39.8903 17.2212)" class="st2" cx="31.2" cy="127.1" rx="6.2" ry="12.9"/>
	
		<ellipse transform="matrix(6.331263e-02 -0.998 0.998 6.331263e-02 -100.3691 105.6446)" class="st2" cx="6.1" cy="106.3" rx="10.6" ry="5.1"/>
	
		<ellipse transform="matrix(6.331263e-02 -0.998 0.998 6.331263e-02 -101.7065 102.4668)" class="st2" cx="3.7" cy="105.4" rx="2.1" ry="1"/>
	<ellipse class="st2" cx="155" cy="78.6" rx="6.1" ry="5.4"/>
	<ellipse class="st2" cx="82.1" cy="3.9" rx="12.3" ry="2.9"/>
	<ellipse transform="matrix(0.7475 -0.6643 0.6643 0.7475 21.3375 116.1482)" class="st2" cx="163.4" cy="30" rx="2.9" ry="12.3"/>
	<ellipse transform="matrix(0.4679 -0.8838 0.8838 0.4679 -28.5497 33.6811)" class="st2" cx="13.7" cy="40.5" rx="16" ry="5"/>
	
		<ellipse transform="matrix(0.7475 -0.6643 0.6643 0.7475 -70.5936 153.1776)" class="st2" cx="166.2" cy="169.4" rx="17.4" ry="5.5"/>
	
		<ellipse transform="matrix(0.7475 -0.6643 0.6643 0.7475 -71.0749 155.2209)" class="st2" cx="168.6" cy="171.1" rx="4.4" ry="1.4"/>
	<ellipse transform="matrix(0.4679 -0.8838 0.8838 0.4679 -27.9908 32.0705)" class="st2" cx="12.6" cy="39.3" rx="4.7" ry="1.5"/>
	<ellipse class="st2" cx="82.7" cy="3.5" rx="5.5" ry="1.3"/>
	<ellipse transform="matrix(0.1994 -0.9799 0.9799 0.1994 84.7781 143.0998)" class="st2" cx="130" cy="19.7" rx="10.5" ry="17.7"/>
	<ellipse transform="matrix(0.1994 -0.9799 0.9799 0.1994 90.1413 140.2369)" class="st2" cx="130.9" cy="15" rx="2.8" ry="4.7"/>
	<ellipse transform="matrix(0.7475 -0.6643 0.6643 0.7475 -73.2051 94.4295)" class="st2" cx="87.6" cy="143.5" rx="6.7" ry="8.1"/>
	
		<ellipse transform="matrix(0.7475 -0.6643 0.6643 0.7475 -74.3915 94.8889)" class="st2" cx="87.6" cy="145.3" rx="13.7" ry="16.6"/>
	<ellipse class="st2" cx="155" cy="79.4" rx="12.8" ry="11.4"/>
	<circle class="st2" cx="90.8" cy="61.4" r="16.3"/>
	<path class="st2" d="M110.2,193.6c0,0.3-7.3,0-16.3-0.9s-16.2-1.7-16.2-2"/>
	<path class="st2" d="M194.3,82.7c0.3,0,0.9,7.3,1.4,16.2s0.5,16.3,0.2,16.3"/>
	<path class="st2" d="M27.4,107c0.2,1.6,0.2,3.2,0,4.8c-0.3,1.6-1,3.1-2,4.3"/>
	<path class="st2" d="M34.9,139.4c5.2-0.2,10.4,0.3,15.4,1.6"/>
	<path class="st2" d="M75.6,55.5c0.3-0.2-2,3.9-4.2,7.6c-1.8,3.1-5.1,4.8-7,4.8"/>
	<path class="st2" d="M98.5,47.3c1.8,0.2,7.9,1.8,11.6,2.9c3,1,6.2,1.3,9.4,0.9"/>
	<path class="st2" d="M100.9,155c2.8-2.9,4.3-5.2,6-6.8c3.4-3.2,5.6-2.9,8.1-2.9"/>
	<path class="st2" d="M96.5,17.9c4.6,0.3,6.3-0.2,10.8-1.2c2.4-0.6,4.6-1.8,6.5-3.4"/>
	<path class="st2" d="M149.4,41.8c-2.4-2.6-3.7-6.1-3.6-9.6c0-1.6,0.4-4.2,0.7-7.1"/>
	<path class="st2" d="M166.9,83.5c-0.5,2.3-2.4,6.8-1.8,9.7c0.7,3.8,1.8,5.8,4.9,7.8"/>
	<path class="st2" d="M147.6,70.1c-2.5,1.2-5.2,2.2-7.9,2.9c-3.3,1-6.9,1-10.2,0"/>
	<path class="st2" d="M71.1,121.3c1.9,2.7,2.9,5.9,2.7,9.2c-0.3,3.6-0.6,7.5-1.3,9.7"/>
	<path class="st2" d="M3.4,115.7c1.1,1.8,2.3,3.5,3.8,5c2.4,2.5,5.6,4.2,9.1,4.8"/>
	<path class="st2" d="M2.6,99.3C3.7,97,5.4,95,7.4,93.4c2.1-1.4,3.1-2.2,4.5-3"/>
	<path class="st2" d="M6.2,54.7c5.7,3.5,5.6,7.8,6.5,12.8c0.9,4.2,1.1,8.5,0.7,12.8"/>
	<path class="st2" d="M20.7,26.3c6.9,5.6,19.2-1.1,36.2-4.4"/>
	<path class="st2" d="M69.9,4c-0.7,8-4.7,11-8.6,14c-1.6,1.1-3,2.4-4.4,3.8"/>
	<path class="st2" d="M94.4,4c-0.1,1.2,0.2,2.4,0.9,3.4c1.1,1.7,2.5,3.1,4.2,4.1"/>
	<path class="st2" d="M147.2,22.7c2.7-0.9,5.5-1.5,8.4-2"/>
	<path class="st2" d="M171.6,39.1c-0.6,1.3-1.2,2.6-2,4.6c-0.6,1.4-1.6,4.3-1.6,4.4"/>
	<path class="st2" d="M181,76.3c1.2,1.8,3,3.2,5.1,3.9c1.1,0.3,2.2,0.5,3.2,0.8c1.7,0.4,3.4,0.9,4.9,1.7"/>
	<path class="st2" d="M195.9,115.2c-3.5,0-6.9,0.9-9.8,2.7c-2.4,1.4-6.4,7.2-7.5,8.4"/>
	<path class="st2" d="M173.5,137.9c0.5,3.7,1.3,7.3,2.5,10.8c1.1,3.3,2.4,5.7,3.7,10.1"/>
	<path class="st2" d="M153.2,181c-2.5-1.7-5.2-3-8-4c-2.4-0.7-10.4-1.9-13-0.7"/>
	<path class="st2" d="M65.6,177.4c1.4,1,7.5,2.7,10.2,6.6c0.8,1.2,2,2.4,2,6.6"/>
	<path class="st2" d="M110.2,193.6c-0.1-4.6,1.3-7.5,3.8-9.5c2.3-1.4,4.7-2.7,7.1-3.8"/>
</g>
<g id="Ebene_3">
	<path class="st3" d="M58.7,20.9c0.3-0.2,0.6-0.3,0.9-0.5c12.1-6.4,25.9-9.9,40.5-9.9c5.5,0,10.9,0.5,16.1,1.5
		c0.2,0,0.4,0.1,0.7,0.1"/>
	<path class="st3" d="M67.6,178.8c-0.2-0.1-0.4-0.2-0.7-0.3c-31.8-13-54.2-44.3-54.2-80.8c0-6.3,0.7-12.3,1.9-18.2
		c0-0.2,0.1-0.5,0.1-0.7"/>
	<path class="st3" d="M135.1,177.7c-4,1.8-7,2.9-11.3,4.1c-0.1,0-0.3,0.1-0.4,0.1"/>
	<path class="st3" d="M148.9,25.5c0.2,0.1,0.3,0.2,0.5,0.3c22.9,15.7,37.9,42.1,37.9,72c0,14.6-3.6,28.3-9.9,40.3
		c-0.1,0.2-0.2,0.6-0.3,0.8"/>
	<circle class="st4" cx="93.1" cy="60.9" r="13.2"/>
	<ellipse transform="matrix(0.9449 -0.3274 0.3274 0.9449 -39.9619 17.6319)" class="st4" cx="32.4" cy="127.5" rx="3.7" ry="10"/>
	
		<ellipse transform="matrix(0.9449 -0.3274 0.3274 0.9449 -40.0492 17.7198)" class="st3" cx="32.6" cy="127.8" rx="6.3" ry="13.1"/>
	
		<ellipse transform="matrix(6.332193e-02 -0.998 0.998 6.332193e-02 -99.6666 107.0715)" class="st3" cx="7.2" cy="106.6" rx="10.7" ry="5.2"/>
	
		<ellipse transform="matrix(6.332193e-02 -0.998 0.998 6.332193e-02 -99.865 106.8129)" class="st4" cx="7" cy="106.6" rx="7.8" ry="2.9"/>
	<ellipse class="st4" cx="158.5" cy="79.5" rx="9.9" ry="8.8"/>
	
		<ellipse transform="matrix(0.9912 -0.1321 0.1321 0.9912 -1.442837e-02 11.1861)" class="st3" cx="84.3" cy="5.7" rx="12.5" ry="2.9"/>
	
		<ellipse transform="matrix(0.7475 -0.6643 0.6643 0.7475 21.2219 117.2231)" class="st3" cx="164.8" cy="30.7" rx="2.9" ry="12.5"/>
	<ellipse transform="matrix(0.468 -0.8837 0.8837 0.468 -27.314 39.789)" class="st3" cx="19.4" cy="42.6" rx="16.3" ry="5.1"/>
	
		<ellipse transform="matrix(0.7475 -0.6643 0.6643 0.7475 -67.8881 150.7372)" class="st3" cx="164.3" cy="164.7" rx="17.6" ry="5.6"/>
	
		<ellipse transform="matrix(0.7622 -0.6474 0.6474 0.7622 -67.3801 145.5687)" class="st4" cx="164.4" cy="164.5" rx="14.1" ry="2.3"/>
	<ellipse transform="matrix(0.468 -0.8837 0.8837 0.468 -27.2343 39.6548)" class="st4" cx="19.3" cy="42.4" rx="12.8" ry="2.5"/>
	
		<ellipse transform="matrix(0.9912 -0.1321 0.1321 0.9912 -1.049820e-02 11.2389)" class="st4" cx="84.7" cy="5.7" rx="6.7" ry="0.9"/>
	
		<ellipse transform="matrix(0.1994 -0.9799 0.9799 0.1994 87.9868 145.237)" class="st3" cx="132.9" cy="18.8" rx="10.7" ry="17.9"/>
	<ellipse transform="matrix(0.1994 -0.9799 0.9799 0.1994 88.1458 145.24)" class="st4" cx="133" cy="18.7" rx="7.8" ry="14.9"/>
	
		<ellipse transform="matrix(0.7475 -0.6643 0.6643 0.7475 -74.4091 96.6418)" class="st4" cx="89.9" cy="146.2" rx="11.3" ry="14.3"/>
	
		<ellipse transform="matrix(0.7475 -0.6643 0.6643 0.7475 -74.4174 96.6159)" class="st3" cx="89.9" cy="146.2" rx="13.9" ry="16.9"/>
	<ellipse class="st3" cx="158.3" cy="79.4" rx="13" ry="11.6"/>
	<circle class="st3" cx="93.1" cy="61.1" r="16.5"/>
	<path class="st3" d="M112.8,191.6c0,0.3-7.4-0.1-16.5-0.9s-16.4-1.7-16.4-2.1"/>
	<path class="st3" d="M191.5,83.1c0.3,0,1,7.4,1.4,16.5s0.5,16.5,0.2,16.5"/>
	<path class="st3" d="M30.9,113c-0.8,1.2-2.4,2.4-3.7,3"/>
	<path class="st3" d="M36.4,140.3c2.6-0.2,5.5-0.8,7.6,0.7"/>
	<path class="st3" d="M103.2,156.1c2.9-2.9,4.3-5.3,6-6.9"/>
	<path class="st3" d="M109.9,15.7c2-0.5,4.4-1.6,6.6-3.4"/>
	<path class="st3" d="M149,31.5c0-1.6,0.4-4.2,0.8-7.2"/>
	<path class="st3" d="M170.3,83.5c-0.5,2.3-3.4,8.8-0.3,10.8"/>
	<path class="st3" d="M150.8,69.9c-1.9,0.8-3.9,3.6-8.7,2.4"/>
	<path class="st3" d="M76.5,129.7c-0.3,3.7-0.6,7.6-1.4,9.8"/>
	<path class="st3" d="M4.4,116.2c0.5,0.9,4.1,1.8,6.2,3.3c5.1,3.5,6.1,4.7,6.8,6.6"/>
	<path class="st3" d="M4.2,98.2c1.5-3,5.1-3.1,6.3-3.8c2.2-1.4,1.1-3,2.6-3.8"/>
	<path class="st3" d="M11.9,57.3c2.4,2.1,4.2,6.3,3.7,10.5c-0.2,2,0.5,7.2-1,12.4"/>
	<path class="st3" d="M27,28.2c9.7,2.5,14.8-3.9,31.7-7.3"/>
	<path class="st3" d="M72,7.7c-1,5.1-6.5,7.3-8.9,9.4c-1.7,1.4-3,2.2-4.5,3.9"/>
	<path class="st3" d="M96.7,4c-0.1,1.2,0.4,1.2,1,2.3c1.5,2.5,3.8,4,4.3,4.2"/>
	<path class="st3" d="M149.7,24.3c1.7,0.9,4.9-3,7.4-3.3"/>
	<path class="st3" d="M173.1,40c-0.6,1.3-0.3,1.7-1.1,3.7c-0.6,1.5-0.5,3.8-0.6,4"/>
	<path class="st3" d="M184.7,76.2c1.2,1.9,2.1,3.9,3.8,5.4c1.2,1,1.7,1.6,3,1.5"/>
	<path class="st3" d="M193.1,116.1c-1.9,0.1-3.5,1.1-5.8,2.5c-2.4,1.5-4,7.1-5.1,8.4"/>
	<path class="st3" d="M177.1,138.7c0.1,1.2-3.6,4.4-1.9,9.6c1.1,3.3,1.7,2.5,2.2,4.6"/>
	<path class="st3" d="M151.8,177c-0.4-0.3-1.6-1-5.6-2.3c-2.4-0.8-8.5,1.8-11.1,3"/>
	<path class="st3" d="M67.6,178.8c1.5,1.1,7,2.2,10.9,5.4c1.1,0.9,1.4,0.2,1.4,4.5"/>
	<path class="st3" d="M112.8,191.6c-0.1-4.7,1.4-3.9,3.8-6c0.6-0.5,5-2.9,7.2-3.9"/>
</g>
</svg>
