<svg id="Ebene_1" data-name="Ebene 1" xmlns="http://www.w3.org/2000/svg" viewBox="0 0 196.64 180.37"><defs><style>.cls-1,.cls-2{fill:none;stroke:#13fffd;stroke-miterlimit:10;}.cls-1{stroke-width:2px;}.cls-2{stroke-width:0.5px;}</style></defs><title>planet3a</title><g id="Ebene_3" data-name="Ebene 3"><path class="cls-1" d="M30.6,39.3A88.89,88.89,0,0,1,55.2,18.7" transform="translate(-0.77 -0.16)"/><path class="cls-1" d="M17.8,121.3c-3.6-9.6-6-20.9-6-30.6A80,80,0,0,1,19.4,57" transform="translate(-0.77 -0.16)"/><path class="cls-1" d="M108.2,173.6c-1.8.1-6.6,0.6-8.4,0.6-24.8,0-47.1-9.5-63.1-25.2-0.2-.2-4.3-4.6-4.5-4.8" transform="translate(-0.77 -0.16)"/><path class="cls-1" d="M178.7,127.8a86,86,0,0,1-41.5,38.5l-2.2,1" transform="translate(-0.77 -0.16)"/><path class="cls-1" d="M183.1,63.5a79.58,79.58,0,0,1,1.5,49.9" transform="translate(-0.77 -0.16)"/><path class="cls-1" d="M97.4,7.2h2.5a91.09,91.09,0,0,1,58.3,21" transform="translate(-0.77 -0.16)"/><ellipse class="cls-2" cx="89.59" cy="34.01" rx="12.2" ry="8" transform="translate(-5.35 16.07) rotate(-10.1)"/><ellipse class="cls-1" cx="89.59" cy="34.1" rx="15.1" ry="11" transform="translate(-5.36 16.07) rotate(-10.1)"/><ellipse class="cls-2" cx="30.69" cy="48.99" rx="11.2" ry="4.5" transform="translate(-26.34 35.54) rotate(-44.64)"/><ellipse class="cls-1" cx="30.71" cy="49.06" rx="14.3" ry="7.7" transform="translate(-26.39 35.58) rotate(-44.64)"/><ellipse class="cls-2" cx="70.33" cy="108.64" rx="9" ry="9.8"/><path class="cls-1" d="M83.4,108.9c0,7.5-5.6,13.6-12.4,13.6s-12.2-6.1-12.4-13.6S64.2,95.3,71,95.3,83.4,101.4,83.4,108.9Z" transform="translate(-0.77 -0.16)"/><circle class="cls-2" cx="168.33" cy="115.14" r="12.1"/><circle class="cls-1" cx="168.23" cy="115.14" r="15.8"/><ellipse class="cls-1" cx="173.7" cy="38.34" rx="2.4" ry="13.5" transform="translate(29.36 143.2) rotate(-48.63)"/><ellipse class="cls-2" cx="174" cy="38.09" rx="0.8" ry="6.8" transform="translate(29.64 143.34) rotate(-48.63)"/><ellipse class="cls-1" cx="19.29" cy="136.42" rx="3.3" ry="10.3" transform="translate(-64.16 26.05) rotate(-28.83)"/><ellipse class="cls-2" cx="19.81" cy="136.59" rx="0.7" ry="6.5" transform="translate(-66.41 28.05) rotate(-30)"/><ellipse class="cls-1" cx="123.09" cy="172.41" rx="12.2" ry="6.1" transform="translate(-52.99 53.32) rotate(-20.32)"/><ellipse class="cls-2" cx="123.2" cy="172.52" rx="8.9" ry="2.8" transform="translate(-53.02 53.36) rotate(-20.32)"/><path class="cls-1" d="M5.5,92.5c-3.1-.6-4.6-6.9-3.2-14S7.2,66,10.4,66.6" transform="translate(-0.77 -0.16)"/><ellipse class="cls-1" cx="74.49" cy="6.19" rx="12.8" ry="2.5" transform="translate(1.71 26.1) rotate(-20.32)"/><ellipse class="cls-1" cx="136.2" cy="8.04" rx="2.2" ry="11.6" transform="translate(60.37 121.81) rotate(-60)"/><path class="cls-1" d="M190.1,71c1-.2,3.1,5.2,4.7,12.2s2.1,12.8,1.1,13" transform="translate(-0.77 -0.16)"/><path class="cls-1" d="M178.2,138.9c0.9,0.7-1.3,5.3-4.9,10.4s-7.3,8.7-8.3,8.1" transform="translate(-0.77 -0.16)"/><path class="cls-1" d="M13.6,128.9a5,5,0,0,1,.7-3.9,17.89,17.89,0,0,1,2.7-2.8,11,11,0,0,0,3.1-8.4c-0.1,0-.3.1-0.4,0.1" transform="translate(-0.77 -0.16)"/><path class="cls-1" d="M24.3,145.4c2.7,0,2.2-.7,5.2-0.9,4.5-.3,7.7.2,10.9,0" transform="translate(-0.77 -0.16)"/><path class="cls-1" d="M166.1,130.8c-3.3,0-8.2.7-12.2,0.9" transform="translate(-0.77 -0.16)"/><path class="cls-1" d="M172.5,91.2c0.4,7,2,6.8,6.7,11.9" transform="translate(-0.77 -0.16)"/><path class="cls-1" d="M19.4,57c-0.1,2,2,6.8,2.4,7.5A14.87,14.87,0,0,1,23,69.1" transform="translate(-0.77 -0.16)"/><path class="cls-1" d="M37.6,37.6c1.8,0.3,5.2.8,7,1.2a19.59,19.59,0,0,0,4.8.5" transform="translate(-0.77 -0.16)"/><path class="cls-1" d="M66.1,41.5a7.34,7.34,0,0,0,4-1.8,19.86,19.86,0,0,0,2.4-2.5,10.29,10.29,0,0,0,2.4-4.3" transform="translate(-0.77 -0.16)"/><path class="cls-1" d="M96.6,23.8c6.1,1.7,12.7,2.4,18.6.1" transform="translate(-0.77 -0.16)"/><path class="cls-1" d="M145.5,28.7a2,2,0,0,0,1,.8c2.8,1.1,5.9.2,8.8-.5s6.4-1.2,9,.3" transform="translate(-0.77 -0.16)"/><path class="cls-1" d="M184,47.1c0,7.6-1,15.4-1.5,23-0.1,1.2,0,2.6,1.1,3" transform="translate(-0.77 -0.16)"/><path class="cls-1" d="M195.9,96.1c-4.8,2-5.9,4.7-9.3,8.6" transform="translate(-0.77 -0.16)"/><path class="cls-1" d="M190.4,71.2c-2.9-.5-2.7-2-5.6-1.9" transform="translate(-0.77 -0.16)"/><path class="cls-1" d="M136.4,162.8a5.07,5.07,0,0,0-1.5,3.2,18.82,18.82,0,0,1-.1,4" transform="translate(-0.77 -0.16)"/><path class="cls-1" d="M103.3,170.5a10.27,10.27,0,0,1,4.4,2.6,31.17,31.17,0,0,0,4,3.2" transform="translate(-0.77 -0.16)"/><path class="cls-1" d="M151.5,158.5c1.3-.1,3.6-0.3,5-0.5,1.2-.1,2.4-0.3,3.6-0.4a50.45,50.45,0,0,1,5.5,0" transform="translate(-0.77 -0.16)"/><path class="cls-1" d="M176.9,129.3c0.3,2.5.9,5.8,1.1,8.3a10.64,10.64,0,0,0,.3,2" transform="translate(-0.77 -0.16)"/><path class="cls-1" d="M9.7,66.5c1.9-.5,5.4-1.3,7.1-2.4" transform="translate(-0.77 -0.16)"/><path class="cls-1" d="M4.4,92.1c2,0.7,2.5,1.8,4,3.2s3,2.9,4.2,4.2" transform="translate(-0.77 -0.16)"/><path class="cls-1" d="M62.5,10.7c-0.3,1.8.1,2.5-.8,3.8-1.8,2.3-7.4,4.9-7.4,4.7" transform="translate(-0.77 -0.16)"/><path class="cls-1" d="M86.1,1.5c1.5,0.6,3.2,3.3,4.1,4,2.8,2,6.9,1.7,7.8,1.7" transform="translate(-0.77 -0.16)"/><path class="cls-1" d="M126.5,2.3A40,40,0,0,0,121.4,7c-0.9,1-2.9,2.5-3.5,2.1" transform="translate(-0.77 -0.16)"/><path class="cls-1" d="M146.2,13.5c0.3,0.7.3,4.8,0.2,6.6" transform="translate(-0.77 -0.16)"/></g></svg>