<svg id="Ebene_1" data-name="Ebene 1" xmlns="http://www.w3.org/2000/svg" viewBox="0 0 195.35 183.37"><defs><style>.cls-1,.cls-2{fill:none;stroke:#91e31c;stroke-miterlimit:10;}.cls-1{stroke-width:2px;}.cls-2{stroke-width:0.5px;}</style></defs><title>planet2a</title><g id="Ebene_3" data-name="Ebene 3"><path class="cls-1" d="M85.9,9.4c0.2,0,.5-0.1.7-0.1A97.61,97.61,0,0,1,101,8.2a102.28,102.28,0,0,1,12.5.8c0.4,0.1,3.2.5,3.6,0.6" transform="translate(-2.11 -4.6)"/><path class="cls-1" d="M13.5,73.1A82.88,82.88,0,0,1,24,49.6a4.35,4.35,0,0,0,.4-0.7" transform="translate(-2.11 -4.6)"/><path class="cls-1" d="M142.2,172.6a92.35,92.35,0,0,1-41.1,9.5c-35.2,0-65.6-19.3-80.6-47.4" transform="translate(-2.11 -4.6)"/><path class="cls-1" d="M187.9,70.5a84,84,0,0,1-14.7,77.1" transform="translate(-2.11 -4.6)"/><path class="cls-1" d="M146.8,20.2c0.2,0.1,3.8,2.2,4,2.3a88,88,0,0,1,19.6,16.8" transform="translate(-2.11 -4.6)"/><ellipse class="cls-1" cx="59.4" cy="55.4" rx="16.3" ry="10.8" transform="translate(-8.64 3.35) rotate(-7.26)"/><ellipse class="cls-2" cx="59.51" cy="55.3" rx="13.3" ry="8.1" transform="translate(-8.63 3.36) rotate(-7.26)"/><ellipse class="cls-1" cx="137.69" cy="71.2" rx="13.1" ry="14.3"/><ellipse class="cls-2" cx="137.69" cy="71.2" rx="10.1" ry="11.2"/><ellipse class="cls-1" cx="71.71" cy="143.62" rx="9.2" ry="17.7" transform="translate(-90.91 136.23) rotate(-62.47)"/><path class="cls-2" d="M84.5,150.1c-1.6,3-8.9,2.4-15.3-.9s-11.7-9.1-10.1-12.1,9.5-2.1,15.8,1.2S86.1,147.1,84.5,150.1Z" transform="translate(-2.11 -4.6)"/><ellipse class="cls-1" cx="162.4" cy="165.91" rx="12.3" ry="4.6" transform="translate(-68.17 120.01) rotate(-35.37)"/><path class="cls-1" d="M115.5,184.7c0.6,2.4,6.5,3,13,1.3s11.3-5.1,10.7-7.6" transform="translate(-2.11 -4.6)"/><path class="cls-2" d="M170.3,160.6c-0.9-1.3-5.7,1.1-9,3.4s-7.7,6.2-6.8,7.5,5.9-1.1,9.2-3.4S171.3,161.9,170.3,160.6Z" transform="translate(-2.11 -4.6)"/><ellipse class="cls-1" cx="183.14" cy="50.72" rx="2" ry="11.1" transform="translate(7.47 123.52) rotate(-39.51)"/><ellipse class="cls-2" cx="184.04" cy="50.81" rx="0.5" ry="6.9" transform="translate(7.61 124.11) rotate(-39.51)"/><path class="cls-1" d="M196.2,103.1c0.6,0.5.1,7.3-.7,14.6S191,132,190.6,132" transform="translate(-2.11 -4.6)"/><path class="cls-1" d="M46.9,174.1c-0.2.2-4.4-3.5-9.3-8.5s-8.7-9.1-8.5-9.3" transform="translate(-2.11 -4.6)"/><ellipse class="cls-1" cx="4.97" cy="94.63" rx="14" ry="1.7" transform="translate(-91.9 89.95) rotate(-86.95)"/><ellipse class="cls-1" cx="63.69" cy="12.6" rx="10.9" ry="1.1" transform="translate(-3.22 12.1) rotate(-14.81)"/><ellipse class="cls-1" cx="63.69" cy="12.6" rx="4.1" ry="0.4" transform="translate(-3.22 12.1) rotate(-14.81)"/><ellipse class="cls-1" cx="133.84" cy="10.2" rx="1.8" ry="12.9" transform="translate(77.73 128.49) rotate(-70.64)"/><ellipse class="cls-2" cx="133.51" cy="9.71" rx="0.4" ry="8.5" transform="translate(77.97 127.85) rotate(-70.64)"/><ellipse class="cls-1" cx="30.28" cy="34.61" rx="11.1" ry="2.8" transform="translate(-17.21 22.57) rotate(-39.51)"/><path class="cls-1" d="M43.4,58.4c1.2,5.7,2.7,7.6,1.4,11.6" transform="translate(-2.11 -4.6)"/><path class="cls-1" d="M74.2,49.9c1.2,1.4,3.5,4.7,7.4,4.7" transform="translate(-2.11 -4.6)"/><path class="cls-1" d="M55.5,137.4c0.1-2.1,1.7-4,2.4-6.7,0.5-1.9-.6-3.1-1-3.9" transform="translate(-2.11 -4.6)"/><path class="cls-1" d="M84.9,154.1c2.6-1.9,3-3.5,7.2-4.3" transform="translate(-2.11 -4.6)"/><path class="cls-1" d="M29.1,156.3c3.2-4.2.9-7.4,0.7-7.7" transform="translate(-2.11 -4.6)"/><path class="cls-1" d="M46.6,174.4c4-2.7,11.1-2.6,14-1.4" transform="translate(-2.11 -4.6)"/><path class="cls-1" d="M116,185.4c-0.7-1.3-2-4.2-4.3-3.9-0.7.1-1.1,0.1-1.8,0.2" transform="translate(-2.11 -4.6)"/><path class="cls-1" d="M139.4,179.1c0.2-1.7-.2-2.4.8-4.1a5.59,5.59,0,0,1,2.1-2.3" transform="translate(-2.11 -4.6)"/><path class="cls-1" d="M171.8,158c-2.4-5.5,1.6-9.7,1.7-11" transform="translate(-2.11 -4.6)"/><path class="cls-1" d="M152.7,173c-1.1.2-3.9-2-5-2.4-2.5-.7-3.4.7-5.5,2" transform="translate(-2.11 -4.6)"/><path class="cls-1" d="M191.2,131c-1.5,2.1-7.1.7-9,2.5" transform="translate(-2.11 -4.6)"/><path class="cls-1" d="M191.2,99.6c0.8,3.8,2.8,1,5.3,4.1" transform="translate(-2.11 -4.6)"/><path class="cls-1" d="M170,38.7c1.5,1.2,2.4,3.6,5.7,3.6" transform="translate(-2.11 -4.6)"/><path class="cls-1" d="M190.2,59.2c-0.6,1.8-2.1,2.2-3.4,5.5-0.7,1.8.1,5,1.3,6.5" transform="translate(-2.11 -4.6)"/><path class="cls-1" d="M106.4,12.5c3.5,0.4,6.9-.9,10-2.5,1.9-1,2.5-2.4,5.6-4.2" transform="translate(-2.11 -4.6)"/><path class="cls-1" d="M148.9,28.2a33.63,33.63,0,0,1-1.8-6.6,46.65,46.65,0,0,1-.9-7.7" transform="translate(-2.11 -4.6)"/><path class="cls-1" d="M53.9,15.1c-2,.4,0,0.1-2.1,6.8-1,3.3-4.4,3.8-7.5,5.8-1.3.9-2,.9-2.2,1.2" transform="translate(-2.11 -4.6)"/><path class="cls-1" d="M74.3,9.8c2.2-.4,3,0.6,6.3,1.7,2.6,0.9,5.3-2.2,6.6-2.4" transform="translate(-2.11 -4.6)"/><path class="cls-1" d="M21.6,41.2a12.8,12.8,0,0,0,1.9,3.9c0.6,1.2,1.6,2.5.6,4.3" transform="translate(-2.11 -4.6)"/><path class="cls-1" d="M38.4,27.3a6.72,6.72,0,0,0,4.4,1.2" transform="translate(-2.11 -4.6)"/><path class="cls-1" d="M5.6,80.9c1.2-2.4,1.6-1.6,3.9-2.9a8.41,8.41,0,0,0,4.1-5.3" transform="translate(-2.11 -4.6)"/><path class="cls-1" d="M3.7,108.3c1.6,0,2.3.1,6.3,7.1,1.2,2.2,3.7,9.5,10.7,19.7" transform="translate(-2.11 -4.6)"/></g></svg>