<?xml version="1.0" encoding="utf-8"?>
<!-- Generator: Adobe Illustrator 19.2.0, SVG Export Plug-In . SVG Version: 6.00 Build 0)  -->
<svg version="1.1" xmlns="http://www.w3.org/2000/svg" xmlns:xlink="http://www.w3.org/1999/xlink" x="0px" y="0px"
	 viewBox="0 0 198.8 190.8" style="enable-background:new 0 0 198.8 190.8;" xml:space="preserve">
<style type="text/css">
	.st0{display:none;}
	.st1{display:inline;stroke:#FFFFFF;stroke-miterlimit:10;}
	.st2{display:inline;fill:none;stroke:#FFFFFF;stroke-width:2;stroke-miterlimit:10;}
	.st3{fill:none;stroke:#FFFFFF;stroke-width:2;stroke-miterlimit:10;}
	.st4{fill:none;stroke:#FFFFFF;stroke-width:0.5;stroke-miterlimit:10;}
</style>
<g id="Ebene_2" class="st0">
	<rect class="st1" width="198.8" height="190.8"/>
</g>
<g id="Ebene_1" class="st0">
	<title>planet2</title>
	<path class="st2" d="M88.4,11.4l0.7-0.1c8.8-1.4,17.8-1.5,26.7-0.3l1.2,0.2"/>
	<path class="st2" d="M16.8,74.4c2.2-8.2,5.7-16.1,10.4-23.3l0.4-0.7"/>
	<path class="st2" d="M144.1,172.8c-12.7,6.2-26.6,9.4-40.7,9.4c-34.8,0-64.9-19.1-79.8-46.9"/>
	<path class="st2" d="M189.3,71.8c8,26.3,2.6,54.8-14.6,76.3"/>
	<path class="st2" d="M152,23.9l0.6,0.4c7.2,4.6,13.8,10.2,19.4,16.6"/>
	<ellipse transform="matrix(0.992 -0.1264 0.1264 0.992 -6.6832 8.3143)" class="st2" cx="62.2" cy="56.8" rx="16.1" ry="10.7"/>
	<ellipse transform="matrix(0.992 -0.1264 0.1264 0.992 -6.6329 8.3188)" class="st2" cx="62.2" cy="56.4" rx="6.2" ry="4.1"/>
	<ellipse class="st2" cx="141.7" cy="77" rx="13" ry="14.1"/>
	<ellipse class="st2" cx="142.5" cy="77.3" rx="4.8" ry="5.3"/>
	
		<ellipse transform="matrix(0.4622 -0.8868 0.8868 0.4622 -87.8218 143.4749)" class="st2" cx="74.4" cy="144.1" rx="9.1" ry="17.5"/>
	<ellipse transform="matrix(0.4622 -0.8868 0.8868 0.4622 -86.9736 143.1455)" class="st2" cx="74.5" cy="143.3" rx="5" ry="9.7"/>
	
		<ellipse transform="matrix(0.9036 -0.4285 0.4285 0.9036 -56.6628 86.8474)" class="st2" cx="164.6" cy="169.3" rx="12.2" ry="4.5"/>
	<path class="st2" d="M117.2,187.6c0.6,2.4,6.4,3,12.9,1.2s11.2-5.1,10.6-7.5"/>
	<ellipse transform="matrix(0.9036 -0.4285 0.4285 0.9036 -56.8266 86.746)" class="st2" cx="164.3" cy="169.6" rx="6.4" ry="2.4"/>
	<ellipse transform="matrix(0.7714 -0.6363 0.6363 0.7714 10.7385 130.5427)" class="st2" cx="187.1" cy="50.3" rx="2" ry="11"/>
	<ellipse transform="matrix(0.7714 -0.6363 0.6363 0.7714 10.9058 130.6924)" class="st2" cx="187.4" cy="50.2" rx="0.8" ry="4.3"/>
	<path class="st2" d="M197.6,104c0.6,0.5,0.1,7.2-0.7,14.4s-3.2,14-3.6,14"/>
	<path class="st2" d="M45.8,178.9c-0.2,0.2-4.4-3.5-9.2-8.4s-8.6-9-8.4-9.2"/>
	
		<ellipse transform="matrix(5.320746e-02 -0.9986 0.9986 5.320746e-02 -93.374 93.8982)" class="st2" cx="2.8" cy="96.2" rx="13.8" ry="1.7"/>
	<ellipse transform="matrix(0.9668 -0.2556 0.2556 0.9668 1.1377 16.8297)" class="st2" cx="65.3" cy="4" rx="10.8" ry="1.1"/>
	<ellipse transform="matrix(0.9668 -0.2556 0.2556 0.9668 1.1377 16.8297)" class="st2" cx="65.3" cy="4" rx="4.1" ry="0.4"/>
	<ellipse transform="matrix(0.3315 -0.9435 0.9435 0.3315 85.0337 135.4431)" class="st2" cx="138.1" cy="7.7" rx="1.8" ry="12.8"/>
	<ellipse transform="matrix(0.3315 -0.9435 0.9435 0.3315 85.1771 135.3527)" class="st2" cx="138.1" cy="7.6" rx="0.5" ry="3.8"/>
	<ellipse class="st2" cx="102.9" cy="2.3" rx="14.5" ry="1.3"/>
	<ellipse transform="matrix(0.7714 -0.6363 0.6363 0.7714 -15.4743 29.5489)" class="st2" cx="33.4" cy="36.3" rx="11" ry="2.8"/>
	<path class="st2" d="M46.2,56.8c-1.3,3.2-2.3,6.6-3,10c-1,4.5-1.7,9-2.3,10"/>
	<path class="st2" d="M71.7,47.5c1.7,0.5,6.3,2,8.4,2.5c2.5,0.6,5.5,0.4,9.6-0.5"/>
	<path class="st2" d="M116.3,67.2c3.1,1.2,6.4,1.9,9.7,1.9c2.3-0.2,4.5-0.8,6.5-2"/>
	<path class="st2" d="M154.7,75.6c-0.1,2.5,0.6,5,2,7.1c1.5,2.1,3.2,4.1,5.1,5.9c1.4,1.3,2.9,2.3,4.6,3.2"/>
	<path class="st2" d="M58.3,137.9c0.1-2.1,1-8.8,1.1-11.6c0.1-3.1,0.1-5.9-0.3-6.6c-0.4-1.1-1.3-1.9-2.4-2.1"/>
	<path class="st2" d="M87.5,154.5c5.7-1.5,12.6-4,18.4-4.9c2.2-0.5,4.5-0.3,6.7,0.6"/>
	<path class="st2" d="M28.1,161.6c3.2-4.1,3.1-7.2,3.2-7.6c0.1-2.8-0.3-5.7-1-8.4"/>
	<path class="st2" d="M45.8,178.9c1.5,0.4,4.3-2.1,8.1-4.2c2.7-1.4,6.3-1.6,9.4-1.7"/>
	<path class="st2" d="M117.5,188.1c-0.7-1.2-1.1-2.3-2-3.7c-0.5-0.8-1.1-1.5-1.8-2c-0.4-0.5-1.1-0.7-1.7-0.6"/>
	<path class="st2" d="M140.6,182.6c0.9-1.1,1.6-2.3,2.3-3.5c0.5-1.1,0.8-2.2,0.9-3.4c0.3-1,0.3-2.1,0.2-3.1"/>
	<path class="st2" d="M175.8,165.4c-0.3,0.7,1.6-2.1,1.6-5.4c-0.1-4.2-2.1-11.7-2.3-12.7"/>
	<path class="st2" d="M156.8,175.9c-1.1,0.2-4.2-0.4-5.2-0.8l-7.3-2.2"/>
	<path class="st2" d="M193.8,131.7c-1.4,2.1-3.1,4.1-4.9,5.9c-1.2,1.1-2.5,2-3.8,2.9c-2.4,1.5-4.9,2.9-7.4,4"/>
	<path class="st2" d="M191.7,84.5c0.6-0.2,1,0.5,1.3,1c1.3,2.5,2.3,5.1,3,7.9c0.8,3.7,0.2,7.7,1.8,11.2"/>
	<path class="st2" d="M171.4,40.5c2.6,0.3,5.4,1.4,8.7,1.4"/>
	<path class="st2" d="M194.1,58.8c-0.6,1.8-1.2,3.7-2.5,7c-0.7,1.8-1.4,4.9-2.1,6.7"/>
	<path class="st2" d="M108.7,14.4c3.5,0.4,6.8-1.7,9.3-4.1s5-5,8-6.8"/>
	<path class="st2" d="M155.1,32.8c-1.9-4.2-3.3-8.6-4-13.2c-0.5-2.5-0.8-5.1-0.9-7.7"/>
	<path class="st2" d="M54.8,6.8c-2,0.4-5.1,5-7.1,11.5c-1,3.3-1.6,9.4-3.2,12.6c-0.2,0.3-0.3,0.6-0.5,0.9"/>
	<path class="st2" d="M75.5,1.1c2.2-0.4,7.6,3.8,9.8,6.5s4,5.7,7.4,6.5"/>
	<path class="st2" d="M117.5,2.3c-0.4,1.6,0,3.3,1,4.6c0.3,0.4,0.8,0.9,1.1,1.3"/>
	<path class="st2" d="M86.1,8.3c1-0.5,1.3-1.8,1.3-2.9c-0.1-1.1,0.2-2.2,0.9-3.1"/>
	<path class="st2" d="M24.9,43.3c0.1,1.3,0.5,2.5,1,3.7c0.6,1.2,1.6,2.9,1.2,4.2"/>
	<path class="st2" d="M41.4,29.1c1.1,0.7,2.3,1.2,3.6,1.5"/>
	<path class="st2" d="M3.3,82.6c1.3-2.3,3.3-4.1,5.7-5.1c2.4-1.1,7.8-3.2,7.8-3.1"/>
	<path class="st2" d="M1.9,109.9c0.5,2.2,4.5,4.2,6.5,5.2c2.8,1.4,4.3,6.2,5.3,7.7c1.4,2,7.3,11.1,10.2,12.9"/>
</g>
<g id="Ebene_3">
	<path class="st3" d="M85.9,9.4c0.2,0,0.5-0.1,0.7-0.1c4.7-0.7,9.5-1.1,14.4-1.1c4.3,0,8.4,0.3,12.5,0.8c0.4,0.1,3.2,0.5,3.6,0.6"/>
	<path class="st3" d="M13.5,73.1c2.3-8.4,5.8-16.3,10.5-23.5c0.1-0.2,0.3-0.4,0.4-0.7"/>
	<path class="st3" d="M142.2,172.6c-12.3,6.1-26.3,9.5-41.1,9.5c-35.2,0-65.6-19.3-80.6-47.4"/>
	<path class="st3" d="M187.9,70.5c2.4,7.8,3.7,16.1,3.7,24.6c0,19.7-6.8,37.9-18.4,52.5"/>
	<path class="st3" d="M146.8,20.2c0.2,0.1,3.8,2.2,4,2.3c7.4,4.7,14,10.3,19.6,16.8"/>
	<ellipse transform="matrix(0.992 -0.1264 0.1264 0.992 -6.5224 7.9526)" class="st3" cx="59.4" cy="55.4" rx="16.3" ry="10.8"/>
	<ellipse transform="matrix(0.992 -0.1264 0.1264 0.992 -6.5073 7.965)" class="st4" cx="59.5" cy="55.3" rx="13.3" ry="8.1"/>
	<ellipse class="st3" cx="139.8" cy="75.8" rx="13.1" ry="14.3"/>
	<ellipse class="st4" cx="139.8" cy="75.8" rx="10.1" ry="11.2"/>
	
		<ellipse transform="matrix(0.4622 -0.8868 0.8868 0.4622 -88.7744 140.8337)" class="st3" cx="71.7" cy="143.6" rx="9.2" ry="17.7"/>
	<path class="st4" d="M84.5,150.1c-1.6,3-8.9,2.4-15.3-0.9s-11.7-9.1-10.1-12.1c1.6-3,9.5-2.1,15.8,1.2
		C81.3,141.7,86.1,147.1,84.5,150.1z"/>
	
		<ellipse transform="matrix(0.8155 -0.5788 0.5788 0.8155 -66.0558 124.6157)" class="st3" cx="162.4" cy="165.9" rx="12.3" ry="4.6"/>
	<path class="st3" d="M115.5,184.7c0.6,2.4,6.5,3,13,1.3c6.6-1.7,11.3-5.1,10.7-7.6"/>
	<path class="st4" d="M170.3,160.6c-0.9-1.3-5.7,1.1-9,3.4c-3.3,2.3-7.7,6.2-6.8,7.5c0.9,1.3,5.9-1.1,9.2-3.4
		C167,165.7,171.3,161.9,170.3,160.6z"/>
	<ellipse transform="matrix(0.7715 -0.6363 0.6363 0.7715 9.6212 128.1139)" class="st3" cx="183.1" cy="50.7" rx="2" ry="11.1"/>
	<ellipse transform="matrix(0.7715 -0.6363 0.6363 0.7715 9.7588 128.6996)" class="st4" cx="184" cy="50.8" rx="0.5" ry="6.9"/>
	<path class="st3" d="M196.2,103.1c0.6,0.5,0.1,7.3-0.7,14.6c-0.8,7.3-4.5,14.3-4.9,14.3"/>
	<path class="st3" d="M46.9,174.1c-0.2,0.2-4.4-3.5-9.3-8.5s-8.7-9.1-8.5-9.3"/>
	
		<ellipse transform="matrix(5.316984e-02 -0.9986 0.9986 5.316984e-02 -89.7655 94.5909)" class="st3" cx="5" cy="94.6" rx="14" ry="1.7"/>
	<ellipse transform="matrix(0.9668 -0.2556 0.2556 0.9668 -1.1146 16.7001)" class="st3" cx="63.7" cy="12.6" rx="10.9" ry="1.1"/>
	<ellipse transform="matrix(0.9668 -0.2556 0.2556 0.9668 -1.1146 16.7001)" class="st3" cx="63.7" cy="12.6" rx="4.1" ry="0.4"/>
	
		<ellipse transform="matrix(0.3315 -0.9434 0.9434 0.3315 79.8256 133.1449)" class="st3" cx="133.9" cy="10.2" rx="1.8" ry="12.9"/>
	<ellipse transform="matrix(0.3315 -0.9434 0.9434 0.3315 80.1064 132.4428)" class="st4" cx="133.5" cy="9.7" rx="0.4" ry="8.5"/>
	<ellipse transform="matrix(0.7715 -0.6363 0.6363 0.7715 -15.1157 27.1935)" class="st3" cx="30.3" cy="34.6" rx="11.1" ry="2.8"/>
	<path class="st3" d="M43.4,58.4c1.2,5.7,2.7,7.6,1.4,11.6"/>
	<path class="st3" d="M74.2,49.9c1.2,1.4,3.5,4.7,7.4,4.7"/>
	<path class="st3" d="M55.5,137.4c0.1-2.1,1.7-4,2.4-6.7c0.5-1.9-0.6-3.1-1-3.9"/>
	<path class="st3" d="M84.9,154.1c2.6-1.9,3-3.5,7.2-4.3"/>
	<path class="st3" d="M29.1,156.3c3.2-4.2,0.9-7.4,0.7-7.7"/>
	<path class="st3" d="M46.6,174.4c4-2.7,11.1-2.6,14-1.4"/>
	<path class="st3" d="M116,185.4c-0.7-1.3-2-4.2-4.3-3.9c-0.7,0.1-1.1,0.1-1.8,0.2"/>
	<path class="st3" d="M139.4,179.1c0.2-1.7-0.2-2.4,0.8-4.1c0.5-0.9,0.9-1.5,2.1-2.3"/>
	<path class="st3" d="M171.8,158c-2.4-5.5,1.6-9.7,1.7-11"/>
	<path class="st3" d="M152.7,173c-1.1,0.2-3.9-2-5-2.4c-2.5-0.7-3.4,0.7-5.5,2"/>
	<path class="st3" d="M191.2,131c-1.5,2.1-7.1,0.7-9,2.5"/>
	<path class="st3" d="M191.2,99.6c0.8,3.8,2.8,1,5.3,4.1"/>
	<path class="st3" d="M170,38.7c1.5,1.2,2.4,3.6,5.7,3.6"/>
	<path class="st3" d="M190.2,59.2c-0.6,1.8-2.1,2.2-3.4,5.5c-0.7,1.8,0.1,5,1.3,6.5"/>
	<path class="st3" d="M106.4,12.5c3.5,0.4,6.9-0.9,10-2.5c1.9-1,2.5-2.4,5.6-4.2"/>
	<path class="st3" d="M148.9,28.2c-0.8-1.6-1.4-4.7-1.8-6.6c-0.3-1.6-0.9-5-0.9-7.7"/>
	<path class="st3" d="M53.9,15.1c-2,0.4,0,0.1-2.1,6.8c-1,3.3-4.4,3.8-7.5,5.8c-1.3,0.9-2,0.9-2.2,1.2"/>
	<path class="st3" d="M74.3,9.8c2.2-0.4,3,0.6,6.3,1.7c2.6,0.9,5.3-2.2,6.6-2.4"/>
	<path class="st3" d="M21.6,41.2c0.2,1.3,1.2,2.7,1.9,3.9c0.6,1.2,1.6,2.5,0.6,4.3"/>
	<path class="st3" d="M38.4,27.3c1,0.8,3.4,1.5,4.4,1.2"/>
	<path class="st3" d="M5.6,80.9c1.2-2.4,1.6-1.6,3.9-2.9c3.5-2,4.1-5.3,4.1-5.3"/>
	<path class="st3" d="M3.7,108.3c1.6,0,2.3,0.1,6.3,7.1c1.2,2.2,3.7,9.5,10.7,19.7"/>
</g>
</svg>
