<?xml version="1.0" encoding="utf-8"?>
<!-- Generator: Adobe Illustrator 19.2.0, SVG Export Plug-In . SVG Version: 6.00 Build 0)  -->
<svg version="1.1" xmlns="http://www.w3.org/2000/svg" xmlns:xlink="http://www.w3.org/1999/xlink" x="0px" y="0px"
	 viewBox="0 0 224 223.5" style="enable-background:new 0 0 224 223.5;" xml:space="preserve">
<style type="text/css">
	.st0{display:none;}
	.st1{display:inline;fill:#010202;}
	.st2{fill:none;stroke:#FFFFFF;stroke-width:2;stroke-miterlimit:10;}
</style>
<g id="Ebene_2" class="st0">
	<rect x="-4.84" y="-3.63" class="st1" width="233.43" height="229.14"/>
</g>
<g id="Ebene_1">
	<path class="st2" d="M217.43,90.85c1.36,6.84,2.07,13.91,2.07,21.15c0,59.65-48.35,108-108,108c-23.33,0-44.93-7.4-62.58-19.97"/>
	<path class="st2" d="M64.12,15.06c-0.62,0.31,2.67-1.41,2.9-1.51C80.59,7.42,95.64,4,111.5,4c47.3,0,87.49,30.4,102.11,72.73"/>
	<path class="st2" d="M38.03,191.16C16.79,171.43,3.5,143.27,3.5,112c0-34.44,16.12-65.11,41.22-84.88c0.13-0.1,1.03-0.89,1.16-0.99
		"/>
	<ellipse transform="matrix(0.9121 -0.4099 0.4099 0.9121 -16.5385 32.399)" class="st2" cx="67.3" cy="54.78" rx="15.75" ry="9"/>
	<path class="st2" d="M77.25,50c1.1,2.45-3.7,7.15-8.38,9.25c-4.68,2.1-10.62,2-11.5,0c-0.94-2.15,2.97-6.51,7.65-8.61
		C69.7,48.54,76.15,47.55,77.25,50z"/>
	
		<ellipse transform="matrix(0.2607 -0.9654 0.9654 0.2607 56.6747 213.5116)" class="st2" cx="167.75" cy="69.75" rx="7.25" ry="12.25"/>
	<path class="st2" d="M175.04,71.93c-0.53,1.97-4.15,2.28-8.17,1.2s-6.9-3.15-6.36-5.12s4.22-2.7,8.23-1.61
		C172.75,67.47,175.57,69.95,175.04,71.93z"/>
	
		<ellipse transform="matrix(0.2551 -0.9669 0.9669 0.2551 -125.2163 214.4649)" class="st2" cx="76.58" cy="188.5" rx="5.5" ry="9.25"/>
	
		<ellipse transform="matrix(0.2551 -0.9669 0.9669 0.2551 -125.5012 214.2873)" class="st2" cx="76.33" cy="188.6" rx="1.73" ry="4.54"/>
	
		<ellipse transform="matrix(0.1109 -0.9938 0.9938 0.1109 8.3093 192.5616)" class="st2" cx="111.78" cy="91.64" rx="10.5" ry="13.25"/>
	<path class="st2" d="M120.5,92.88c-0.38,3.45-5.33,5.49-9.75,5s-8.38-3.8-8-7.25s5.2-5.99,9.62-5.5S120.88,89.43,120.5,92.88z"/>
	<ellipse transform="matrix(0.236 -0.9718 0.9718 0.236 71.5678 132.0293)" class="st2" cx="119.75" cy="20.5" rx="3" ry="6.75"/>
	<path class="st2" d="M123.62,21.25c0,0-1.63,0.45-4-0.12c-2.37-0.57-3.62-1.62-3.62-1.62s1.51-0.45,3.88,0.12
		C122.24,20.2,123.62,21.25,123.62,21.25z"/>
	<ellipse transform="matrix(0.9586 -0.2849 0.2849 0.9586 -36.0858 19.3616)" class="st2" cx="48.51" cy="133.72" rx="8" ry="10"/>
	<path class="st2" d="M51.86,133.05c0.96,3.23,0.3,5.91-1.49,6.45c-1.79,0.53-4.54-1.27-5.5-4.5c-0.96-3.23,0.21-5.97,2-6.5
		C48.66,127.97,50.9,129.82,51.86,133.05z"/>
	<ellipse transform="matrix(0.6609 -0.7505 0.7505 0.6609 -61.6482 176.0728)" class="st2" cx="164" cy="156.25" rx="8" ry="3.75"/>
	
		<ellipse transform="matrix(0.6609 -0.7505 0.7505 0.6609 -61.8713 175.9149)" class="st2" cx="163.71" cy="156.42" rx="3.31" ry="0.36"/>
	<ellipse class="st2" cx="207.5" cy="111.05" rx="3.5" ry="5.75"/>
	<ellipse class="st2" cx="207.48" cy="111.1" rx="0.16" ry="1.19"/>
	
		<ellipse transform="matrix(0.9432 -0.3323 0.3323 0.9432 -59.0427 57.7195)" class="st2" cx="139.25" cy="201.5" rx="7.25" ry="3"/>
	
		<ellipse transform="matrix(0.9432 -0.3323 0.3323 0.9432 -59.0982 57.6657)" class="st2" cx="139.07" cy="201.64" rx="2.52" ry="0.11"/>
	<ellipse transform="matrix(0.866 -0.5 0.5 0.866 -1.333 28.5253)" class="st2" cx="52.56" cy="16.75" rx="9" ry="2"/>
	<path class="st2" d="M57.66,13.86c0.08,0.13-1.9,1.05-4.66,2.64s-5.23,3.25-5.31,3.11c-0.08-0.13,2.09-1.53,4.84-3.12
		C55.29,14.9,57.58,13.73,57.66,13.86z"/>
	<ellipse transform="matrix(0.9815 -0.1913 0.1913 0.9815 -11.9212 43.541)" class="st2" cx="219.5" cy="83.5" rx="1.5" ry="5.5"/>
	
		<ellipse transform="matrix(0.9815 -0.1913 0.1913 0.9815 -11.9379 43.5637)" class="st2" cx="219.61" cy="83.6" rx="0.14" ry="3.22"/>
	
		<ellipse transform="matrix(0.6454 -0.7638 0.7638 0.6454 -138.2926 101.3302)" class="st2" cx="40" cy="199.62" rx="1.38" ry="3.5"/>
	
		<ellipse transform="matrix(0.6454 -0.7638 0.7638 0.6454 -138.5048 101.1608)" class="st2" cx="39.71" cy="199.77" rx="0.17" ry="1.39"/>
	<path class="st2" d="M98.5,90.33c0.11,1.46,0,3.83-0.83,6.08c-0.77,2.09-1.41,3.38-2.42,4.17"/>
	<path class="st2" d="M125,92.83c-0.31,1.41-0.33,4.58,0.42,5.92c1.09,1.94,0.67,1.33,2,2.92"/>
	<path class="st2" d="M53.38,61.88c1.2,1.67,2.72,4.76,3.46,9.13c0.51,3.01,0.3,5.58,0,7.33"/>
	<path class="st2" d="M80,46.17c0.8,1.12,2.95,3.79,6.83,5.33c3.81,1.51,7.15,1.08,8.5,0.83"/>
	<path class="st2" d="M113.83,18.17c-0.28,0.63-1.2,2.46-3.33,3.67c-1.94,1.1-3.79,1.05-4.5,1"/>
	<path class="st2" d="M126.5,22.5c-0.19,0.9-0.36,2.24-0.17,3.83c0.16,1.32,0.51,2.4,0.83,3.17"/>
	<path class="st2" d="M44.56,21.25c0.2,0.58,0.97,2.91,1.19,3.75c0.56,2.19,0.08,4.18-0.19,4.88"/>
	<path class="st2" d="M60.06,12c0.48,0.35,1.75,2.31,4.06,3.06c1.37,0.44,5.08-0.17,5.69-0.31"/>
	<path class="st2" d="M42.25,201.88c0.38-0.45,1.77-1.01,3.08-1.54c1.64-0.66,2.96-0.68,3.58-0.3"/>
	<path class="st2" d="M37.5,197.33c0.32-0.7,0.68-1.73,0.83-3c0.2-1.73,0.04-3.08-0.96-3.58"/>
	<path class="st2" d="M67.62,185.75c0.81-1.37,2.26-4.06,2.21-8.25c-0.04-2.98-0.88-5.31-1.5-6.67"/>
	<path class="st2" d="M85,192.25c0.53-1.32,1.98-4.12,4.83-6.42c2.4-1.93,4.82-2.68,6.17-3"/>
	<path class="st2" d="M132.5,204.5c-0.05-0.55-0.34-3.42-2.83-5.5c-2.05-1.71-4.32-1.82-5-1.83"/>
	<path class="st2" d="M146.09,199.09c-0.62-0.86-1.76-3.1-2.09-5.84c-0.3-2.52,0.63-4.43,1-5.42"/>
	<path class="st2" d="M169.38,150.62c-0.79-0.71-2.17-2.7-3.04-5.46c-0.79-2.5-0.53-4.63-0.33-5.67"/>
	<path class="st2" d="M159.12,162.38c-0.82-0.81-3.21-2.36-6.79-3.04c-3.38-0.65-6.08,0.24-7.17,0.67"/>
	<path class="st2" d="M156.67,65.17c-0.5,0.8-2.07,3.09-5.17,4.33c-2.96,1.19-5.57,0.71-6.5,0.5"/>
	<path class="st2" d="M179.17,74c-0.76,1.36-1.71,3.46-2.17,6.17c-0.33,1.98-0.29,3.7-0.17,5"/>
	<path class="st2" d="M42.5,126c0.97-0.52,3.85-2.22,5.5-5.83c1.41-3.07,1.16-5.86,1-7"/>
	<path class="st2" d="M53.38,142.12c1.79-1.07,5.4-2.43,9.62-2.96c3.26-0.41,6-0.06,7.83,0.33"/>
	<path class="st2" d="M208.17,105.17c-1.26-0.19-4.05-0.78-6.67-3c-1.82-1.55-2.82-3.26-3.33-4.33"/>
	<path class="st2" d="M208,116.67c-1.09,0.19-3.11,0.68-5.17,2.17c-2.2,1.59-3.33,3.5-3.83,4.5"/>
	<path class="st2" d="M218.67,78.5c-0.88-0.11-1.83-0.27-2.83-0.5c-2.39-0.55-4.4-1.36-6-2.17"/>
	<path class="st2" d="M220.5,88.83c-0.62,0.06-2.18,0.3-3.67,1.5c-1.67,1.36-2.19,3.09-2.33,3.67"/>
</g>
</svg>
