<svg id="Ebene_1" data-name="Ebene 1" xmlns="http://www.w3.org/2000/svg" viewBox="0 0 193.33 191.32"><defs><style>.cls-1,.cls-2{fill:none;stroke:#d1418f;stroke-miterlimit:10;}.cls-1{stroke-width:2px;}.cls-2{stroke-width:0.5px;}</style></defs><title>planet1a</title><g id="Ebene_3" data-name="Ebene 3"><path class="cls-1" d="M58.7,20.9c0.3-.2.6-0.3,0.9-0.5a86.33,86.33,0,0,1,40.5-9.9A85.33,85.33,0,0,1,116.2,12c0.2,0,.4.1,0.7,0.1" transform="translate(-0.94 -1.38)"/><path class="cls-1" d="M67.6,178.8a4.88,4.88,0,0,0-.7-0.3A87.28,87.28,0,0,1,12.7,97.7a90.59,90.59,0,0,1,1.9-18.2c0-.2.1-0.5,0.1-0.7" transform="translate(-0.94 -1.38)"/><path class="cls-1" d="M135.1,177.7a72.41,72.41,0,0,1-11.3,4.1c-0.1,0-.3.1-0.4,0.1" transform="translate(-0.94 -1.38)"/><path class="cls-1" d="M148.9,25.5c0.2,0.1.3,0.2,0.5,0.3a87.22,87.22,0,0,1,28,112.3c-0.1.2-.2,0.6-0.3,0.8" transform="translate(-0.94 -1.38)"/><circle class="cls-2" cx="92.16" cy="59.52" r="13.2"/><ellipse class="cls-2" cx="32.4" cy="127.5" rx="3.7" ry="10" transform="translate(-40.9 16.25) rotate(-19.11)"/><ellipse class="cls-1" cx="32.6" cy="127.8" rx="6.3" ry="13.1" transform="translate(-40.99 16.33) rotate(-19.11)"/><ellipse class="cls-1" cx="7.18" cy="106.64" rx="10.7" ry="5.2" transform="translate(-100.64 105.66) rotate(-86.37)"/><ellipse class="cls-2" cx="6.97" cy="106.58" rx="7.8" ry="2.9" transform="matrix(0.06, -1, 1, 0.06, -100.78, 105.4)"/><ellipse class="cls-2" cx="157.56" cy="78.12" rx="9.9" ry="8.8"/><ellipse class="cls-1" cx="84.3" cy="5.7" rx="12.5" ry="2.9" transform="translate(-0.96 9.8) rotate(-7.59)"/><ellipse class="cls-1" cx="164.8" cy="30.69" rx="2.9" ry="12.5" transform="translate(20.28 115.84) rotate(-41.63)"/><ellipse class="cls-1" cx="19.41" cy="42.58" rx="16.3" ry="5.1" transform="translate(-28.25 38.42) rotate(-62.09)"/><ellipse class="cls-1" cx="164.34" cy="164.71" rx="17.6" ry="5.6" transform="translate(-68.86 149.37) rotate(-41.63)"/><ellipse class="cls-2" cx="164.42" cy="164.52" rx="14.1" ry="2.3" transform="translate(-68.34 144.19) rotate(-40.34)"/><ellipse class="cls-2" cx="19.27" cy="42.44" rx="12.8" ry="2.5" transform="translate(-28.2 38.22) rotate(-62.09)"/><ellipse class="cls-2" cx="84.7" cy="5.7" rx="6.7" ry="0.9" transform="translate(-0.95 9.85) rotate(-7.59)"/><ellipse class="cls-1" cx="132.91" cy="18.76" rx="10.7" ry="17.9" transform="translate(87.08 143.87) rotate(-78.5)"/><ellipse class="cls-2" cx="132.99" cy="18.64" rx="7.8" ry="14.9" transform="translate(87.26 143.86) rotate(-78.5)"/><ellipse class="cls-2" cx="89.91" cy="146.21" rx="11.3" ry="14.3" transform="translate(-75.36 95.26) rotate(-41.63)"/><ellipse class="cls-1" cx="89.9" cy="146.18" rx="13.9" ry="16.9" transform="translate(-75.34 95.25) rotate(-41.63)"/><ellipse class="cls-1" cx="157.36" cy="78.02" rx="13" ry="11.6"/><circle class="cls-1" cx="92.16" cy="59.72" r="16.5"/><path class="cls-1" d="M112.8,191.6c0,0.3-7.4-.1-16.5-0.9s-16.4-1.7-16.4-2.1" transform="translate(-0.94 -1.38)"/><path class="cls-1" d="M191.5,83.1c0.3,0,1,7.4,1.4,16.5s0.5,16.5.2,16.5" transform="translate(-0.94 -1.38)"/><path class="cls-1" d="M30.9,113a9.83,9.83,0,0,1-3.7,3" transform="translate(-0.94 -1.38)"/><path class="cls-1" d="M36.4,140.3c2.6-.2,5.5-0.8,7.6.7" transform="translate(-0.94 -1.38)"/><path class="cls-1" d="M103.2,156.1c2.9-2.9,4.3-5.3,6-6.9" transform="translate(-0.94 -1.38)"/><path class="cls-1" d="M109.9,15.7a17.36,17.36,0,0,0,6.6-3.4" transform="translate(-0.94 -1.38)"/><path class="cls-1" d="M149,31.5a70.46,70.46,0,0,1,.8-7.2" transform="translate(-0.94 -1.38)"/><path class="cls-1" d="M170.3,83.5c-0.5,2.3-3.4,8.8-.3,10.8" transform="translate(-0.94 -1.38)"/><path class="cls-1" d="M150.8,69.9c-1.9.8-3.9,3.6-8.7,2.4" transform="translate(-0.94 -1.38)"/><path class="cls-1" d="M76.5,129.7c-0.3,3.7-.6,7.6-1.4,9.8" transform="translate(-0.94 -1.38)"/><path class="cls-1" d="M4.4,116.2c0.5,0.9,4.1,1.8,6.2,3.3,5.1,3.5,6.1,4.7,6.8,6.6" transform="translate(-0.94 -1.38)"/><path class="cls-1" d="M4.2,98.2c1.5-3,5.1-3.1,6.3-3.8,2.2-1.4,1.1-3,2.6-3.8" transform="translate(-0.94 -1.38)"/><path class="cls-1" d="M11.9,57.3a12.63,12.63,0,0,1,3.7,10.5c-0.2,2,.5,7.2-1,12.4" transform="translate(-0.94 -1.38)"/><path class="cls-1" d="M27,28.2c9.7,2.5,14.8-3.9,31.7-7.3" transform="translate(-0.94 -1.38)"/><path class="cls-1" d="M72,7.7c-1,5.1-6.5,7.3-8.9,9.4A33.11,33.11,0,0,0,58.6,21" transform="translate(-0.94 -1.38)"/><path class="cls-1" d="M96.7,4c-0.1,1.2.4,1.2,1,2.3a11.86,11.86,0,0,0,4.3,4.2" transform="translate(-0.94 -1.38)"/><path class="cls-1" d="M149.7,24.3c1.7,0.9,4.9-3,7.4-3.3" transform="translate(-0.94 -1.38)"/><path class="cls-1" d="M173.1,40c-0.6,1.3-.3,1.7-1.1,3.7a17,17,0,0,0-.6,4" transform="translate(-0.94 -1.38)"/><path class="cls-1" d="M184.7,76.2c1.2,1.9,2.1,3.9,3.8,5.4,1.2,1,1.7,1.6,3,1.5" transform="translate(-0.94 -1.38)"/><path class="cls-1" d="M193.1,116.1c-1.9.1-3.5,1.1-5.8,2.5s-4,7.1-5.1,8.4" transform="translate(-0.94 -1.38)"/><path class="cls-1" d="M177.1,138.7c0.1,1.2-3.6,4.4-1.9,9.6,1.1,3.3,1.7,2.5,2.2,4.6" transform="translate(-0.94 -1.38)"/><path class="cls-1" d="M151.8,177c-0.4-.3-1.6-1-5.6-2.3-2.4-.8-8.5,1.8-11.1,3" transform="translate(-0.94 -1.38)"/><path class="cls-1" d="M67.6,178.8c1.5,1.1,7,2.2,10.9,5.4,1.1,0.9,1.4.2,1.4,4.5" transform="translate(-0.94 -1.38)"/><path class="cls-1" d="M112.8,191.6c-0.1-4.7,1.4-3.9,3.8-6a67.81,67.81,0,0,1,7.2-3.9" transform="translate(-0.94 -1.38)"/></g></svg>