<?xml version="1.0" encoding="utf-8"?>
<!-- Generator: Adobe Illustrator 19.2.0, SVG Export Plug-In . SVG Version: 6.00 Build 0)  -->
<svg version="1.1" id="Ebene_1" xmlns="http://www.w3.org/2000/svg" xmlns:xlink="http://www.w3.org/1999/xlink" x="0px" y="0px"
	 viewBox="0 0 198.8 190.8" style="enable-background:new 0 0 198.8 190.8;" xml:space="preserve">
<style type="text/css">
	.st0{fill:none;stroke:#FFFFFF;stroke-miterlimit:10;}
</style>
<title>planet2</title>
<path class="st0" d="M88.4,11.4l0.7-0.1c8.8-1.4,17.8-1.5,26.7-0.3l1.2,0.2"/>
<path class="st0" d="M16.8,74.4c2.2-8.2,5.7-16.1,10.4-23.3l0.4-0.7"/>
<path class="st0" d="M144.1,172.8c-12.7,6.2-26.6,9.4-40.7,9.4c-34.8,0-64.9-19.1-79.8-46.9"/>
<path class="st0" d="M189.3,71.8c8,26.3,2.6,54.8-14.6,76.3"/>
<path class="st0" d="M152,23.9l0.6,0.4c7.2,4.6,13.8,10.2,19.4,16.6"/>
<ellipse transform="matrix(0.992 -0.1264 0.1264 0.992 -6.6832 8.3143)" class="st0" cx="62.2" cy="56.8" rx="16.1" ry="10.7"/>
<ellipse transform="matrix(0.992 -0.1264 0.1264 0.992 -6.6329 8.3188)" class="st0" cx="62.2" cy="56.4" rx="6.2" ry="4.1"/>
<ellipse class="st0" cx="141.7" cy="77" rx="13" ry="14.1"/>
<ellipse class="st0" cx="142.5" cy="77.3" rx="4.8" ry="5.3"/>
<ellipse transform="matrix(0.4622 -0.8868 0.8868 0.4622 -87.8218 143.4749)" class="st0" cx="74.4" cy="144.1" rx="9.1" ry="17.5"/>
<ellipse transform="matrix(0.4622 -0.8868 0.8868 0.4622 -86.9736 143.1455)" class="st0" cx="74.5" cy="143.3" rx="5" ry="9.7"/>
<ellipse transform="matrix(0.9036 -0.4285 0.4285 0.9036 -56.6629 86.8474)" class="st0" cx="164.6" cy="169.3" rx="12.2" ry="4.5"/>
<path class="st0" d="M117.2,187.6c0.6,2.4,6.4,3,12.9,1.2s11.2-5.1,10.6-7.5"/>
<ellipse transform="matrix(0.9036 -0.4285 0.4285 0.9036 -56.8266 86.746)" class="st0" cx="164.3" cy="169.6" rx="6.4" ry="2.4"/>
<ellipse transform="matrix(0.7714 -0.6363 0.6363 0.7714 10.7385 130.5427)" class="st0" cx="187.1" cy="50.3" rx="2" ry="11"/>
<ellipse transform="matrix(0.7714 -0.6363 0.6363 0.7714 10.9058 130.6924)" class="st0" cx="187.4" cy="50.2" rx="0.8" ry="4.3"/>
<path class="st0" d="M197.6,104c0.6,0.5,0.1,7.2-0.7,14.4s-3.2,14-3.6,14"/>
<path class="st0" d="M45.8,178.9c-0.2,0.2-4.4-3.5-9.2-8.4s-8.6-9-8.4-9.2"/>
<ellipse transform="matrix(5.320746e-02 -0.9986 0.9986 5.320746e-02 -93.374 93.8982)" class="st0" cx="2.8" cy="96.2" rx="13.8" ry="1.7"/>
<ellipse transform="matrix(0.9668 -0.2556 0.2556 0.9668 1.1377 16.8297)" class="st0" cx="65.3" cy="4" rx="10.8" ry="1.1"/>
<ellipse transform="matrix(0.9668 -0.2556 0.2556 0.9668 1.1377 16.8297)" class="st0" cx="65.3" cy="4" rx="4.1" ry="0.4"/>
<ellipse transform="matrix(0.3315 -0.9435 0.9435 0.3315 85.0336 135.4431)" class="st0" cx="138.1" cy="7.7" rx="1.8" ry="12.8"/>
<ellipse transform="matrix(0.3315 -0.9435 0.9435 0.3315 85.177 135.3527)" class="st0" cx="138.1" cy="7.6" rx="0.5" ry="3.8"/>
<ellipse class="st0" cx="102.9" cy="2.3" rx="14.5" ry="1.3"/>
<ellipse transform="matrix(0.7714 -0.6363 0.6363 0.7714 -15.4743 29.5489)" class="st0" cx="33.4" cy="36.3" rx="11" ry="2.8"/>
<path class="st0" d="M46.2,56.8c-1.3,3.2-2.3,6.6-3,10c-1,4.5-1.7,9-2.3,10"/>
<path class="st0" d="M71.7,47.5c1.7,0.5,6.3,2,8.4,2.5c2.5,0.6,5.5,0.4,9.6-0.5"/>
<path class="st0" d="M116.3,67.2c3.1,1.2,6.4,1.9,9.7,1.9c2.3-0.2,4.5-0.8,6.5-2"/>
<path class="st0" d="M154.7,75.6c-0.1,2.5,0.6,5,2,7.1c1.5,2.1,3.2,4.1,5.1,5.9c1.4,1.3,2.9,2.3,4.6,3.2"/>
<path class="st0" d="M58.3,137.9c0.1-2.1,1-8.8,1.1-11.6c0.1-3.1,0.1-5.9-0.3-6.6c-0.4-1.1-1.3-1.9-2.4-2.1"/>
<path class="st0" d="M87.5,154.5c5.7-1.5,12.6-4,18.4-4.9c2.2-0.5,4.5-0.3,6.7,0.6"/>
<path class="st0" d="M28.1,161.6c3.2-4.1,3.1-7.2,3.2-7.6c0.1-2.8-0.3-5.7-1-8.4"/>
<path class="st0" d="M45.8,178.9c1.5,0.4,4.3-2.1,8.1-4.2c2.7-1.4,6.3-1.6,9.4-1.7"/>
<path class="st0" d="M117.5,188.1c-0.7-1.2-1.1-2.3-2-3.7c-0.5-0.8-1.1-1.5-1.8-2c-0.4-0.5-1.1-0.7-1.7-0.6"/>
<path class="st0" d="M140.6,182.6c0.9-1.1,1.6-2.3,2.3-3.5c0.5-1.1,0.8-2.2,0.9-3.4c0.3-1,0.3-2.1,0.2-3.1"/>
<path class="st0" d="M175.8,165.4c-0.3,0.7,1.6-2.1,1.6-5.4c-0.1-4.2-2.1-11.7-2.3-12.7"/>
<path class="st0" d="M156.8,175.9c-1.1,0.2-4.2-0.4-5.2-0.8l-7.3-2.2"/>
<path class="st0" d="M193.8,131.7c-1.4,2.1-3.1,4.1-4.9,5.9c-1.2,1.1-2.5,2-3.8,2.9c-2.4,1.5-4.9,2.9-7.4,4"/>
<path class="st0" d="M191.7,84.5c0.6-0.2,1,0.5,1.3,1c1.3,2.5,2.3,5.1,3,7.9c0.8,3.7,0.2,7.7,1.8,11.2"/>
<path class="st0" d="M171.4,40.5c2.6,0.3,5.4,1.4,8.7,1.4"/>
<path class="st0" d="M194.1,58.8c-0.6,1.8-1.2,3.7-2.5,7c-0.7,1.8-1.4,4.9-2.1,6.7"/>
<path class="st0" d="M108.7,14.4c3.5,0.4,6.8-1.7,9.3-4.1s5-5,8-6.8"/>
<path class="st0" d="M155.1,32.8c-1.9-4.2-3.3-8.6-4-13.2c-0.5-2.5-0.8-5.1-0.9-7.7"/>
<path class="st0" d="M54.8,6.8c-2,0.4-5.1,5-7.1,11.5c-1,3.3-1.6,9.4-3.2,12.6c-0.2,0.3-0.3,0.6-0.5,0.9"/>
<path class="st0" d="M75.5,1.1c2.2-0.4,7.6,3.8,9.8,6.5s4,5.7,7.4,6.5"/>
<path class="st0" d="M117.5,2.3c-0.4,1.6,0,3.3,1,4.6c0.3,0.4,0.8,0.9,1.1,1.3"/>
<path class="st0" d="M86.1,8.3c1-0.5,1.3-1.8,1.3-2.9c-0.1-1.1,0.2-2.2,0.9-3.1"/>
<path class="st0" d="M24.9,43.3c0.1,1.3,0.5,2.5,1,3.7c0.6,1.2,1.6,2.9,1.2,4.2"/>
<path class="st0" d="M41.4,29.1c1.1,0.7,2.3,1.2,3.6,1.5"/>
<path class="st0" d="M3.3,82.6c1.3-2.3,3.3-4.1,5.7-5.1c2.4-1.1,7.8-3.2,7.8-3.1"/>
<path class="st0" d="M1.9,109.9c0.5,2.2,4.5,4.2,6.5,5.2c2.8,1.4,4.3,6.2,5.3,7.7c1.4,2,7.3,11.1,10.2,12.9"/>
</svg>
