<?xml version="1.0" encoding="utf-8"?>
<!-- Generator: Adobe Illustrator 19.2.0, SVG Export Plug-In . SVG Version: 6.00 Build 0)  -->
<svg version="1.1" xmlns="http://www.w3.org/2000/svg" xmlns:xlink="http://www.w3.org/1999/xlink" x="0px" y="0px"
	 viewBox="0 0 178.4 200.5" style="enable-background:new 0 0 178.4 200.5;" xml:space="preserve">
<style type="text/css">
	.st0{display:none;}
	.st1{display:inline;stroke:#FFFFFF;stroke-miterlimit:10;}
	.st2{fill:#FFFFFF;}
	.st3{fill:none;stroke:#FFFFFF;stroke-width:2;stroke-linecap:round;stroke-linejoin:round;}
	.st4{fill:none;stroke:#FFFFFF;stroke-width:1.5;}
	.st5{fill:none;stroke:#FFFFFF;stroke-width:2;stroke-linejoin:round;}
	.st6{fill:none;stroke:#FFFFFF;stroke-width:0.5;}
	.st7{fill:none;stroke:#FFFFFF;stroke-width:0.5;stroke-linecap:round;stroke-linejoin:round;}
</style>
<g id="Ebene_2" class="st0">
	<rect class="st1" width="178" height="202.9"/>
</g>
<g id="Ebene_1">
	<title>satelit</title>
	<polygon class="st2" points="64.7,66.1 67.7,64.9 72.2,76.3 69.2,77.4 	"/>
	<polygon class="st2" points="87.9,124.9 90.9,123.7 95.3,135.1 92.3,136.2 	"/>
	<polygon class="st2" points="129.6,81.4 128.9,79.6 140.5,75.1 141.1,76.9 	"/>
	<polygon class="st2" points="160,70.1 159.2,68.2 170.9,63.5 171.7,65.4 	"/>
	<path class="st3" d="M140.5,76.8c4,10.9,15,17.6,26.6,16.2l1.8-0.7L151,45.4C140.7,51.2,135.9,64.7,140.5,76.8z"/>
	<path class="st3" d="M128.5,80.9c-4.4-11.4-15.3-17.8-26.4-16.3L13.8,99.1L0,104.6l18.2,46.7l14-5.6l0,0c0,0,85.7-33.4,85.8-33.4
		l0.1,0l0,0C128.6,106.2,133.1,92.9,128.5,80.9z"/>
	<path class="st4" d="M175.4,67c-1.9,0.9-4.2,0-5-1.9c-0.9-1.9,0-4.2,1.9-5c1.9-0.9,4.2,0,5,1.9c0,0.1,0,0.1,0.1,0.2
		C178.2,64,177.3,66.2,175.4,67C175.4,67,175.4,67,175.4,67z"/>
	<polygon class="st5" points="50.3,71.2 27.9,13.8 61.6,0.5 83.9,58 	"/>
	<path class="st6" d="M79.9,46.1L45.2,59.7 M75.4,34.6L40.7,48.2 M70.9,23L36.2,36.6 M66.4,11.5L31.8,25.1 M38.6,9.1l22.5,57.7
		 M50,4.6l22.7,58.2"/>
	<polygon class="st5" points="100.7,200 78.3,142.5 112,129.3 134.4,186.7 	"/>
	<path class="st6" d="M130.3,174.9l-34.6,13.6 M125.8,163.3L91.2,177 M121.3,151.8l-34.6,13.6 M116.8,140.3l-34.7,13.6 M89.1,137.9
		l22.5,57.6 M100.4,133.4l22.7,58.2"/>
	<line class="st7" x1="13.7" y1="99.1" x2="31.9" y2="145.2"/>
	<line class="st7" x1="100.2" y1="65.9" x2="118.4" y2="112"/>
</g>
</svg>
