<svg id="Ebene_1" data-name="Ebene 1" xmlns="http://www.w3.org/2000/svg" viewBox="0 0 178.39 200.5"><defs><style>.cls-1{fill:#fff;}.cls-2,.cls-3,.cls-4,.cls-5{fill:none;stroke:#fff;}.cls-2{stroke-linecap:round;}.cls-2,.cls-4{stroke-linejoin:round;}.cls-3{stroke-width:1.5px;}.cls-5{stroke-width:0.5px;}</style></defs><title>satelit</title><polygon class="cls-1" points="64.72 66.09 67.71 64.91 72.22 76.26 69.22 77.43 64.72 66.09"/><polygon class="cls-1" points="87.91 124.91 90.9 123.73 95.3 135.07 92.31 136.24 87.91 124.91"/><polygon class="cls-2" points="18.7 150.99 0.5 104.33 14.98 98.57 33.17 145.23 18.7 150.99"/><polygon class="cls-1" points="129.56 81.45 128.91 79.62 140.48 75.1 141.13 76.93 129.56 81.45"/><polygon class="cls-1" points="159.99 70.06 159.22 68.17 170.94 63.54 171.71 65.44 159.99 70.06"/><path class="cls-2" d="M144.62,81.11c-4.37-11.4-15.33-17.76-26.44-16.27l-2.26.9,18,46.86C144.64,106.64,149.25,93.18,144.62,81.11Z" transform="translate(-15.59 -0.5)"/><path class="cls-2" d="M156.13,77.27A25,25,0,0,0,182.7,93.43l1.82-.73L166.59,45.92C156.32,51.7,151.51,65.19,156.13,77.27Z" transform="translate(-15.59 -0.5)"/><polygon class="cls-2" points="32.67 145.44 14.31 98.8 100.18 65.35 118.54 111.99 32.67 145.44"/><path class="cls-3" d="M191,67.51a3.82,3.82,0,1,1,2-4.88A3.7,3.7,0,0,1,191,67.51Z" transform="translate(-15.59 -0.5)"/><polygon class="cls-4" points="50.27 71.23 27.91 13.77 61.56 0.5 83.91 57.97 50.27 71.23"/><path class="cls-5" d="M95.46,46.59L60.83,60.22M91,35.06L56.33,48.69M86.47,23.53L51.83,37.15M82,12L47.34,25.62m6.88-16L76.71,67.28M65.6,5.13L88.29,63.32" transform="translate(-15.59 -0.5)"/><polygon class="cls-4" points="100.7 200 78.35 142.53 112 129.26 134.35 186.73 100.7 200"/><path class="cls-5" d="M145.9,175.36L111.27,189m30.14-25.16-34.64,13.63m30.14-25.16-34.63,13.63m30.14-25.16L97.77,154.38m6.88-16L127.14,196M116,133.9l22.69,58.19" transform="translate(-15.59 -0.5)"/></svg>